<svg width="159" height="44" viewBox="0 0 159 44" fill="none" xmlns="http://www.w3.org/2000/svg">
<path d="M137.972 10.1651V33.1754L135.265 34.4947C134.591 34.7231 134.112 34.8716 133.826 34.9401C133.54 35.0201 133.272 35.0601 133.021 35.0601C132.735 35.0601 132.501 34.9801 132.318 34.8202C132.135 34.6603 132.044 34.4204 132.044 34.1006V13.3348C132.044 13.0492 131.998 12.8436 131.907 12.718C131.827 12.5809 131.696 12.4952 131.513 12.461L130.845 12.3753C130.639 12.3182 130.491 12.2382 130.399 12.1354C130.308 12.0212 130.262 11.8727 130.262 11.69C130.262 11.4844 130.319 11.3244 130.434 11.2102C130.559 11.0846 130.776 10.9589 131.085 10.8333L134.888 9.47974C135.357 9.3084 135.728 9.18847 136.002 9.11993C136.276 9.03998 136.522 9 136.739 9C137.15 9 137.458 9.10851 137.664 9.32554C137.869 9.54256 137.972 9.82241 137.972 10.1651ZM136.944 23.495L136.053 22.5355C136.967 21.1077 137.995 19.9997 139.137 19.2116C140.28 18.412 141.57 18.0122 143.01 18.0122C144.357 18.0122 145.557 18.3549 146.608 19.0402C147.658 19.7142 148.487 20.6565 149.092 21.8673C149.697 23.0666 150 24.4659 150 26.065C150 27.8811 149.634 29.4688 148.903 30.8281C148.184 32.1874 147.19 33.2382 145.922 33.9807C144.666 34.7231 143.249 35.0943 141.673 35.0943C140.337 35.0943 139.172 34.8088 138.178 34.2377C137.184 33.6551 136.35 32.787 135.676 31.6334L137.047 30.6396C137.55 31.4506 138.081 32.0446 138.64 32.4215C139.212 32.787 139.828 32.9698 140.491 32.9698C141.153 32.9698 141.736 32.7585 142.239 32.3358C142.753 31.9132 143.152 31.2393 143.438 30.3141C143.735 29.3775 143.883 28.161 143.883 26.6647C143.883 25.2826 143.741 24.1575 143.455 23.2894C143.169 22.4213 142.781 21.7816 142.29 21.3704C141.81 20.9592 141.25 20.7536 140.611 20.7536C139.914 20.7536 139.257 20.9763 138.64 21.4218C138.035 21.8558 137.47 22.5469 136.944 23.495Z" fill="black"/>
<path d="M121.699 32.4901V32.1474L121.288 32.1302V21.3361C121.288 20.7193 121.128 20.2396 120.809 19.8969C120.5 19.5428 120.066 19.3658 119.506 19.3658C119.015 19.3658 118.621 19.48 118.324 19.7084C118.039 19.9255 117.896 20.2053 117.896 20.548V22.2271C117.896 23.0266 117.622 23.6549 117.073 24.1118C116.525 24.5687 115.754 24.7971 114.76 24.7971C113.927 24.7971 113.293 24.6086 112.859 24.2317C112.436 23.8548 112.225 23.3236 112.225 22.6383C112.225 21.9187 112.533 21.2048 113.15 20.4966C113.778 19.7884 114.709 19.2002 115.943 18.7318C117.176 18.2635 118.713 18.0294 120.552 18.0294C122.779 18.0294 124.435 18.4634 125.52 19.3315C126.617 20.1882 127.165 21.3647 127.165 22.861V31.4278C127.165 31.7019 127.222 31.9189 127.336 32.0789C127.462 32.2273 127.639 32.3016 127.868 32.3016C128.085 32.3016 128.256 32.2445 128.382 32.1302C128.519 32.016 128.633 31.8847 128.724 31.7362C128.781 31.6676 128.844 31.6105 128.913 31.5648C128.981 31.5077 129.067 31.4792 129.17 31.4792C129.318 31.4792 129.421 31.5363 129.478 31.6505C129.547 31.7533 129.581 31.8904 129.581 32.0617C129.581 32.4843 129.427 32.9298 129.118 33.3981C128.821 33.8664 128.364 34.2662 127.748 34.5975C127.131 34.9287 126.36 35.0943 125.435 35.0943C124.292 35.0943 123.384 34.8545 122.71 34.3747C122.036 33.895 121.699 33.2668 121.699 32.4901ZM111.522 31.0851C111.522 29.6116 112.179 28.4351 113.492 27.5556C114.806 26.6761 116.679 26.2363 119.112 26.2363C119.809 26.2363 120.42 26.2934 120.946 26.4077C121.471 26.5219 121.916 26.6761 122.282 26.8703L121.854 28.0011C121.534 27.8412 121.22 27.7212 120.911 27.6413C120.603 27.5613 120.26 27.5213 119.883 27.5213C119.152 27.5213 118.57 27.7441 118.136 28.1895C117.713 28.635 117.502 29.2632 117.502 30.0742C117.502 30.9081 117.696 31.542 118.084 31.976C118.473 32.3987 118.975 32.61 119.592 32.61C120.049 32.61 120.489 32.5015 120.911 32.2845C121.334 32.056 121.677 31.7704 121.939 31.4278L122.316 32.4558C121.734 33.301 120.928 33.9521 119.9 34.409C118.872 34.8659 117.776 35.0943 116.611 35.0943C115.103 35.0943 113.875 34.7174 112.927 33.9635C111.99 33.2097 111.522 32.2502 111.522 31.0851Z" fill="black"/>
<path d="M107.97 10.1651V31.7704C107.97 32.1474 108.01 32.4215 108.09 32.5929C108.17 32.7528 108.301 32.867 108.484 32.9355L109.032 33.1069C109.249 33.1982 109.403 33.3067 109.495 33.4324C109.597 33.558 109.649 33.7122 109.649 33.895C109.649 34.1349 109.569 34.3233 109.409 34.4604C109.26 34.5975 109.009 34.666 108.655 34.666H101.339C100.996 34.666 100.745 34.5975 100.585 34.4604C100.425 34.3233 100.345 34.1349 100.345 33.895C100.345 33.7237 100.391 33.5752 100.482 33.4495C100.585 33.3125 100.745 33.1982 100.962 33.1069L101.527 32.9355C101.71 32.867 101.842 32.7528 101.921 32.5929C102.001 32.4215 102.041 32.1531 102.041 31.7876V13.3348C102.041 13.0492 101.996 12.8436 101.904 12.718C101.824 12.5809 101.693 12.4952 101.51 12.461L100.842 12.3753C100.636 12.3182 100.488 12.2382 100.397 12.1354C100.305 12.0212 100.26 11.8727 100.26 11.69C100.26 11.4844 100.317 11.3244 100.431 11.2102C100.557 11.0846 100.774 10.9589 101.082 10.8333L104.886 9.47974C105.354 9.3084 105.725 9.18847 105.999 9.11993C106.273 9.03998 106.519 9 106.736 9C107.147 9 107.456 9.10851 107.661 9.32554C107.867 9.54256 107.97 9.82241 107.97 10.1651Z" fill="black"/>
<path d="M87.2785 20.2224L86.5075 19.9826C86.2676 19.8912 86.0963 19.7827 85.9935 19.657C85.8907 19.5314 85.8393 19.3829 85.8393 19.2116C85.8393 18.9717 85.9192 18.7832 86.0791 18.6462C86.2505 18.5091 86.4675 18.4406 86.7302 18.4406H87.7925C88.0095 18.4406 88.2037 18.3949 88.375 18.3035C88.5464 18.2121 88.7405 18.0408 88.9576 17.7895L91.5276 14.9796C91.8017 14.6712 92.0587 14.4485 92.2986 14.3114C92.5499 14.1629 92.7955 14.0886 93.0353 14.0886C93.2866 14.0886 93.4865 14.1743 93.635 14.3457C93.7835 14.5056 93.8578 14.7454 93.8578 15.0653V29.2518C93.8578 30.0856 94.012 30.7196 94.3204 31.1536C94.6288 31.5877 95.0628 31.8047 95.6225 31.8047C96.0223 31.8047 96.3364 31.719 96.5649 31.5477C96.7933 31.3764 96.9761 31.1765 97.1131 30.948C97.2616 30.7082 97.4044 30.4911 97.5415 30.297C97.69 30.0914 97.8727 29.96 98.0897 29.9029C98.2611 29.8915 98.4038 29.9486 98.5181 30.0742C98.6323 30.1884 98.6837 30.394 98.6723 30.691C98.6494 31.502 98.4038 32.2388 97.9355 32.9013C97.4672 33.5637 96.8161 34.0949 95.9823 34.4947C95.1599 34.883 94.2176 35.0772 93.1553 35.0772C91.5105 35.0772 90.2312 34.6774 89.3174 33.8779C88.415 33.0669 87.9638 31.8504 87.9638 30.2284V21.1819C87.9638 20.8964 87.9067 20.6908 87.7925 20.5651C87.6897 20.4281 87.5183 20.3138 87.2785 20.2224ZM91.7503 20.291L91.7675 18.4406H97.6443C97.9298 18.4406 98.1526 18.5034 98.3125 18.629C98.4724 18.7433 98.5523 18.9089 98.5523 19.1259C98.5523 19.4572 98.3867 19.737 98.0555 19.9654C97.7356 20.1825 97.2102 20.291 96.4792 20.291H91.7503Z" fill="black"/>
<path d="M80.9158 31.7704C80.9158 32.1017 80.9729 32.3644 81.0871 32.5586C81.2128 32.7413 81.4127 32.8441 81.6868 32.867L83.4516 33.0897C83.7257 33.124 83.9199 33.2154 84.0341 33.3639C84.1597 33.5009 84.2226 33.6723 84.2226 33.8779C84.2226 34.4033 83.9027 34.666 83.2631 34.666H73.6683C73.3827 34.666 73.1543 34.6032 72.983 34.4775C72.8231 34.3405 72.7431 34.1577 72.7431 33.9293C72.7431 33.7122 72.8002 33.5352 72.9144 33.3981C73.0401 33.2611 73.2343 33.1583 73.497 33.0897L74.1652 32.9184C74.4736 32.827 74.6906 32.6957 74.8163 32.5243C74.9533 32.353 75.0219 32.1131 75.0219 31.8047V21.9015C75.0219 21.7074 74.9705 21.536 74.8677 21.3875C74.7649 21.239 74.565 21.1077 74.268 20.9935L73.377 20.6851C73.0229 20.5366 72.7774 20.3938 72.6403 20.2567C72.5147 20.1082 72.4518 19.9426 72.4518 19.7598C72.4518 19.5542 72.5261 19.3829 72.6746 19.2458C72.8231 19.1088 73.0572 19.0402 73.377 19.0402H76.1527L75.039 19.5714V19.0745C75.039 18.8004 74.9419 18.5262 74.7477 18.2521C74.565 17.978 74.3479 17.6753 74.0967 17.344C73.8454 17.0128 73.6226 16.6301 73.4284 16.1961C73.2457 15.762 73.1543 15.2423 73.1543 14.6369C73.1543 13.152 73.7026 11.9641 74.7991 11.0732C75.9071 10.1708 77.4491 9.7196 79.4252 9.7196C80.6931 9.7196 81.7553 9.9195 82.612 10.3193C83.4801 10.7076 84.1369 11.2331 84.5824 11.8956C85.0278 12.5466 85.2506 13.2548 85.2506 14.0201C85.2506 14.8425 85.0221 15.4708 84.5652 15.9048C84.1083 16.3274 83.5258 16.5387 82.8176 16.5387C82.018 16.5387 81.3784 16.3046 80.8987 15.8363C80.4189 15.3565 80.179 14.7112 80.179 13.9002V12.5809C80.179 12.0783 80.042 11.7071 79.7678 11.4672C79.5051 11.2274 79.1453 11.1074 78.6884 11.1074C78.1287 11.1074 77.7061 11.2788 77.4205 11.6214C77.135 11.9641 76.9922 12.4553 76.9922 13.0949C76.9922 13.6546 77.1064 14.1629 77.3349 14.6198C77.5748 15.0767 77.866 15.4993 78.2087 15.8877C78.5628 16.2646 78.9169 16.6301 79.271 16.9842C79.6251 17.3269 79.9163 17.6696 80.1448 18.0122C80.3846 18.3549 80.5046 18.7204 80.5046 19.1088V19.8798L79.9049 19.0402H83.76C84.0341 19.0402 84.2511 19.1031 84.411 19.2287C84.5709 19.3429 84.6509 19.5086 84.6509 19.7256C84.6509 20.0568 84.491 20.3367 84.1712 20.5651C83.8513 20.7821 83.3259 20.8907 82.5949 20.8907H80.9158V31.7704Z" fill="black"/>
<path d="M63.238 32.4901V32.1474L62.8268 32.1302V21.3361C62.8268 20.7193 62.6669 20.2396 62.3471 19.8969C62.0387 19.5428 61.6046 19.3658 61.0449 19.3658C60.5538 19.3658 60.1597 19.48 59.8627 19.7084C59.5771 19.9255 59.4344 20.2053 59.4344 20.548V22.2271C59.4344 23.0266 59.1602 23.6549 58.612 24.1118C58.0637 24.5687 57.2927 24.7971 56.2989 24.7971C55.4651 24.7971 54.8312 24.6086 54.3971 24.2317C53.9745 23.8548 53.7632 23.3236 53.7632 22.6383C53.7632 21.9187 54.0716 21.2048 54.6884 20.4966C55.3166 19.7884 56.2475 19.2002 57.4811 18.7318C58.7148 18.2635 60.2511 18.0294 62.0901 18.0294C64.3174 18.0294 65.9737 18.4634 67.0588 19.3315C68.1553 20.1882 68.7036 21.3647 68.7036 22.861V31.4278C68.7036 31.7019 68.7607 31.9189 68.8749 32.0789C69.0006 32.2273 69.1776 32.3016 69.4061 32.3016C69.6231 32.3016 69.7944 32.2445 69.9201 32.1302C70.0571 32.016 70.1714 31.8847 70.2627 31.7362C70.3199 31.6676 70.3827 31.6105 70.4512 31.5648C70.5198 31.5077 70.6054 31.4792 70.7082 31.4792C70.8567 31.4792 70.9595 31.5363 71.0166 31.6505C71.0852 31.7533 71.1194 31.8904 71.1194 32.0617C71.1194 32.4843 70.9652 32.9298 70.6568 33.3981C70.3598 33.8664 69.9029 34.2662 69.2861 34.5975C68.6693 34.9287 67.8983 35.0943 66.9731 35.0943C65.8309 35.0943 64.9228 34.8545 64.2489 34.3747C63.575 33.895 63.238 33.2668 63.238 32.4901ZM53.0607 31.0851C53.0607 29.6116 53.7175 28.4351 55.0311 27.5556C56.3446 26.6761 58.2179 26.2363 60.6508 26.2363C61.3476 26.2363 61.9587 26.2934 62.4841 26.4077C63.0096 26.5219 63.455 26.6761 63.8205 26.8703L63.3922 28.0011C63.0724 27.8412 62.7583 27.7212 62.4499 27.6413C62.1415 27.5613 61.7988 27.5213 61.4219 27.5213C60.6908 27.5213 60.1083 27.7441 59.6742 28.1895C59.2516 28.635 59.0403 29.2632 59.0403 30.0742C59.0403 30.9081 59.2345 31.542 59.6228 31.976C60.0112 32.3987 60.5138 32.61 61.1306 32.61C61.5875 32.61 62.0272 32.5015 62.4499 32.2845C62.8725 32.056 63.2152 31.7704 63.4779 31.4278L63.8548 32.4558C63.2723 33.301 62.467 33.9521 61.439 34.409C60.411 34.8659 59.3144 35.0943 58.1494 35.0943C56.6416 35.0943 55.4137 34.7174 54.4656 33.9635C53.529 33.2097 53.0607 32.2502 53.0607 31.0851Z" fill="black"/>
<path d="M43.1021 25.4824C43.1021 23.8148 43.3306 22.427 43.7875 21.319C44.2558 20.211 44.8669 19.3829 45.6208 18.8346C46.3746 18.2864 47.1856 18.0122 48.0537 18.0122C49.1731 18.0122 50.0298 18.3435 50.6237 19.006C51.2291 19.657 51.5318 20.6279 51.5318 21.9187C51.5318 23.1409 51.2748 24.0489 50.7608 24.6429C50.2582 25.2369 49.6014 25.5338 48.7905 25.5338C47.9909 25.5338 47.3855 25.3225 46.9743 24.8999C46.5631 24.4773 46.3575 23.8833 46.3575 23.118V22.4669C46.3461 22.1357 46.2718 21.8901 46.1348 21.7302C45.9977 21.5589 45.775 21.4732 45.4666 21.4732C45.1581 21.4732 44.8669 21.6103 44.5927 21.8844C44.33 22.1471 44.113 22.564 43.9417 23.1352C43.7818 23.7063 43.7018 24.443 43.7018 25.3454L43.1021 25.4824ZM43.3591 19.2287L43.7018 23.2037V31.7533C43.7018 32.0846 43.7589 32.3301 43.8731 32.4901C43.9874 32.6385 44.2158 32.7471 44.5585 32.8156L45.9806 33.0726C46.2547 33.1183 46.4546 33.2097 46.5802 33.3467C46.7173 33.4724 46.7858 33.6494 46.7858 33.8779C46.7858 34.1292 46.7002 34.3233 46.5288 34.4604C46.3575 34.5975 46.1062 34.666 45.775 34.666H37.0711C36.717 34.666 36.46 34.5975 36.3001 34.4604C36.1516 34.3233 36.0774 34.1349 36.0774 33.895C36.0774 33.7237 36.1231 33.5752 36.2144 33.4495C36.3173 33.3125 36.4772 33.1982 36.6942 33.1069L37.2425 32.9355C37.4366 32.867 37.5737 32.7528 37.6537 32.5929C37.7336 32.4329 37.7736 32.1645 37.7736 31.7876V22.4155C37.7736 22.13 37.7279 21.9244 37.6365 21.7987C37.5566 21.6617 37.4252 21.5703 37.2425 21.5246L36.5571 21.4561C36.3629 21.399 36.2202 21.3133 36.1288 21.1991C36.0374 21.0848 35.9917 20.9421 35.9917 20.7707C35.9917 20.5651 36.0488 20.3995 36.163 20.2739C36.2887 20.1482 36.5057 20.0283 36.8141 19.914L40.5321 18.6119C41.1375 18.3835 41.5772 18.235 41.8514 18.1664C42.1255 18.0979 42.3425 18.0636 42.5025 18.0636C42.7537 18.0636 42.9479 18.155 43.085 18.3378C43.2221 18.5205 43.3134 18.8175 43.3591 19.2287Z" fill="black"/>
<path d="M9 33.8093C9 33.341 9.23987 33.0212 9.71961 32.8499L10.5934 32.6271C10.879 32.5357 11.0903 32.4158 11.2274 32.2673C11.3644 32.1074 11.433 31.9018 11.433 31.6505V13.7117C11.433 13.449 11.3644 13.2434 11.2274 13.0949C11.0903 12.935 10.879 12.8094 10.5934 12.718L9.71961 12.4952C9.23987 12.3239 9 12.0041 9 11.5358C9 11.2616 9.08567 11.0503 9.257 10.9018C9.43976 10.7533 9.71961 10.6791 10.0965 10.6791H19.8627C21.9644 10.6791 23.8776 10.9932 25.6024 11.6214C27.3272 12.2382 28.8121 13.1178 30.0571 14.26C31.3136 15.4022 32.273 16.7615 32.9355 18.3378C33.6094 19.9141 33.9464 21.6617 33.9464 23.5806C33.9464 25.7394 33.4381 27.6527 32.4215 29.3204C31.4164 30.988 29.9771 32.2959 28.1039 33.2439C26.242 34.192 24.0261 34.666 21.4561 34.666H10.0965C9.71961 34.666 9.43976 34.5918 9.257 34.4433C9.08567 34.2834 9 34.072 9 33.8093ZM20.805 32.8156C22.05 32.8156 23.1466 32.4843 24.0946 31.8218C25.0541 31.1593 25.808 30.137 26.3563 28.7549C26.9045 27.3614 27.1787 25.5852 27.1787 23.4264C27.1787 21.7131 26.9959 20.1825 26.6304 18.8346C26.2649 17.4868 25.7337 16.3446 25.037 15.4079C24.3516 14.4713 23.5178 13.7574 22.5355 13.2662C21.5532 12.7751 20.4452 12.5295 19.2116 12.5295H17.978V31.2222C17.978 31.7704 18.1265 32.1759 18.4234 32.4387C18.7318 32.6899 19.1659 32.8156 19.7256 32.8156H20.805Z" fill="black"/>
<path d="M4.57778 31.8552V39.4222H12.1448V44H0V31.8552H4.57778ZM12.1448 0V4.57778H4.57778V12.1448H0V0H12.1448Z" fill="black"/>
<path d="M153.567 12.1448L153.567 4.57778L146 4.57778L146 -1.06173e-06L158.145 0L158.145 12.1448L153.567 12.1448ZM146 44L146 39.4222L153.567 39.4222L153.567 31.8552L158.145 31.8552L158.145 44L146 44Z" fill="black"/>
</svg>
