<svg width="1687" height="398" viewBox="0 0 1687 398" fill="none" xmlns="http://www.w3.org/2000/svg">
<path d="M535.247 256.626C527.634 256.626 520.971 255.471 515.261 253.16C509.687 250.713 505.2 247.314 501.801 242.964C498.538 238.613 496.567 233.447 495.887 227.466H514.241C515.057 231.408 517.233 234.535 520.767 236.846C524.438 239.157 529.265 240.313 535.247 240.313H543.813C551.019 240.313 556.389 238.885 559.924 236.03C563.459 233.039 565.227 229.097 565.227 224.203C565.227 219.445 563.595 215.706 560.332 212.987C557.205 210.132 552.514 208.229 546.26 207.277L531.168 204.83C520.156 202.927 511.93 199.528 506.492 194.634C501.189 189.604 498.538 182.331 498.538 172.814C498.538 162.754 501.733 155.005 508.123 149.567C514.513 143.993 524.099 141.206 536.879 141.206H544.629C555.369 141.206 564.003 143.721 570.529 148.752C577.055 153.782 580.998 160.579 582.358 169.144H564.003C563.187 165.609 561.148 162.822 557.885 160.783C554.622 158.608 550.203 157.52 544.629 157.52H536.879C529.945 157.52 524.846 158.812 521.583 161.395C518.456 163.978 516.893 167.852 516.893 173.018C516.893 177.641 518.252 181.039 520.971 183.214C523.691 185.39 527.973 186.953 533.82 187.905L548.911 190.352C561.012 192.255 569.781 195.79 575.22 200.956C580.794 206.122 583.581 213.599 583.581 223.387C583.581 233.719 580.25 241.876 573.588 247.858C567.062 253.704 557.137 256.626 543.813 256.626H535.247Z" fill="black"/>
<path d="M660.795 257.034C647.879 257.034 637.546 253.228 629.796 245.615C622.046 237.866 618.172 227.398 618.172 214.211V142.838H636.526V214.211C636.526 222.639 638.702 229.233 643.052 233.991C647.403 238.613 653.317 240.924 660.795 240.924C668.409 240.924 674.391 238.613 678.742 233.991C683.229 229.233 685.472 222.639 685.472 214.211V142.838H703.827V214.211C703.827 227.398 699.884 237.866 691.998 245.615C684.112 253.228 673.711 257.034 660.795 257.034Z" fill="black"/>
<path d="M740.864 291.701V142.838H759.219V164.25H762.89L759.219 168.532C759.219 159.967 762.006 153.238 767.58 148.344C773.291 143.314 780.769 140.799 790.014 140.799C801.299 140.799 810.272 144.537 816.934 152.014C823.732 159.356 827.131 169.484 827.131 182.399V215.23C827.131 223.795 825.568 231.204 822.441 237.458C819.449 243.711 815.167 248.537 809.592 251.936C804.154 255.335 797.628 257.034 790.014 257.034C780.905 257.034 773.495 254.519 767.784 249.489C762.074 244.459 759.219 237.73 759.219 229.301L762.89 233.583H758.811L759.219 259.073V291.701H740.864ZM783.896 241.128C791.645 241.128 797.696 238.817 802.046 234.195C806.533 229.573 808.776 222.911 808.776 214.211V183.622C808.776 174.922 806.533 168.26 802.046 163.638C797.696 159.016 791.645 156.705 783.896 156.705C776.418 156.705 770.436 159.084 765.949 163.842C761.462 168.6 759.219 175.193 759.219 183.622V214.211C759.219 222.639 761.462 229.233 765.949 233.991C770.436 238.749 776.418 241.128 783.896 241.128Z" fill="black"/>
<path d="M905.569 257.034C896.731 257.034 888.982 255.267 882.319 251.732C875.793 248.198 870.695 243.236 867.024 236.846C863.489 230.32 861.721 222.775 861.721 214.211V183.622C861.721 174.922 863.489 167.376 867.024 160.987C870.695 154.597 875.793 149.635 882.319 146.101C888.982 142.566 896.731 140.799 905.569 140.799C914.406 140.799 922.088 142.566 928.614 146.101C935.276 149.635 940.375 154.597 943.91 160.987C947.581 167.376 949.416 174.922 949.416 183.622V203.403H879.668V214.211C879.668 223.047 881.912 229.845 886.398 234.603C890.885 239.225 897.275 241.536 905.569 241.536C912.639 241.536 918.349 240.313 922.7 237.866C927.05 235.283 929.702 231.476 930.653 226.446H949.008C947.784 235.826 943.162 243.304 935.14 248.877C927.254 254.315 917.397 257.034 905.569 257.034ZM931.469 191.167V183.622C931.469 174.786 929.226 167.988 924.739 163.23C920.388 158.472 913.998 156.093 905.569 156.093C897.275 156.093 890.885 158.472 886.398 163.23C881.912 167.988 879.668 174.786 879.668 183.622V189.536H932.897L931.469 191.167Z" fill="black"/>
<path d="M989.309 254.995V142.838H1007.26V164.25H1011.54L1005.62 177.505C1005.62 165.405 1008.21 156.297 1013.37 150.179C1018.68 143.925 1026.49 140.799 1036.83 140.799C1048.66 140.799 1058.04 144.537 1064.97 152.014C1072.04 159.356 1075.58 169.348 1075.58 181.991V188.72H1057.22V183.622C1057.22 174.786 1055.05 168.056 1050.69 163.434C1046.48 158.676 1040.43 156.297 1032.54 156.297C1024.79 156.297 1018.68 158.676 1014.19 163.434C1009.84 168.192 1007.66 174.922 1007.66 183.622V254.995H989.309Z" fill="black"/>
<path d="M1156.66 257.034C1147.42 257.034 1140.01 254.587 1134.43 249.693C1128.86 244.663 1126.07 237.866 1126.07 229.301L1129.74 233.583H1126.07V254.995H1107.72V106.132H1126.07V138.759L1125.67 164.25H1129.74L1126.07 168.532C1126.07 160.103 1128.86 153.374 1134.43 148.344C1140.15 143.314 1147.56 140.799 1156.66 140.799C1167.95 140.799 1176.99 144.537 1183.79 152.014C1190.59 159.491 1193.99 169.688 1193.99 182.603V215.434C1193.99 228.213 1190.59 238.341 1183.79 245.819C1176.99 253.296 1167.95 257.034 1156.66 257.034ZM1150.55 241.128C1158.3 241.128 1164.41 238.817 1168.9 234.195C1173.39 229.573 1175.63 222.911 1175.63 214.211V183.622C1175.63 174.922 1173.39 168.26 1168.9 163.638C1164.41 159.016 1158.3 156.705 1150.55 156.705C1143.07 156.705 1137.09 159.084 1132.6 163.842C1128.25 168.6 1126.07 175.193 1126.07 183.622V214.211C1126.07 222.639 1128.25 229.233 1132.6 233.991C1137.09 238.749 1143.07 241.128 1150.55 241.128Z" fill="black"/>
<path d="M1287.72 254.995C1281.19 254.995 1275.48 253.704 1270.59 251.121C1265.69 248.537 1261.89 244.867 1259.17 240.109C1256.45 235.351 1255.09 229.777 1255.09 223.387V122.853H1217.36V106.132H1273.44V223.387C1273.44 228.009 1274.73 231.68 1277.32 234.399C1279.9 236.982 1283.37 238.273 1287.72 238.273H1323.41V254.995H1287.72Z" fill="black"/>
<path d="M1394.71 256.626C1385.73 256.626 1377.98 254.927 1371.46 251.528C1364.93 248.13 1359.83 243.236 1356.16 236.846C1352.63 230.32 1350.86 222.639 1350.86 213.803V184.03C1350.86 175.058 1352.63 167.376 1356.16 160.987C1359.83 154.597 1364.93 149.703 1371.46 146.304C1377.98 142.906 1385.73 141.206 1394.71 141.206C1403.68 141.206 1411.43 142.906 1417.96 146.304C1424.48 149.703 1429.51 154.597 1433.05 160.987C1436.72 167.376 1438.56 174.99 1438.56 183.826V213.803C1438.56 222.639 1436.72 230.32 1433.05 236.846C1429.51 243.236 1424.48 248.13 1417.96 251.528C1411.43 254.927 1403.68 256.626 1394.71 256.626ZM1394.71 240.313C1402.73 240.313 1408.98 238.069 1413.47 233.583C1417.96 229.097 1420.2 222.503 1420.2 213.803V184.03C1420.2 175.329 1417.96 168.736 1413.47 164.25C1408.98 159.763 1402.73 157.52 1394.71 157.52C1386.82 157.52 1380.57 159.763 1375.95 164.25C1371.46 168.736 1369.22 175.329 1369.22 184.03V213.803C1369.22 222.503 1371.46 229.097 1375.95 233.583C1380.57 238.069 1386.82 240.313 1394.71 240.313Z" fill="black"/>
<path d="M1516.99 256.626C1508.02 256.626 1500.27 254.927 1493.74 251.528C1487.22 248.13 1482.12 243.236 1478.45 236.846C1474.91 230.32 1473.15 222.639 1473.15 213.803V184.03C1473.15 175.058 1474.91 167.376 1478.45 160.987C1482.12 154.597 1487.22 149.703 1493.74 146.304C1500.27 142.906 1508.02 141.206 1516.99 141.206C1525.97 141.206 1533.72 142.906 1540.24 146.304C1546.77 149.703 1551.8 154.597 1555.33 160.987C1559 167.376 1560.84 174.99 1560.84 183.826V213.803C1560.84 222.639 1559 230.32 1555.33 236.846C1551.8 243.236 1546.77 248.13 1540.24 251.528C1533.72 254.927 1525.97 256.626 1516.99 256.626ZM1516.99 240.313C1525.01 240.313 1531.27 238.069 1535.76 233.583C1540.24 229.097 1542.49 222.503 1542.49 213.803V184.03C1542.49 175.329 1540.24 168.736 1535.76 164.25C1531.27 159.763 1525.01 157.52 1516.99 157.52C1509.11 157.52 1502.85 159.763 1498.23 164.25C1493.74 168.736 1491.5 175.329 1491.5 184.03V213.803C1491.5 222.503 1493.74 229.097 1498.23 233.583C1502.85 238.069 1509.11 240.313 1516.99 240.313Z" fill="black"/>
<path d="M1591.56 254.995V142.838H1607.67V156.297H1611.34L1608.48 161.191C1608.48 154.937 1610.11 149.975 1613.38 146.304C1616.78 142.634 1621.33 140.799 1627.04 140.799C1633.3 140.799 1638.12 143.11 1641.52 147.732C1644.92 152.354 1646.62 158.88 1646.62 167.308L1641.11 156.297H1649.68L1645.8 161.191C1645.8 154.937 1647.5 149.975 1650.9 146.304C1654.44 142.634 1659.06 140.799 1664.77 140.799C1671.84 140.799 1677.28 143.45 1681.09 148.752C1685.03 154.054 1687 161.055 1687 169.756V254.995H1670.07V169.552C1670.07 164.929 1669.05 161.327 1667.01 158.744C1665.11 156.161 1662.25 154.869 1658.45 154.869C1654.78 154.869 1651.85 156.161 1649.68 158.744C1647.64 161.191 1646.62 164.725 1646.62 169.348V254.995H1631.94V169.552C1631.94 164.793 1630.85 161.191 1628.67 158.744C1626.63 156.161 1623.71 154.869 1619.9 154.869C1616.1 154.869 1613.24 156.161 1611.34 158.744C1609.43 161.191 1608.48 164.725 1608.48 169.348V254.995H1591.56Z" fill="black"/>
<path d="M348.131 230.246C344.904 227.638 340.034 227.059 335.919 225.552C326.257 222.036 292.036 209.616 265.738 201.522C279.264 196.596 292.636 191.284 303.881 181.452C321.407 165.999 339.59 153.617 364.942 153.481C375.221 153.481 393.636 149.946 386.467 132.233C380.458 117.417 368.091 124.332 355.667 129.007C318.238 143.089 281.525 158.909 245.526 176.005C256.985 167.351 270.974 155.432 270.433 155.239C270.723 154.466 270.801 153.443 271.361 152.94C274.124 150.429 277.158 148.131 279.824 145.639C280.906 144.673 282.182 143.707 283.303 142.761C283.882 142.084 284.462 141.428 285.08 140.829L285.563 140.346C285.801 139.982 285.984 139.585 286.104 139.168C286.95 136.626 288.65 134.455 290.916 133.025C296.326 129.065 301.756 125.124 307.398 121.435C312.383 118.248 317.755 115.64 322.74 112.511C325.677 110.579 329.697 108.647 330.605 105.866C331.764 102.35 334.102 100.553 336.17 98.1389C337.482 96.5044 338.708 94.8022 339.841 93.0392L339.107 92.2666L332.556 96.3617C332.556 95.28 332.402 94.7777 332.556 94.43C335.164 89.6607 338.983 85.6629 343.628 82.84C344.363 82.415 344.614 81.1401 345.329 79.8073H340.73L344.846 69.4535L339.571 71.9454L338.817 71.2306C339.938 68.5842 342.682 65.2617 343.551 62.7506C343.649 62.481 343.669 62.1889 343.607 61.9088C343.545 61.6286 343.404 61.372 343.201 61.1691C342.998 60.9662 342.741 60.8254 342.461 60.7634C342.181 60.7013 341.888 60.7206 341.619 60.8189L337.754 62.1131C338.148 60.2488 338.393 58.3563 338.488 56.4533C338.488 55.275 338.624 52.59 337.503 52.9377C335.339 53.6524 336.788 56.5306 335.339 58.2691C330.064 58.5202 326.296 59.7372 322.76 63.6005C323.107 62.9244 324.17 60.703 324.383 60.278C322.191 60.5139 320.066 61.1698 318.122 62.2097C314.973 64.1414 312.325 66.6332 309.272 68.816C304.963 71.9647 300.635 75.1326 296.191 78.1267C290.645 81.8935 284.713 85.1194 279.457 89.2531C273.525 93.9471 268.192 99.3944 262.569 104.475C260.869 106.02 259.014 107.43 257.313 108.956C250.589 114.983 243.923 121.049 237.198 127.056C237.005 127.249 229.971 133.315 223.247 139.09C222.281 137.97 220.039 137.777 220.89 134.821C221.179 133.798 219.363 131.924 218.165 130.784C217.283 130.065 216.291 129.491 215.228 129.084C214.513 126.129 213.992 123.907 213.296 120.894C214.049 119.638 215.228 117.552 216.6 115.524C216.972 114.95 217.443 114.446 217.991 114.037C219.479 115.118 220.078 114.037 221.044 113.129C222.34 111.993 223.737 110.978 225.218 110.096C224.329 107.218 223.518 104.513 222.59 101.539L229.141 99.9739C229.141 99.6262 229.141 99.2786 229.141 98.9309L213.817 98.1002C213.373 96.4776 212.948 94.855 212.465 93.0006L223.595 94.063L220.484 87.1283C219.383 87.901 218.552 88.4805 217.354 89.3884C216.851 86.2204 216.407 83.4388 216.001 80.7731C220.522 77.2574 220.523 77.0836 216.388 74.5531C217.817 70.6898 219.556 66.8264 216.716 62.3836C220.851 62.1904 221.991 57.9021 225.817 57.651C226.28 57.5607 226.714 57.3557 227.077 57.0548C227.441 56.7538 227.723 56.3665 227.898 55.9282C228.073 55.49 228.135 55.0149 228.078 54.5464C228.022 54.0779 227.849 53.6311 227.575 53.2468L225.218 53.8456C224.561 52.3968 224.078 51.2957 223.634 50.2913L229.913 45.3076C229.913 42.3328 228.464 39.5125 229.913 36.2094C230.667 34.5095 229.604 31.979 229.295 29.8349C229.011 28.871 229.019 27.8446 229.318 26.8852C229.617 25.9259 230.194 25.0769 230.976 24.4455C233.121 22.9581 232.908 21.3355 231.981 19.2493C231.343 17.8198 230.358 15.2314 230.899 14.7678C234.512 11.6964 231.633 8.02625 232.715 4.49128C229.418 3.33012 226.032 2.43862 222.59 1.82558C214.146 0.956326 205.663 0.492719 197.2 0.00980077C194.437 -0.144733 193.181 1.53583 193.045 4.51061C192.91 7.48538 192.678 11.001 192.273 14.169C191.654 19.0368 190.688 23.8273 190.147 28.7338C187.828 49.6345 185.626 70.5739 183.307 91.4746C182.186 101.558 180.93 111.641 179.674 121.705C178.824 128.312 177.742 134.899 176.949 141.544V141.717C159.559 122.961 144.255 106.175 138.304 98.6604C125.473 82.2605 112.701 65.7254 97.5713 51.2571C92.2768 46.1961 87.504 40.5363 80.7796 36.1128C80.6057 41.9078 75.5431 44.786 74.5384 49.5186C72.9359 57.682 69.0728 65.2315 63.389 71.3079C59.4085 75.5576 59.6983 79.0346 64.0653 83.1104C80.6829 98.4093 94.4603 116.239 109.107 133.334C112.102 136.83 125.57 151.472 141.222 168.355C130.536 166.636 119.966 164.782 109.281 162.56C91.1946 158.697 73.5143 152.902 55.7953 147.628C53.2447 146.875 49.3801 143.243 49.7085 141.717C50.5781 137.68 52.4137 133.991 47.7763 131.576C44.1822 129.78 40.0471 127.887 36.1825 128.061C27.6618 128.684 19.1842 129.8 10.7923 131.402C4.551 132.426 0.647766 136.212 0.145371 142.703C-0.376346 149.541 0.145372 155.973 7.87451 159.083C13.3429 161.227 18.5601 163.932 23.8932 166.366C36.6656 172.161 49.013 179.231 62.3458 183.48C78.6156 188.696 95.6197 191.632 112.334 195.457C121.841 197.62 131.309 200.054 140.835 202.082C121.512 204.748 102.189 208.07 83.0211 211.567C56.3942 216.396 32.0475 226.672 8.91802 240.156C5.05345 242.396 -0.0285343 245.699 1.59459 251.359C3.21771 257.019 9.05321 256.498 13.6714 255.821C20.0101 254.817 26.2871 253.456 32.4725 251.746C68.6642 242.087 105.436 236.292 142.478 232.004C139.328 235.558 136.236 239.17 133.203 242.802C128.275 248.597 123.541 254.624 118.575 260.515C117.764 261.501 116.643 262.273 115.967 263.316C111.909 269.247 107.928 275.235 103.851 281.165C100.161 286.554 96.4504 291.924 92.6052 297.179C91.8516 298.202 89.9386 298.473 89.4169 299.516C86.673 304.867 84.2383 310.391 81.6877 315.819C79.7554 320.03 77.147 324.048 75.5432 328.414C73.5661 333.435 72.1659 338.665 71.3694 344.002C70.5192 350.995 75.8909 354.163 81.0308 357.524C82.7813 358.746 84.8875 359.353 87.0199 359.252C89.1524 359.151 91.191 358.346 92.8177 356.964C99.6266 351.972 106.036 346.456 111.986 340.467C118.15 334.344 122.71 326.733 128.469 320.32C135.038 313.018 138.13 303.997 143.328 296.039C146.091 291.77 148.564 287.288 151.366 283.039C154.96 277.611 158.902 272.415 162.399 266.929C165.704 261.752 168.641 256.362 171.694 251.031C173.935 247.168 176.041 243.111 178.321 239.209C179.991 236.168 181.816 233.215 183.79 230.362C183.79 231.424 183.635 232.487 183.539 233.53C180.737 267.759 177.413 301.95 175.249 336.237C174.36 350.319 175.52 364.613 176.66 378.734C177.268 384.001 179.167 389.036 182.186 393.395C186.05 398.997 194.591 399.403 199.576 395.076C204.272 391.058 202.958 387.137 199.364 382.887C192.369 374.677 194.842 364.787 196.021 355.689C200.176 323.353 204.639 291.055 209.122 258.758C209.277 259.008 209.465 259.235 209.683 259.434C212.175 261.636 211.75 267.354 217.412 265.808C218.842 269.672 222.184 271.468 225.74 272.994C225.908 273.08 226.057 273.198 226.179 273.342C226.3 273.486 226.392 273.653 226.448 273.833C226.503 274.013 226.522 274.203 226.504 274.391C226.485 274.578 226.429 274.76 226.339 274.926C224.407 278.132 227.401 278.963 228.793 280.914C231.691 284.932 236.522 284.777 240.058 287.308C239.952 287.746 239.952 288.203 240.058 288.641C238.763 289.375 236.715 290.205 238.628 291.866C241.14 294.03 243.208 296.734 246.705 297.855C251.71 299.497 254.067 304.229 257.043 308.112C258.009 309.367 257.816 312.188 256.849 312.4C251.729 313.559 255.42 316.07 256.366 316.882C259.052 319.2 262.163 320.842 263.052 324.859C263.361 326.27 265.661 326.27 267.168 326.637C268.675 327.004 270.318 325.98 271.709 327.12C272.675 327.931 273.97 328.916 271.941 329.882C270.955 330.345 269.081 329.882 270.627 331.813C272.172 333.745 273.1 336.585 276.559 335.831C277.854 335.542 279.863 335.831 279.786 337.145C279.496 341.704 285.331 340.178 285.119 341.433C284.288 346.456 288.114 344.968 290.201 346.301C292.288 347.634 293.717 350.686 296.5 351.748C296.867 352.927 297.795 353.39 298.741 352.83C299.688 352.27 299.07 351.748 298.258 351.555C298.239 351.069 298.278 350.583 298.374 350.106C301.157 349.256 301.949 351.285 302.819 353.178C301.872 354.433 299.263 353.796 299.36 356.017C299.36 356.906 300.596 357.37 301.621 357.408C303.07 357.659 305.157 358.954 305.794 357.408C306.432 355.863 304.268 356.211 303.224 355.94C303.843 355.187 304.983 354.685 304.654 353.39C304.77 348.947 302.2 347.885 298.374 348.349C297.91 343.268 292.133 342.708 290.297 338.806C291.553 337.454 291.785 335.291 293.66 334.421C298.915 338.671 303.669 344.08 311.591 342.824C309.659 341.337 308.21 339.617 309.157 337.029C309.562 335.909 310.818 334.672 308.905 333.919C305.215 332.49 307.224 328.955 306.046 326.617C306.335 323.372 306.567 320.165 302.992 318.369C303.068 317.863 302.994 317.346 302.78 316.882C302.78 313.521 300.693 313.579 298.297 314.061C298.421 313.429 298.321 312.772 298.014 312.205C297.708 311.638 297.213 311.195 296.616 310.951C296.246 310.634 295.77 310.469 295.283 310.488C295.369 310.277 295.37 310.041 295.288 309.829C295.205 309.617 295.044 309.445 294.838 309.348V309.348C294.838 308.035 297.408 305.89 293.795 305.775C291.862 305.775 292.172 303.147 290.336 303.341C286.31 299.382 282.68 295.041 279.496 290.379C276.791 286.516 274.414 284.874 270.086 285.473C270.086 284.468 269.912 283.541 269.815 282.44C269.717 281.697 269.369 281.008 268.829 280.489C268.288 279.969 267.586 279.649 266.839 279.581L263.69 277.456L265.622 276.104C266.492 276.104 268.095 276.78 268.076 275.66C268.076 273.941 266.376 275.003 265.39 274.945C265.39 274.385 265.39 273.844 265.39 273.303C267.323 269.536 267.323 269.44 262.337 267.199L259.458 266.388L259.033 263.741L255.961 260.844L256.212 260.689C256.353 260.246 256.576 259.833 256.869 259.472L256.212 260.689C256.428 260.669 256.637 260.596 256.818 260.476C257 260.357 257.15 260.195 257.255 260.005C257.359 259.814 257.416 259.601 257.42 259.384C257.423 259.166 257.373 258.951 257.275 258.758V258.758L254.589 255.821C254.434 255.339 254.26 254.856 254.086 254.373C254.261 253.939 254.261 253.454 254.086 253.02C254.171 252.622 254.108 252.207 253.909 251.851C253.71 251.496 253.388 251.225 253.004 251.089C251.072 249.157 250.183 245.835 246.473 246.511L246.183 244.965C245.777 243.183 244.911 241.538 243.671 240.194V240.194C243.13 239.557 242.589 238.919 242.029 238.262C241.953 236.713 241.353 235.236 240.329 234.071L239.961 233.781H240.232V234.09C238.997 230.62 237.511 227.243 235.787 223.987C246.183 226.769 255.4 228.971 255.304 228.739C303.282 242.261 342.45 269.594 385.636 289.394C386.254 285.425 385.855 281.364 384.477 277.591C376.211 259.198 363.766 242.986 348.131 230.246V230.246ZM216.484 102.215L219.788 103.741L217.064 105.672C216.639 105.402 216.136 105.228 216.136 105.074C216.203 104.115 216.319 103.161 216.484 102.215V102.215ZM224.832 44.5735L220.04 50.3685L218.107 43.2407L224.832 44.5735ZM123.87 294.107C121.457 297.768 118.756 301.23 115.793 304.461C115.28 304.876 114.678 305.167 114.034 305.311V305.543L113.803 305.678C111.661 311.987 108.036 317.691 103.233 322.31C103.233 320.378 102.943 319.335 103.233 318.64C105.783 313.559 108.469 308.537 113.745 305.678C113.753 305.582 113.753 305.485 113.745 305.388H113.976C114.874 302.531 115.992 299.747 117.319 297.063C119.696 292.832 122.556 288.853 125.203 284.777L126.44 285.183C125.667 288.196 125.396 291.48 123.87 294.107V294.107ZM208.89 138.337L211.267 141.389C215.943 138.781 216.059 138.743 218.474 143.456L216.542 145.021C214.301 145.137 212.368 141.254 210.088 143.437L208.156 138.82C208.364 138.644 208.583 138.483 208.813 138.337H208.89Z" fill="black"/>
<path d="M326.375 348.927C326.375 348 325.911 347.42 324.945 347.382C324.559 346.686 324.172 346.319 323.824 347.382C322.626 348.637 321.448 349.931 319.96 347.633L320.192 345.701C320.192 344.098 325.138 344.31 321.776 341.451L318.762 339.384C317.506 337.897 315.902 337.047 314.26 338.38C312.617 339.713 313.97 341.142 314.26 342.533C313.815 343.924 313.429 345.295 315.4 345.875C315.468 346.349 315.468 346.83 315.4 347.304V347.304C315.142 347.344 314.893 347.429 314.665 347.555C314.574 347.629 314.498 347.719 314.441 347.822C314.385 347.925 314.349 348.038 314.337 348.154C314.665 350.53 317.641 350.337 318.433 352.423C318.936 353.756 320.366 356.074 321.486 354.451C322.994 352.307 328.075 353.389 326.375 348.927Z" fill="black"/>
<path d="M328.658 358.179C328.578 357.658 328.468 357.142 328.329 356.634C327.634 354.489 325.952 355.05 324.465 355.378C324.189 355.372 323.917 355.445 323.682 355.59C323.447 355.735 323.259 355.944 323.141 356.193C323.022 356.442 322.978 356.721 323.014 356.994C323.05 357.268 323.165 357.525 323.344 357.735C323.904 358.913 325.025 358.662 326.049 358.681C326.049 362.409 328.928 361.656 332.58 362.544C330.416 360.497 330.32 358.778 328.658 358.179Z" fill="black"/>
<path d="M250.28 311.551C250.318 311.672 250.386 311.781 250.477 311.869C250.569 311.957 250.681 312.02 250.803 312.054C252.737 312.247 252.447 310.777 252.737 309.675C251.538 309.888 250.068 309.655 250.28 311.551Z" fill="black"/>
<path d="M224.371 65.2612C223.791 65.8217 222.882 66.2855 222.709 66.9619C222.338 68.7428 222.067 70.5428 221.896 72.3538C222.743 72.2338 223.582 72.0661 224.41 71.8513C225.241 71.5421 226.034 71.0976 227.078 70.6145C226.869 69.4787 226.551 68.3656 226.13 67.2904C225.624 66.5482 225.034 65.8672 224.371 65.2612V65.2612Z" fill="black"/>
<path d="M217.623 123.291C217.778 124.664 217.932 126.017 218.165 127.99L221.84 125.283L218.803 122.865L217.623 123.291Z" fill="black"/>
</svg>
