<?xml version="1.0" encoding="UTF-8" standalone="no"?>
<!DOCTYPE svg PUBLIC "-//W3C//DTD SVG 1.1//EN" "http://www.w3.org/Graphics/SVG/1.1/DTD/svg11.dtd">
<svg width="100%" height="100%" viewBox="0 0 1141 891" version="1.1" xmlns="http://www.w3.org/2000/svg" xmlns:xlink="http://www.w3.org/1999/xlink" xml:space="preserve" xmlns:serif="http://www.serif.com/" style="fill-rule:evenodd;clip-rule:evenodd;stroke-linecap:round;stroke-linejoin:round;">
    <g transform="matrix(1,0,0,1,-1535.19,-7272.4)">
        <g transform="matrix(1,0,0,1,-31.7362,7.98032)">
            <g transform="matrix(3.125,0,0,-3.125,0,15423.4)">
                <path d="M865.443,2458.35C864.799,2460.17 863.024,2460.86 861.729,2462.01C861.449,2462.26 860.814,2462.36 860.459,2462.22C857.212,2461 853.776,2461.69 850.457,2461.19C846.357,2460.56 842.201,2460.35 838.077,2459.95C831.957,2459.36 825.793,2458.95 819.623,2459.82C817.484,2460.13 815.28,2460.1 813.114,2460.22C808.883,2460.47 804.721,2461.19 800.519,2461.54C797.331,2461.81 794.153,2462.15 790.968,2462.43C785.636,2462.9 780.44,2464.13 775.366,2465.59C764.038,2468.85 753.261,2473.61 742.561,2478.51C734.206,2482.33 725.838,2486.15 717.604,2490.22C707.397,2495.27 697.09,2500.13 687.166,2505.74C685.379,2506.75 683.437,2507.5 681.351,2508.04C676.242,2509.36 671.909,2512.41 667.436,2515.1C663.906,2517.21 660.469,2519.55 656.565,2520.9C650.414,2523.03 644.624,2521.49 638.983,2518.79C632.589,2515.72 626.681,2511.74 620.106,2509.02C614.932,2506.88 609.547,2505.39 604.267,2503.57C597.799,2501.34 591.585,2498.44 585.381,2495.57C580.976,2493.53 576.447,2491.8 571.877,2490.26C565.489,2488.12 562.27,2483.65 560.813,2477.41C559.403,2471.4 556.922,2465.76 554.544,2460.08C553.252,2457 551.994,2453.91 550.876,2450.76C550.394,2449.4 549.871,2448.11 549.127,2446.86C548.498,2445.81 547.443,2444.86 547.801,2443.41C547.904,2443 547.599,2442.8 547.371,2442.54C542.528,2436.93 538.96,2430.48 535.162,2424.17C533.796,2421.89 531.85,2419.97 530.225,2417.85C529.157,2416.45 528.202,2414.96 527.168,2413.53C526.882,2413.14 526.838,2412.8 527.177,2412.44" style="fill:none;fill-rule:nonzero;stroke:black;stroke-width:2px;"/>
            </g>
            <g transform="matrix(3.125,0,0,-3.125,0,16184.9)">
                <path d="M555.829,2575C551.779,2575 548.333,2576.42 545.497,2579.25C542.665,2582.08 541.247,2585.52 541.247,2589.57C541.247,2593.62 542.665,2597.06 545.497,2599.9C548.333,2602.75 551.779,2604.17 555.829,2604.17L583.829,2604.17C587.88,2604.17 591.322,2602.75 594.157,2599.92C596.993,2597.08 598.411,2593.64 598.411,2589.6C598.411,2585.55 596.993,2582.1 594.157,2579.26C591.322,2576.42 587.88,2575 583.829,2575L555.829,2575ZM555.829,2577.33L583.829,2577.33C587.232,2577.33 590.126,2578.52 592.505,2580.91C594.888,2583.29 596.079,2586.18 596.079,2589.58C596.079,2592.99 594.888,2595.88 592.505,2598.26C590.126,2600.64 587.232,2601.83 583.829,2601.83L555.829,2601.83C552.427,2601.83 549.532,2600.64 547.154,2598.26C544.771,2595.88 543.579,2592.99 543.579,2589.58C543.579,2586.18 544.771,2583.29 547.154,2580.91C549.532,2578.52 552.427,2577.33 555.829,2577.33ZM588.99,2584.42C590.411,2585.83 591.122,2587.55 591.122,2589.58C591.122,2591.6 590.411,2593.32 588.997,2594.74C587.579,2596.16 585.861,2596.88 583.837,2596.88C581.814,2596.88 580.091,2596.17 578.669,2594.75C577.247,2593.33 576.536,2591.61 576.536,2589.59C576.536,2587.57 577.247,2585.84 578.661,2584.42C580.079,2583 581.798,2582.29 583.822,2582.29C585.845,2582.29 587.568,2583 588.99,2584.42ZM569.829,2589.58L569.83,2589.58L569.83,2589.58L569.829,2589.58L569.829,2589.58Z" style="fill-rule:nonzero;"/>
            </g>
            <g transform="matrix(3.125,0,0,-3.125,0,16046.2)">
                <path d="M865.334,2558.27C859.653,2560 853.969,2561.72 848.29,2563.47C841.355,2565.6 834.5,2568.01 827.443,2569.72C821.385,2571.19 815.29,2572.5 809.207,2573.86C804.064,2575.01 798.856,2575.46 793.58,2575.69C789.826,2575.85 786.081,2576.52 782.286,2576.47C779.182,2576.43 776.203,2575.54 773.162,2575.23C768.34,2574.73 763.499,2574.31 758.609,2575.08C756.265,2575.45 753.902,2575.57 751.673,2576.46" style="fill:none;fill-rule:nonzero;stroke:black;stroke-width:2px;"/>
            </g>
            <g transform="matrix(3.125,0,0,-3.125,0,15800.4)">
                <path d="M573.421,2538.74C571.5,2540.49 569.013,2540.43 566.688,2540.64C563.191,2540.97 559.674,2540.67 556.281,2539.78C553.361,2539.02 552.044,2536.47 551.104,2533.95C549.015,2528.37 549.694,2523.05 553.224,2518.16C555.02,2515.67 557.809,2515.53 560.399,2515.41C564.673,2515.21 568.979,2515.17 573.209,2516.2C576.428,2516.98 577.527,2518.22 577.549,2521.41C577.58,2526.71 576.836,2531.87 574.738,2536.79C574.436,2537.5 574.274,2538.25 573.421,2538.52" style="fill:none;fill-rule:nonzero;stroke:black;stroke-width:2px;"/>
            </g>
            <g transform="matrix(3.125,0,0,-3.125,0,15985.9)">
                <path d="M766.87,2561.71C762.964,2560.77 758.973,2560.08 755.172,2558.82C751.67,2557.67 748.093,2557.28 744.51,2556.72C741.244,2556.2 738.01,2555.21 734.735,2555.08C729.387,2554.86 724.101,2553.43 718.657,2554.48C716.135,2554.97 713.461,2554.7 710.849,2554.93C707.21,2555.25 703.577,2555.67 700.01,2556.35C693.071,2557.68 686.269,2559.6 679.586,2561.91C679.334,2562 678.941,2562.07 678.723,2561.71" style="fill:none;fill-rule:nonzero;stroke:black;stroke-width:2px;"/>
            </g>
            <g transform="matrix(3.125,0,0,-3.125,0,15871.8)">
                <path d="M513.499,2551.39C513.424,2551.25 513.39,2551.03 513.275,2550.97C509.589,2548.92 510.019,2546.45 511.771,2543.39C514.414,2538.78 518.514,2535.7 523.065,2533.23C528.083,2530.5 533.27,2528.21 539.113,2527.73C540.934,2527.58 542.674,2527.78 544.308,2528.28C546.721,2529.02 546.995,2531.26 547.15,2533.42" style="fill:none;fill-rule:nonzero;stroke:black;stroke-width:2px;"/>
            </g>
            <g transform="matrix(3.125,0,0,-3.125,0,16186.5)">
                <path d="M845.903,2608.58C845.137,2605.64 846.482,2603.03 847.232,2600.35C848.904,2594.39 852.122,2589.08 854.616,2583.47C854.98,2582.65 855.631,2581.86 856.344,2581.31C859.024,2579.24 860.864,2576.51 862.601,2573.7C863.298,2572.57 864.039,2571.57 865.334,2571.11" style="fill:none;fill-rule:nonzero;stroke:black;stroke-width:2px;"/>
            </g>
            <g transform="matrix(3.125,0,0,-3.125,0,15868.6)">
                <path d="M528.043,2548.64C527.682,2548.63 527.439,2548.38 526.938,2548.59C524.295,2549.71 521.468,2549.33 518.71,2549.26C515.719,2549.19 513.275,2545.55 514.389,2542.8C515.915,2539.04 518.962,2536.55 522.203,2534.38C526.798,2531.3 531.937,2529.45 537.385,2528.53C539.022,2528.25 540.694,2528.5 542.148,2529.38C544.361,2530.72 543.67,2533.03 543.832,2535C543.882,2535.59 543.636,2536.28 543.676,2536.95" style="fill:none;fill-rule:nonzero;stroke:black;stroke-width:2px;"/>
            </g>
            <g transform="matrix(3.125,0,0,-3.125,0,15890.6)">
                <path d="M548.237,2548.74C552.193,2544.74 557.071,2542.76 562.553,2541.74C566.815,2540.95 571.073,2540.72 575.373,2540.45C580.799,2540.1 586.231,2539.9 591.66,2539.65C594.636,2539.51 597.562,2540.21 600.563,2540.12C605.802,2539.98 610.998,2540.68 616.196,2541.34C621.887,2542.06 627.655,2542.16 633.336,2541.71C640.509,2541.14 647.628,2539.97 654.632,2538.16C661.624,2536.34 668.619,2536.24 675.473,2538.97C675.785,2539.1 676.189,2538.99 676.551,2538.99" style="fill:none;fill-rule:nonzero;stroke:black;stroke-width:2px;"/>
            </g>
            <g transform="matrix(3.125,0,0,-3.125,0,15627.7)">
                <path d="M576.677,2500.58C577.39,2499.24 576.166,2498.02 576.434,2496.68C576.587,2495.91 576.462,2495.09 576.462,2494.37C577.885,2493.58 579.052,2494.41 580.139,2494.6C589.437,2496.19 598.813,2496.01 608.155,2495.71C611.903,2495.59 615.692,2495.44 619.459,2495.03C624.113,2494.53 628.717,2495.8 633.339,2496.3C637.85,2496.79 642.299,2497.78 646.582,2499.31C652.836,2501.53 659.034,2503.91 665.263,2506.21C666.402,2506.62 667.576,2506.94 668.734,2507.3" style="fill:none;fill-rule:nonzero;stroke:black;stroke-width:2px;"/>
            </g>
            <g transform="matrix(3.125,0,0,-3.125,0,15540.9)">
                <path d="M619.017,2507.66C612.33,2501.41 603.959,2498.72 595.333,2496.69C593.72,2496.31 591.822,2496.24 590.097,2497.11C589.3,2495.94 588.889,2494.53 587.339,2493.95C586.648,2493.7 586.122,2493.01 586.336,2491.83C586.486,2491 585.555,2489.98 585.15,2489.03C582.825,2483.57 580.279,2478.21 576.658,2473.46C574.89,2471.14 572.92,2468.96 571.027,2466.74C570.697,2466.34 570.208,2466.06 570.383,2465.43" style="fill:none;fill-rule:nonzero;stroke:black;stroke-width:2px;"/>
            </g>
            <g transform="matrix(3.125,0,0,-3.125,0,15979.2)">
                <path d="M624.01,2569.74C625.653,2566.16 627.07,2562.55 626.883,2558.48C626.821,2557.14 626.254,2556.02 626.245,2554.32C628.346,2552.93 631.076,2551.87 633.99,2551.09C641.119,2549.2 648.089,2546.81 655.074,2544.45C657.593,2543.61 660.31,2544.04 662.386,2545.76C663.713,2546.87 664.114,2548.82 664.562,2550.48C665.87,2555.28 664.093,2559.48 661.555,2563.45C661.225,2563.97 660.584,2564.28 660.485,2564.97" style="fill:none;fill-rule:nonzero;stroke:black;stroke-width:2px;"/>
            </g>
            <g transform="matrix(3.125,0,0,-3.125,0,15869.2)">
                <path d="M515.451,2547.08C515.809,2543.86 517.727,2541.57 520.014,2539.51C524.273,2535.66 529.263,2533.12 534.789,2531.76C537.699,2531.05 540.719,2531.19 543.458,2532.79" style="fill:none;fill-rule:nonzero;stroke:black;stroke-width:2px;"/>
            </g>
            <g transform="matrix(3.125,0,0,-3.125,0,16014.6)">
                <path d="M657.228,2555.94C654.962,2558.41 653.424,2561.2 653.063,2564.6C653.004,2565.15 652.848,2565.74 652.052,2566.18C648.963,2567.88 645.729,2568.73 642.252,2568.24C640.758,2568.03 639.139,2567.47 638.806,2565.68C638.479,2563.91 639.484,2562.68 640.944,2561.79C641.305,2561.57 641.67,2561.36 642.031,2561.14" style="fill:none;fill-rule:nonzero;stroke:black;stroke-width:2px;"/>
            </g>
            <g transform="matrix(3.11846,-0.202076,0.202076,3.11846,-496.002,147.092)">
                <path d="M647.762,2450.65C648.123,2455.57 648.592,2460.43 647.558,2465.41C646.461,2470.69 647.025,2476.13 647.762,2481.46C648.235,2484.9 648.34,2488.19 647.634,2491.68C647.074,2494.44 647.374,2497.46 647.805,2500.35" style="fill:none;fill-rule:nonzero;stroke:black;stroke-width:2px;"/>
            </g>
            <g transform="matrix(3.125,0,0,-3.125,0,15783.9)">
                <path d="M576.244,2544.04C572.988,2543.32 569.707,2542.69 566.479,2541.86C559.677,2540.1 553.429,2537.29 549.379,2531.23C547.913,2529.03 546.599,2526.63 546.886,2523.68C547.129,2521.17 546.699,2518.61 548.19,2516.29C548.479,2515.85 548.411,2514.96 547.586,2514.58C543.418,2512.66 540.015,2509.66 536.513,2506.79" style="fill:none;fill-rule:nonzero;stroke:black;stroke-width:2px;"/>
            </g>
            <g transform="matrix(3.125,0,0,-3.125,0,15905)">
                <path d="M542.808,2549.89C544.333,2548.61 545.441,2547.02 546.55,2545.38C547.876,2543.41 550.344,2543.01 552.386,2542.15C555.132,2540.99 558.068,2540.24 561.05,2539.97C563.332,2539.76 565.825,2539.71 567.276,2541.92C567.88,2542.83 568.101,2544.09 568.646,2545.12" style="fill:none;fill-rule:nonzero;stroke:black;stroke-width:2px;"/>
            </g>
            <g transform="matrix(3.125,0,0,-3.125,0,15979.6)">
                <path d="M615.542,2549.29C614.689,2551.93 613.491,2554.46 613.348,2557.3C613.261,2558.99 611.62,2559.52 610.518,2560.29C607.913,2562.11 605.351,2564.18 601.864,2564.02" style="fill:none;fill-rule:nonzero;stroke:black;stroke-width:2px;"/>
            </g>
            <g transform="matrix(3.125,0,0,-3.125,0,15909.2)">
                <path d="M547.586,2548C551.919,2545.54 556.58,2544.01 561.486,2543.26C563.5,2542.96 565.508,2543.3 567.341,2544.32" style="fill:none;fill-rule:nonzero;stroke:black;stroke-width:2px;"/>
            </g>
            <g transform="matrix(3.125,0,0,-3.125,0,15887)">
                <path d="M545.195,2545.66C549.077,2542.44 553.573,2540.45 558.454,2539.44C560.418,2539.03 562.6,2538.19 564.521,2539.81" style="fill:none;fill-rule:nonzero;stroke:black;stroke-width:2px;"/>
            </g>
            <g transform="matrix(3.125,0,0,-3.125,0,15918.5)">
                <path d="M692.184,2550.54C686.904,2546.78 681.332,2543.8 674.599,2543.8C674.091,2543.81 673.584,2543.53 673.076,2543.39" style="fill:none;fill-rule:nonzero;stroke:black;stroke-width:2px;"/>
            </g>
            <g transform="matrix(3.125,0,0,-3.125,0,15860)">
                <path d="M531.953,2542.85C529.578,2542.78 527.62,2544.39 525.222,2544.44C524.08,2544.47 522.894,2544.62 521.749,2544.55C519.563,2544.43 518.436,2542.28 519.591,2540.48C520.824,2538.56 522.405,2536.84 524.382,2535.76C527.442,2534.08 530.253,2531.89 533.892,2531.29C535.193,2531.07 536.529,2530.92 537.821,2530.79C539.897,2530.58 540.218,2531.09 540.42,2533.54" style="fill:none;fill-rule:nonzero;stroke:black;stroke-width:2px;"/>
            </g>
            <g transform="matrix(3.125,0,0,-3.125,0,16167.6)">
                <path d="M865.443,2594.73C865.82,2592.26 864.254,2590.35 863.451,2588.25C862.458,2585.65 861.262,2583.12 859.578,2580.87C858.106,2578.91 858.093,2578.91 856.322,2579.57" style="fill:none;fill-rule:nonzero;stroke:black;stroke-width:2px;"/>
            </g>
            <g transform="matrix(3.125,0,0,-3.125,0,15455)">
                <path d="M619.449,2481.45C619.057,2478.37 619.935,2475.57 621.871,2473.25C625.52,2468.88 630.472,2466.77 635.945,2465.62C638.476,2465.09 641.168,2465.4 643.55,2464.13" style="fill:none;fill-rule:nonzero;stroke:black;stroke-width:2px;"/>
            </g>
            <g transform="matrix(3.125,0,0,-3.125,0,15597.7)">
                <path d="M622.491,2503.76C625.94,2499.6 628.732,2494.92 632.471,2490.98C633.526,2489.86 634.504,2488.67 635.515,2487.52" style="fill:none;fill-rule:nonzero;stroke:black;stroke-width:2px;"/>
            </g>
            <g transform="matrix(3.125,0,0,-3.125,0,15358.9)">
                <path d="M623.574,2465C623.555,2464.18 623.471,2463.42 623.182,2462.6C621.719,2458.48 621.547,2454.12 620.968,2449.84" style="fill:none;fill-rule:nonzero;stroke:black;stroke-width:2px;"/>
            </g>
            <g transform="matrix(2.18541,2.23374,-2.23374,2.18541,6145.97,963.539)">
                <path d="M616.47,2477.01C616.278,2478.67 616.355,2480.28 616.794,2481.92C617.718,2485.39 617.229,2488.98 616.47,2492.31C615.78,2495.35 616.56,2498.08 616.759,2500.93C616.897,2502.92 617.27,2504.89 617.22,2506.9" style="fill:none;fill-rule:nonzero;stroke:black;stroke-width:2px;"/>
            </g>
            <g transform="matrix(3.125,0,0,-3.125,0,15972.5)">
                <path d="M592.528,2565.42C594.829,2562.74 597.453,2560.52 600.753,2559.08C601.923,2558.57 602.96,2557.53 603.788,2556.52C606.272,2553.47 609.292,2550.99 612.333,2548.59C614.31,2547.03 616.47,2545.77 619.468,2546.25C622.662,2546.76 624.1,2548.78 625.532,2551.12C625.666,2551.35 625.818,2551.56 625.965,2551.78" style="fill:none;fill-rule:nonzero;stroke:black;stroke-width:2px;"/>
            </g>
            <g transform="matrix(3.125,0,0,-3.125,0,16035.6)">
                <path d="M665.478,2570.69C666.648,2570.89 667.663,2570.34 668.737,2570.05C670.642,2569.53 672.183,2568.98 672.084,2566.36C672.002,2564.2 673.581,2562.4 674.599,2560.51" style="fill:none;fill-rule:nonzero;stroke:black;stroke-width:2px;"/>
            </g>
            <g transform="matrix(3.125,0,0,-3.125,0,15570.7)">
                <path d="M664.394,2498.56C660.425,2494.93 657.807,2490.25 654.632,2486C654.203,2485.43 653.701,2484.86 653.754,2484.05" style="fill:none;fill-rule:nonzero;stroke:black;stroke-width:2px;"/>
            </g>
            <g transform="matrix(3.125,0,0,-3.125,0,15442.1)">
                <path d="M865.443,2473.88C863.251,2473.63 861.022,2473.58 858.931,2472.79C856.12,2471.72 853.424,2470.49 851.979,2467.6" style="fill:none;fill-rule:nonzero;stroke:black;stroke-width:2px;"/>
            </g>
            <g transform="matrix(3.125,0,0,-3.125,0,15580.2)">
                <path d="M626.179,2502.89C630.27,2496.68 634.535,2490.61 639.867,2485.36C640.624,2484.62 641.072,2483.74 641.38,2482.76" style="fill:none;fill-rule:nonzero;stroke:black;stroke-width:2px;"/>
            </g>
            <g transform="matrix(3.125,0,0,-3.125,0,15784.8)">
                <path d="M548.455,2531.13C546.603,2531.91 545.485,2530.7 544.33,2529.61C540.635,2526.15 536.946,2522.68 533.254,2519.22" style="fill:none;fill-rule:nonzero;stroke:black;stroke-width:2px;"/>
            </g>
            <g transform="matrix(2.92182,1.10842,-1.10842,2.92182,2979.96,-223.8)">
                <path d="M677.815,2556.16C679.226,2558.33 680.287,2560.62 680.506,2563.25C680.726,2565.87 679.613,2568.04 677.815,2569.73C677.219,2570.29 675.866,2570.31 674.881,2570.42C671.403,2570.8 667.913,2571.24 664.395,2570.98" style="fill:none;fill-rule:nonzero;stroke:black;stroke-width:2px;"/>
            </g>
            <g transform="matrix(3.125,0,0,-3.125,0,15767.6)">
                <path d="M534.123,2532.13C534.197,2531.91 534.39,2531.64 534.322,2531.49C532.656,2527.69 530.736,2524.09 526.723,2522.05C526.919,2521.01 527.056,2519.85 527.33,2518.69C527.769,2516.85 528.563,2515.62 530.412,2514.97C531.05,2514.74 532.006,2514.49 532.171,2513.51" style="fill:none;fill-rule:nonzero;stroke:black;stroke-width:2px;"/>
            </g>
            <g transform="matrix(3.125,0,0,-3.125,0,15587.6)">
                <path d="M598.39,2499.65C600.557,2498.46 602.079,2496.55 603.816,2494.88C605.755,2493.02 606.368,2490.89 605.12,2488.39" style="fill:none;fill-rule:nonzero;stroke:black;stroke-width:2px;"/>
            </g>
            <g transform="matrix(3.125,0,0,-3.125,0,15890.9)">
                <path d="M522.835,2557.08C520.186,2558.33 517.337,2558.05 514.592,2557.85C513.502,2557.76 512.472,2558.13 511.308,2557.8C507.563,2556.74 505.872,2554.29 505.682,2550.58C505.608,2549.14 505.704,2547.71 505.53,2546.24C505.3,2544.32 506.451,2542.73 507.637,2541.27C511.255,2536.85 515.796,2533.65 520.864,2531.06C524.363,2529.28 528.018,2527.96 531.757,2526.76C532.75,2527.7 532.429,2529.2 533.232,2530.24C533.584,2530.7 533.263,2531.15 532.834,2531.54C532.174,2532.14 531.53,2531.58 531.349,2531.28C530.652,2530.12 530.144,2528.86 529.565,2527.63" style="fill:none;fill-rule:nonzero;stroke:black;stroke-width:2px;"/>
            </g>
            <g transform="matrix(3.125,0,0,-3.125,0,15957)">
                <path d="M547.368,2559.8C549.787,2556.6 549.074,2554.02 546.067,2551.14C545.183,2550.29 544.293,2549.44 543.468,2548.54C541.531,2546.42 539.125,2546.89 536.728,2547.24" style="fill:none;fill-rule:nonzero;stroke:black;stroke-width:2px;"/>
            </g>
            <g transform="matrix(3.125,0,0,-3.125,0,15517.2)">
                <path d="M626.615,2488.6C626.553,2486.83 627.571,2485.4 628.162,2483.85C628.919,2481.86 629.896,2479.95 630.715,2477.98C630.83,2477.7 630.597,2477.27 630.522,2476.91" style="fill:none;fill-rule:nonzero;stroke:black;stroke-width:2px;"/>
            </g>
            <g transform="matrix(2.9561,1.01345,-1.01345,2.9561,2696.89,-247.555)">
                <path d="M665.497,2549.56C667.945,2550.6 670.394,2549.9 672.842,2549.56" style="fill:none;fill-rule:nonzero;stroke:black;stroke-width:2px;"/>
            </g>
            <g transform="matrix(3.125,0,0,-3.125,0,15854.9)">
                <path d="M531.735,2540.14C530.505,2538.99 529.313,2537.79 528.033,2536.69C527.006,2535.81 526.446,2534.75 526.309,2533.43" style="fill:none;fill-rule:nonzero;stroke:black;stroke-width:2px;"/>
            </g>
            <g transform="matrix(3.125,0,0,-3.125,0,15597.3)">
                <path d="M612.501,2496.24C611.542,2496.95 611.004,2495.8 610.612,2495.51C609.245,2494.47 607.819,2494.17 606.207,2494.29" style="fill:none;fill-rule:nonzero;stroke:black;stroke-width:2px;"/>
            </g>
            <g transform="matrix(1.23378,2.87114,-2.87114,1.23378,9037.63,2443.82)">
                <path d="M849.114,2586.27C851.314,2586.27 853.513,2586.27 855.713,2586.27" style="fill:none;fill-rule:nonzero;stroke:black;stroke-width:2px;"/>
            </g>
            <g transform="matrix(3.125,0,0,-3.125,0,15967.3)">
                <path d="M673.076,2558.57C673.584,2558.28 674.057,2557.85 674.602,2557.72C677.659,2556.98 679.296,2554.85 680.211,2552.06C680.392,2551.51 680.619,2551.23 681.102,2550.97" style="fill:none;fill-rule:nonzero;stroke:black;stroke-width:2px;"/>
            </g>
            <g transform="matrix(3.125,0,0,-3.125,0,15769)">
                <path d="M545.631,2525.42C546.219,2524.63 545.472,2523.97 545.429,2523.25C545.37,2522.24 545.563,2521.28 546.5,2520.65" style="fill:none;fill-rule:nonzero;stroke:black;stroke-width:2px;"/>
            </g>
            <g transform="matrix(1.93926,2.45049,-2.45049,1.93926,6766.02,1506.62)">
                <path d="M581.761,2478.32C583.511,2478.44 585.26,2478.69 587.008,2478.32" style="fill:none;fill-rule:nonzero;stroke:black;stroke-width:2px;"/>
            </g>
            <g transform="matrix(-3.10371,0.364159,-0.364159,-3.10371,4193.37,15612.4)">
                <path d="M523.102,2536.65C524.342,2537.92 525.58,2537.6 526.819,2536.65" style="fill:none;fill-rule:nonzero;stroke:black;stroke-width:2px;"/>
            </g>
            <g transform="matrix(3.125,0,0,-3.125,0,15926.6)">
                <path d="M513.714,2552.7C515.498,2550.51 518.405,2549.97 520.453,2547.95C520.226,2546.57 519.196,2545.3 518.707,2543.82" style="fill:none;fill-rule:nonzero;stroke:black;stroke-width:2px;"/>
            </g>
            <g transform="matrix(-1.66028,2.64747,-2.64747,-1.66028,9178.99,10822)">
                <path d="M508.631,2544.04C509.995,2544.61 511.357,2543.83 512.72,2544.04" style="fill:none;fill-rule:nonzero;stroke:black;stroke-width:2px;"/>
            </g>
            <g transform="matrix(3.125,0,0,-3.125,0,15949)">
                <path d="M524.787,2552.26C524.248,2552.68 524.345,2553.64 523.271,2553.79C521.584,2553.17 521.873,2551.1 520.88,2549.88" style="fill:none;fill-rule:nonzero;stroke:black;stroke-width:2px;"/>
            </g>
            <g transform="matrix(3.125,0,0,-3.125,0,15979.4)">
                <path d="M534.123,2554.85C534.278,2556.22 535.284,2557.24 535.698,2558.51C535.763,2558.7 536.417,2559.27 536.934,2558.95C537.363,2558.68 537.799,2558.28 537.59,2557.67C537.251,2556.65 536.875,2555.64 536.51,2554.63C536.361,2554.22 535.993,2554.13 535.645,2554.21C534.552,2554.47 533.472,2554.78 532.386,2555.07" style="fill:none;fill-rule:nonzero;stroke:black;stroke-width:2px;"/>
            </g>
            <g transform="matrix(3.125,0,0,-3.125,0,15955.8)">
                <path d="M526.959,2553.59C526.381,2553.84 526.71,2554.68 525.967,2554.87C523.965,2554.46 523.912,2552.41 523.05,2551" style="fill:none;fill-rule:nonzero;stroke:black;stroke-width:2px;"/>
            </g>
            <g transform="matrix(3.125,0,0,-3.125,0,15894.8)">
                <path d="M508.938,2547.07C510.688,2546.07 511.597,2544.24 513.197,2542.87C512.431,2541.68 511.662,2540.48 510.894,2539.28" style="fill:none;fill-rule:nonzero;stroke:black;stroke-width:2px;"/>
            </g>
            <g transform="matrix(-0.991211,2.96363,-2.96363,-0.991211,9805.15,8922.52)">
                <path d="M539.251,2557.14C540.393,2557.14 541.535,2557.14 542.676,2557.14" style="fill:none;fill-rule:nonzero;stroke:black;stroke-width:2px;"/>
            </g>
            <g transform="matrix(3.125,0,0,-3.125,0,15965.5)">
                <path d="M531.084,2554.96C530.097,2556.29 529.21,2556.6 528.472,2554.75C528.149,2553.94 527.753,2553.16 527.392,2552.36" style="fill:none;fill-rule:nonzero;stroke:black;stroke-width:2px;"/>
            </g>
            <g transform="matrix(3.125,0,0,-3.125,0,15979.4)">
                <path d="M543.894,2558.32C543.502,2558.65 543.172,2558.98 542.577,2558.55C541.908,2558.07 541.142,2557.91 540.414,2558.58C539.34,2557.35 539.075,2555.74 538.25,2554.42" style="fill:none;fill-rule:nonzero;stroke:black;stroke-width:2px;"/>
            </g>
            <g transform="matrix(3.125,0,0,-3.125,0,15960.5)">
                <path d="M528.911,2554.23C528.694,2554.66 528.796,2555.26 528.198,2555.52C526.026,2555.31 526.499,2552.86 525.222,2551.85" style="fill:none;fill-rule:nonzero;stroke:black;stroke-width:2px;"/>
            </g>
            <g transform="matrix(-1.55347,2.71152,-2.71152,-1.55347,9309.26,10522.4)">
                <path d="M511.967,2546.86C513.132,2547.3 514.295,2546.54 515.461,2546.86" style="fill:none;fill-rule:nonzero;stroke:black;stroke-width:2px;"/>
            </g>
            <g transform="matrix(3.125,0,0,-3.125,0,15873.9)">
                <path d="M507.634,2542.09C508.64,2541.51 509.278,2540.88 508.303,2539.7C507.774,2539.05 507.419,2538.27 506.984,2537.54" style="fill:none;fill-rule:nonzero;stroke:black;stroke-width:2px;"/>
            </g>
            <g transform="matrix(0.991878,2.96341,-2.96341,0.991878,8707.73,3542.61)">
                <path d="M603.354,2502.48C604.953,2502.61 606.553,2501.67 608.15,2502.48" style="fill:none;fill-rule:nonzero;stroke:black;stroke-width:2px;"/>
            </g>
            <g transform="matrix(-2.60256,-1.72982,1.72982,-2.60256,-1422.38,15504.5)">
                <path d="M520.466,2549.45C521.248,2550.22 522.032,2549.41 522.813,2549.45" style="fill:none;fill-rule:nonzero;stroke:black;stroke-width:2px;"/>
            </g>
            <g transform="matrix(-1.65659,2.64978,-2.64978,-1.65659,9216.43,10824)">
                <path d="M513.888,2549.02C514.569,2549 515.249,2548.72 515.931,2549.02" style="fill:none;fill-rule:nonzero;stroke:black;stroke-width:2px;"/>
            </g>
            <g transform="matrix(-0.863422,3.00335,-3.00335,-0.863422,10057.9,8370.43)">
                <path d="M599.989,2551.08C600.515,2551.08 601.04,2551.08 601.566,2551.08" style="fill:none;fill-rule:nonzero;stroke:black;stroke-width:2px;"/>
            </g>
            <g transform="matrix(2.79651,1.39469,-1.39469,2.79651,3738.32,93.5827)">
                <path d="M533.665,2554.63C534.313,2553.92 534.959,2554.05 535.606,2554.63" style="fill:none;fill-rule:nonzero;stroke:black;stroke-width:2px;"/>
            </g>
            <g transform="matrix(3.05103,0.675882,-0.675882,3.05103,1766.82,-175.167)">
                <path d="M537.827,2555.3C538.496,2554.8 539.163,2554.85 539.83,2555.3" style="fill:none;fill-rule:nonzero;stroke:black;stroke-width:2px;"/>
            </g>
            <g transform="matrix(4.16667,0,0,4.16667,0,0)">
                <g transform="matrix(17.9843,0,0,18,375.375,1779.42)">
                    <path d="M0.336,-0.221C0.333,-0.156 0.309,-0.095 0.264,-0.038C0.256,-0.027 0.247,-0.018 0.236,-0.011C0.225,-0.003 0.213,0.003 0.2,0.007C0.174,0.013 0.149,0.01 0.125,-0.002C0.116,-0.007 0.108,-0.014 0.1,-0.022C0.092,-0.029 0.085,-0.037 0.08,-0.046C0.063,-0.073 0.051,-0.101 0.045,-0.131C0.039,-0.16 0.037,-0.189 0.039,-0.22C0.042,-0.247 0.048,-0.274 0.057,-0.299C0.066,-0.324 0.08,-0.346 0.098,-0.367C0.113,-0.384 0.132,-0.394 0.153,-0.398C0.163,-0.401 0.172,-0.401 0.18,-0.399C0.188,-0.396 0.196,-0.392 0.203,-0.386C0.205,-0.384 0.207,-0.383 0.21,-0.383C0.213,-0.382 0.216,-0.382 0.219,-0.382C0.237,-0.384 0.253,-0.381 0.268,-0.374C0.282,-0.367 0.294,-0.356 0.305,-0.341C0.317,-0.324 0.325,-0.307 0.33,-0.288C0.334,-0.269 0.336,-0.246 0.336,-0.221ZM0.194,-0.296C0.187,-0.296 0.179,-0.295 0.171,-0.293C0.164,-0.293 0.159,-0.291 0.156,-0.288C0.153,-0.285 0.15,-0.28 0.147,-0.274C0.138,-0.249 0.133,-0.225 0.133,-0.2C0.132,-0.175 0.136,-0.15 0.143,-0.125C0.147,-0.114 0.153,-0.103 0.162,-0.092C0.167,-0.087 0.17,-0.085 0.173,-0.085C0.175,-0.084 0.178,-0.086 0.183,-0.091C0.189,-0.097 0.195,-0.103 0.201,-0.11C0.206,-0.116 0.211,-0.123 0.215,-0.13C0.218,-0.138 0.222,-0.146 0.226,-0.155C0.229,-0.164 0.232,-0.172 0.234,-0.181C0.237,-0.194 0.24,-0.207 0.242,-0.22C0.244,-0.233 0.243,-0.246 0.24,-0.259C0.237,-0.273 0.232,-0.283 0.225,-0.288C0.218,-0.293 0.208,-0.296 0.194,-0.296Z" style="fill-rule:nonzero;"/>
                </g>
            </g>
            <g transform="matrix(4.16667,0,0,4.16667,0,0)">
                <g transform="matrix(17.9843,0,0,18,375.375,1839.42)">
                    <path d="M0.336,-0.221C0.333,-0.156 0.309,-0.095 0.264,-0.038C0.256,-0.027 0.247,-0.018 0.236,-0.011C0.225,-0.003 0.213,0.003 0.2,0.007C0.174,0.013 0.149,0.01 0.125,-0.002C0.116,-0.007 0.108,-0.014 0.1,-0.022C0.092,-0.029 0.085,-0.037 0.08,-0.046C0.063,-0.073 0.051,-0.101 0.045,-0.131C0.039,-0.16 0.037,-0.189 0.039,-0.22C0.042,-0.247 0.048,-0.274 0.057,-0.299C0.066,-0.324 0.08,-0.346 0.098,-0.367C0.113,-0.384 0.132,-0.394 0.153,-0.398C0.163,-0.401 0.172,-0.401 0.18,-0.399C0.188,-0.396 0.196,-0.392 0.203,-0.386C0.205,-0.384 0.207,-0.383 0.21,-0.383C0.213,-0.382 0.216,-0.382 0.219,-0.382C0.237,-0.384 0.253,-0.381 0.268,-0.374C0.282,-0.367 0.294,-0.356 0.305,-0.341C0.317,-0.324 0.325,-0.307 0.33,-0.288C0.334,-0.269 0.336,-0.246 0.336,-0.221ZM0.194,-0.296C0.187,-0.296 0.179,-0.295 0.171,-0.293C0.164,-0.293 0.159,-0.291 0.156,-0.288C0.153,-0.285 0.15,-0.28 0.147,-0.274C0.138,-0.249 0.133,-0.225 0.133,-0.2C0.132,-0.175 0.136,-0.15 0.143,-0.125C0.147,-0.114 0.153,-0.103 0.162,-0.092C0.167,-0.087 0.17,-0.085 0.173,-0.085C0.175,-0.084 0.178,-0.086 0.183,-0.091C0.189,-0.097 0.195,-0.103 0.201,-0.11C0.206,-0.116 0.211,-0.123 0.215,-0.13C0.218,-0.138 0.222,-0.146 0.226,-0.155C0.229,-0.164 0.232,-0.172 0.234,-0.181C0.237,-0.194 0.24,-0.207 0.242,-0.22C0.244,-0.233 0.243,-0.246 0.24,-0.259C0.237,-0.273 0.232,-0.283 0.225,-0.288C0.218,-0.293 0.208,-0.296 0.194,-0.296Z" style="fill-rule:nonzero;"/>
                </g>
            </g>
            <g transform="matrix(4.16667,0,0,4.16667,0,0)">
                <g transform="matrix(17.9843,0,0,18,388.875,1823.67)">
                    <path d="M0.336,-0.221C0.333,-0.156 0.309,-0.095 0.264,-0.038C0.256,-0.027 0.247,-0.018 0.236,-0.011C0.225,-0.003 0.213,0.003 0.2,0.007C0.174,0.013 0.149,0.01 0.125,-0.002C0.116,-0.007 0.108,-0.014 0.1,-0.022C0.092,-0.029 0.085,-0.037 0.08,-0.046C0.063,-0.073 0.051,-0.101 0.045,-0.131C0.039,-0.16 0.037,-0.189 0.039,-0.22C0.042,-0.247 0.048,-0.274 0.057,-0.299C0.066,-0.324 0.08,-0.346 0.098,-0.367C0.113,-0.384 0.132,-0.394 0.153,-0.398C0.163,-0.401 0.172,-0.401 0.18,-0.399C0.188,-0.396 0.196,-0.392 0.203,-0.386C0.205,-0.384 0.207,-0.383 0.21,-0.383C0.213,-0.382 0.216,-0.382 0.219,-0.382C0.237,-0.384 0.253,-0.381 0.268,-0.374C0.282,-0.367 0.294,-0.356 0.305,-0.341C0.317,-0.324 0.325,-0.307 0.33,-0.288C0.334,-0.269 0.336,-0.246 0.336,-0.221ZM0.194,-0.296C0.187,-0.296 0.179,-0.295 0.171,-0.293C0.164,-0.293 0.159,-0.291 0.156,-0.288C0.153,-0.285 0.15,-0.28 0.147,-0.274C0.138,-0.249 0.133,-0.225 0.133,-0.2C0.132,-0.175 0.136,-0.15 0.143,-0.125C0.147,-0.114 0.153,-0.103 0.162,-0.092C0.167,-0.087 0.17,-0.085 0.173,-0.085C0.175,-0.084 0.178,-0.086 0.183,-0.091C0.189,-0.097 0.195,-0.103 0.201,-0.11C0.206,-0.116 0.211,-0.123 0.215,-0.13C0.218,-0.138 0.222,-0.146 0.226,-0.155C0.229,-0.164 0.232,-0.172 0.234,-0.181C0.237,-0.194 0.24,-0.207 0.242,-0.22C0.244,-0.233 0.243,-0.246 0.24,-0.259C0.237,-0.273 0.232,-0.283 0.225,-0.288C0.218,-0.293 0.208,-0.296 0.194,-0.296Z" style="fill-rule:nonzero;"/>
                </g>
            </g>
            <g transform="matrix(4.16667,0,0,4.16667,0,0)">
                <g transform="matrix(17.9843,0,0,18,428.625,1826.67)">
                    <path d="M0.336,-0.221C0.333,-0.156 0.309,-0.095 0.264,-0.038C0.256,-0.027 0.247,-0.018 0.236,-0.011C0.225,-0.003 0.213,0.003 0.2,0.007C0.174,0.013 0.149,0.01 0.125,-0.002C0.116,-0.007 0.108,-0.014 0.1,-0.022C0.092,-0.029 0.085,-0.037 0.08,-0.046C0.063,-0.073 0.051,-0.101 0.045,-0.131C0.039,-0.16 0.037,-0.189 0.039,-0.22C0.042,-0.247 0.048,-0.274 0.057,-0.299C0.066,-0.324 0.08,-0.346 0.098,-0.367C0.113,-0.384 0.132,-0.394 0.153,-0.398C0.163,-0.401 0.172,-0.401 0.18,-0.399C0.188,-0.396 0.196,-0.392 0.203,-0.386C0.205,-0.384 0.207,-0.383 0.21,-0.383C0.213,-0.382 0.216,-0.382 0.219,-0.382C0.237,-0.384 0.253,-0.381 0.268,-0.374C0.282,-0.367 0.294,-0.356 0.305,-0.341C0.317,-0.324 0.325,-0.307 0.33,-0.288C0.334,-0.269 0.336,-0.246 0.336,-0.221ZM0.194,-0.296C0.187,-0.296 0.179,-0.295 0.171,-0.293C0.164,-0.293 0.159,-0.291 0.156,-0.288C0.153,-0.285 0.15,-0.28 0.147,-0.274C0.138,-0.249 0.133,-0.225 0.133,-0.2C0.132,-0.175 0.136,-0.15 0.143,-0.125C0.147,-0.114 0.153,-0.103 0.162,-0.092C0.167,-0.087 0.17,-0.085 0.173,-0.085C0.175,-0.084 0.178,-0.086 0.183,-0.091C0.189,-0.097 0.195,-0.103 0.201,-0.11C0.206,-0.116 0.211,-0.123 0.215,-0.13C0.218,-0.138 0.222,-0.146 0.226,-0.155C0.229,-0.164 0.232,-0.172 0.234,-0.181C0.237,-0.194 0.24,-0.207 0.242,-0.22C0.244,-0.233 0.243,-0.246 0.24,-0.259C0.237,-0.273 0.232,-0.283 0.225,-0.288C0.218,-0.293 0.208,-0.296 0.194,-0.296Z" style="fill-rule:nonzero;"/>
                </g>
            </g>
            <g transform="matrix(4.16667,0,0,4.16667,0,0)">
                <g transform="matrix(17.9843,0,0,18,416.625,1810.17)">
                    <path d="M0.336,-0.221C0.333,-0.156 0.309,-0.095 0.264,-0.038C0.256,-0.027 0.247,-0.018 0.236,-0.011C0.225,-0.003 0.213,0.003 0.2,0.007C0.174,0.013 0.149,0.01 0.125,-0.002C0.116,-0.007 0.108,-0.014 0.1,-0.022C0.092,-0.029 0.085,-0.037 0.08,-0.046C0.063,-0.073 0.051,-0.101 0.045,-0.131C0.039,-0.16 0.037,-0.189 0.039,-0.22C0.042,-0.247 0.048,-0.274 0.057,-0.299C0.066,-0.324 0.08,-0.346 0.098,-0.367C0.113,-0.384 0.132,-0.394 0.153,-0.398C0.163,-0.401 0.172,-0.401 0.18,-0.399C0.188,-0.396 0.196,-0.392 0.203,-0.386C0.205,-0.384 0.207,-0.383 0.21,-0.383C0.213,-0.382 0.216,-0.382 0.219,-0.382C0.237,-0.384 0.253,-0.381 0.268,-0.374C0.282,-0.367 0.294,-0.356 0.305,-0.341C0.317,-0.324 0.325,-0.307 0.33,-0.288C0.334,-0.269 0.336,-0.246 0.336,-0.221ZM0.194,-0.296C0.187,-0.296 0.179,-0.295 0.171,-0.293C0.164,-0.293 0.159,-0.291 0.156,-0.288C0.153,-0.285 0.15,-0.28 0.147,-0.274C0.138,-0.249 0.133,-0.225 0.133,-0.2C0.132,-0.175 0.136,-0.15 0.143,-0.125C0.147,-0.114 0.153,-0.103 0.162,-0.092C0.167,-0.087 0.17,-0.085 0.173,-0.085C0.175,-0.084 0.178,-0.086 0.183,-0.091C0.189,-0.097 0.195,-0.103 0.201,-0.11C0.206,-0.116 0.211,-0.123 0.215,-0.13C0.218,-0.138 0.222,-0.146 0.226,-0.155C0.229,-0.164 0.232,-0.172 0.234,-0.181C0.237,-0.194 0.24,-0.207 0.242,-0.22C0.244,-0.233 0.243,-0.246 0.24,-0.259C0.237,-0.273 0.232,-0.283 0.225,-0.288C0.218,-0.293 0.208,-0.296 0.194,-0.296Z" style="fill-rule:nonzero;"/>
                </g>
            </g>
            <g transform="matrix(4.16667,0,0,4.16667,0,0)">
                <g transform="matrix(17.9843,0,0,18,443.625,1796.67)">
                    <path d="M0.336,-0.221C0.333,-0.156 0.309,-0.095 0.264,-0.038C0.256,-0.027 0.247,-0.018 0.236,-0.011C0.225,-0.003 0.213,0.003 0.2,0.007C0.174,0.013 0.149,0.01 0.125,-0.002C0.116,-0.007 0.108,-0.014 0.1,-0.022C0.092,-0.029 0.085,-0.037 0.08,-0.046C0.063,-0.073 0.051,-0.101 0.045,-0.131C0.039,-0.16 0.037,-0.189 0.039,-0.22C0.042,-0.247 0.048,-0.274 0.057,-0.299C0.066,-0.324 0.08,-0.346 0.098,-0.367C0.113,-0.384 0.132,-0.394 0.153,-0.398C0.163,-0.401 0.172,-0.401 0.18,-0.399C0.188,-0.396 0.196,-0.392 0.203,-0.386C0.205,-0.384 0.207,-0.383 0.21,-0.383C0.213,-0.382 0.216,-0.382 0.219,-0.382C0.237,-0.384 0.253,-0.381 0.268,-0.374C0.282,-0.367 0.294,-0.356 0.305,-0.341C0.317,-0.324 0.325,-0.307 0.33,-0.288C0.334,-0.269 0.336,-0.246 0.336,-0.221ZM0.194,-0.296C0.187,-0.296 0.179,-0.295 0.171,-0.293C0.164,-0.293 0.159,-0.291 0.156,-0.288C0.153,-0.285 0.15,-0.28 0.147,-0.274C0.138,-0.249 0.133,-0.225 0.133,-0.2C0.132,-0.175 0.136,-0.15 0.143,-0.125C0.147,-0.114 0.153,-0.103 0.162,-0.092C0.167,-0.087 0.17,-0.085 0.173,-0.085C0.175,-0.084 0.178,-0.086 0.183,-0.091C0.189,-0.097 0.195,-0.103 0.201,-0.11C0.206,-0.116 0.211,-0.123 0.215,-0.13C0.218,-0.138 0.222,-0.146 0.226,-0.155C0.229,-0.164 0.232,-0.172 0.234,-0.181C0.237,-0.194 0.24,-0.207 0.242,-0.22C0.244,-0.233 0.243,-0.246 0.24,-0.259C0.237,-0.273 0.232,-0.283 0.225,-0.288C0.218,-0.293 0.208,-0.296 0.194,-0.296Z" style="fill-rule:nonzero;"/>
                </g>
            </g>
            <g transform="matrix(4.16667,0,0,4.16667,0,0)">
                <g transform="matrix(17.9843,0,0,18,443.625,1812.42)">
                    <path d="M0.336,-0.221C0.333,-0.156 0.309,-0.095 0.264,-0.038C0.256,-0.027 0.247,-0.018 0.236,-0.011C0.225,-0.003 0.213,0.003 0.2,0.007C0.174,0.013 0.149,0.01 0.125,-0.002C0.116,-0.007 0.108,-0.014 0.1,-0.022C0.092,-0.029 0.085,-0.037 0.08,-0.046C0.063,-0.073 0.051,-0.101 0.045,-0.131C0.039,-0.16 0.037,-0.189 0.039,-0.22C0.042,-0.247 0.048,-0.274 0.057,-0.299C0.066,-0.324 0.08,-0.346 0.098,-0.367C0.113,-0.384 0.132,-0.394 0.153,-0.398C0.163,-0.401 0.172,-0.401 0.18,-0.399C0.188,-0.396 0.196,-0.392 0.203,-0.386C0.205,-0.384 0.207,-0.383 0.21,-0.383C0.213,-0.382 0.216,-0.382 0.219,-0.382C0.237,-0.384 0.253,-0.381 0.268,-0.374C0.282,-0.367 0.294,-0.356 0.305,-0.341C0.317,-0.324 0.325,-0.307 0.33,-0.288C0.334,-0.269 0.336,-0.246 0.336,-0.221ZM0.194,-0.296C0.187,-0.296 0.179,-0.295 0.171,-0.293C0.164,-0.293 0.159,-0.291 0.156,-0.288C0.153,-0.285 0.15,-0.28 0.147,-0.274C0.138,-0.249 0.133,-0.225 0.133,-0.2C0.132,-0.175 0.136,-0.15 0.143,-0.125C0.147,-0.114 0.153,-0.103 0.162,-0.092C0.167,-0.087 0.17,-0.085 0.173,-0.085C0.175,-0.084 0.178,-0.086 0.183,-0.091C0.189,-0.097 0.195,-0.103 0.201,-0.11C0.206,-0.116 0.211,-0.123 0.215,-0.13C0.218,-0.138 0.222,-0.146 0.226,-0.155C0.229,-0.164 0.232,-0.172 0.234,-0.181C0.237,-0.194 0.24,-0.207 0.242,-0.22C0.244,-0.233 0.243,-0.246 0.24,-0.259C0.237,-0.273 0.232,-0.283 0.225,-0.288C0.218,-0.293 0.208,-0.296 0.194,-0.296Z" style="fill-rule:nonzero;"/>
                </g>
            </g>
            <g transform="matrix(4.16667,0,0,4.16667,0,0)">
                <g transform="matrix(17.9843,0,0,18,402.75,1861.17)">
                    <path d="M0.336,-0.221C0.333,-0.156 0.309,-0.095 0.264,-0.038C0.256,-0.027 0.247,-0.018 0.236,-0.011C0.225,-0.003 0.213,0.003 0.2,0.007C0.174,0.013 0.149,0.01 0.125,-0.002C0.116,-0.007 0.108,-0.014 0.1,-0.022C0.092,-0.029 0.085,-0.037 0.08,-0.046C0.063,-0.073 0.051,-0.101 0.045,-0.131C0.039,-0.16 0.037,-0.189 0.039,-0.22C0.042,-0.247 0.048,-0.274 0.057,-0.299C0.066,-0.324 0.08,-0.346 0.098,-0.367C0.113,-0.384 0.132,-0.394 0.153,-0.398C0.163,-0.401 0.172,-0.401 0.18,-0.399C0.188,-0.396 0.196,-0.392 0.203,-0.386C0.205,-0.384 0.207,-0.383 0.21,-0.383C0.213,-0.382 0.216,-0.382 0.219,-0.382C0.237,-0.384 0.253,-0.381 0.268,-0.374C0.282,-0.367 0.294,-0.356 0.305,-0.341C0.317,-0.324 0.325,-0.307 0.33,-0.288C0.334,-0.269 0.336,-0.246 0.336,-0.221ZM0.194,-0.296C0.187,-0.296 0.179,-0.295 0.171,-0.293C0.164,-0.293 0.159,-0.291 0.156,-0.288C0.153,-0.285 0.15,-0.28 0.147,-0.274C0.138,-0.249 0.133,-0.225 0.133,-0.2C0.132,-0.175 0.136,-0.15 0.143,-0.125C0.147,-0.114 0.153,-0.103 0.162,-0.092C0.167,-0.087 0.17,-0.085 0.173,-0.085C0.175,-0.084 0.178,-0.086 0.183,-0.091C0.189,-0.097 0.195,-0.103 0.201,-0.11C0.206,-0.116 0.211,-0.123 0.215,-0.13C0.218,-0.138 0.222,-0.146 0.226,-0.155C0.229,-0.164 0.232,-0.172 0.234,-0.181C0.237,-0.194 0.24,-0.207 0.242,-0.22C0.244,-0.233 0.243,-0.246 0.24,-0.259C0.237,-0.273 0.232,-0.283 0.225,-0.288C0.218,-0.293 0.208,-0.296 0.194,-0.296Z" style="fill-rule:nonzero;"/>
                </g>
            </g>
            <g transform="matrix(4.16667,0,0,4.16667,0,0)">
                <g transform="matrix(17.9843,0,0,18,455.625,1812.42)">
                    <path d="M0.336,-0.221C0.333,-0.156 0.309,-0.095 0.264,-0.038C0.256,-0.027 0.247,-0.018 0.236,-0.011C0.225,-0.003 0.213,0.003 0.2,0.007C0.174,0.013 0.149,0.01 0.125,-0.002C0.116,-0.007 0.108,-0.014 0.1,-0.022C0.092,-0.029 0.085,-0.037 0.08,-0.046C0.063,-0.073 0.051,-0.101 0.045,-0.131C0.039,-0.16 0.037,-0.189 0.039,-0.22C0.042,-0.247 0.048,-0.274 0.057,-0.299C0.066,-0.324 0.08,-0.346 0.098,-0.367C0.113,-0.384 0.132,-0.394 0.153,-0.398C0.163,-0.401 0.172,-0.401 0.18,-0.399C0.188,-0.396 0.196,-0.392 0.203,-0.386C0.205,-0.384 0.207,-0.383 0.21,-0.383C0.213,-0.382 0.216,-0.382 0.219,-0.382C0.237,-0.384 0.253,-0.381 0.268,-0.374C0.282,-0.367 0.294,-0.356 0.305,-0.341C0.317,-0.324 0.325,-0.307 0.33,-0.288C0.334,-0.269 0.336,-0.246 0.336,-0.221ZM0.194,-0.296C0.187,-0.296 0.179,-0.295 0.171,-0.293C0.164,-0.293 0.159,-0.291 0.156,-0.288C0.153,-0.285 0.15,-0.28 0.147,-0.274C0.138,-0.249 0.133,-0.225 0.133,-0.2C0.132,-0.175 0.136,-0.15 0.143,-0.125C0.147,-0.114 0.153,-0.103 0.162,-0.092C0.167,-0.087 0.17,-0.085 0.173,-0.085C0.175,-0.084 0.178,-0.086 0.183,-0.091C0.189,-0.097 0.195,-0.103 0.201,-0.11C0.206,-0.116 0.211,-0.123 0.215,-0.13C0.218,-0.138 0.222,-0.146 0.226,-0.155C0.229,-0.164 0.232,-0.172 0.234,-0.181C0.237,-0.194 0.24,-0.207 0.242,-0.22C0.244,-0.233 0.243,-0.246 0.24,-0.259C0.237,-0.273 0.232,-0.283 0.225,-0.288C0.218,-0.293 0.208,-0.296 0.194,-0.296Z" style="fill-rule:nonzero;"/>
                </g>
            </g>
            <g transform="matrix(4.16667,0,0,4.16667,0,0)">
                <g transform="matrix(17.9843,0,0,18,484.125,1798.92)">
                    <path d="M0.336,-0.221C0.333,-0.156 0.309,-0.095 0.264,-0.038C0.256,-0.027 0.247,-0.018 0.236,-0.011C0.225,-0.003 0.213,0.003 0.2,0.007C0.174,0.013 0.149,0.01 0.125,-0.002C0.116,-0.007 0.108,-0.014 0.1,-0.022C0.092,-0.029 0.085,-0.037 0.08,-0.046C0.063,-0.073 0.051,-0.101 0.045,-0.131C0.039,-0.16 0.037,-0.189 0.039,-0.22C0.042,-0.247 0.048,-0.274 0.057,-0.299C0.066,-0.324 0.08,-0.346 0.098,-0.367C0.113,-0.384 0.132,-0.394 0.153,-0.398C0.163,-0.401 0.172,-0.401 0.18,-0.399C0.188,-0.396 0.196,-0.392 0.203,-0.386C0.205,-0.384 0.207,-0.383 0.21,-0.383C0.213,-0.382 0.216,-0.382 0.219,-0.382C0.237,-0.384 0.253,-0.381 0.268,-0.374C0.282,-0.367 0.294,-0.356 0.305,-0.341C0.317,-0.324 0.325,-0.307 0.33,-0.288C0.334,-0.269 0.336,-0.246 0.336,-0.221ZM0.194,-0.296C0.187,-0.296 0.179,-0.295 0.171,-0.293C0.164,-0.293 0.159,-0.291 0.156,-0.288C0.153,-0.285 0.15,-0.28 0.147,-0.274C0.138,-0.249 0.133,-0.225 0.133,-0.2C0.132,-0.175 0.136,-0.15 0.143,-0.125C0.147,-0.114 0.153,-0.103 0.162,-0.092C0.167,-0.087 0.17,-0.085 0.173,-0.085C0.175,-0.084 0.178,-0.086 0.183,-0.091C0.189,-0.097 0.195,-0.103 0.201,-0.11C0.206,-0.116 0.211,-0.123 0.215,-0.13C0.218,-0.138 0.222,-0.146 0.226,-0.155C0.229,-0.164 0.232,-0.172 0.234,-0.181C0.237,-0.194 0.24,-0.207 0.242,-0.22C0.244,-0.233 0.243,-0.246 0.24,-0.259C0.237,-0.273 0.232,-0.283 0.225,-0.288C0.218,-0.293 0.208,-0.296 0.194,-0.296Z" style="fill-rule:nonzero;"/>
                </g>
            </g>
            <g transform="matrix(4.16667,0,0,4.16667,0,0)">
                <g transform="matrix(17.9843,0,0,18,428.625,1753.92)">
                    <path d="M0.336,-0.221C0.333,-0.156 0.309,-0.095 0.264,-0.038C0.256,-0.027 0.247,-0.018 0.236,-0.011C0.225,-0.003 0.213,0.003 0.2,0.007C0.174,0.013 0.149,0.01 0.125,-0.002C0.116,-0.007 0.108,-0.014 0.1,-0.022C0.092,-0.029 0.085,-0.037 0.08,-0.046C0.063,-0.073 0.051,-0.101 0.045,-0.131C0.039,-0.16 0.037,-0.189 0.039,-0.22C0.042,-0.247 0.048,-0.274 0.057,-0.299C0.066,-0.324 0.08,-0.346 0.098,-0.367C0.113,-0.384 0.132,-0.394 0.153,-0.398C0.163,-0.401 0.172,-0.401 0.18,-0.399C0.188,-0.396 0.196,-0.392 0.203,-0.386C0.205,-0.384 0.207,-0.383 0.21,-0.383C0.213,-0.382 0.216,-0.382 0.219,-0.382C0.237,-0.384 0.253,-0.381 0.268,-0.374C0.282,-0.367 0.294,-0.356 0.305,-0.341C0.317,-0.324 0.325,-0.307 0.33,-0.288C0.334,-0.269 0.336,-0.246 0.336,-0.221ZM0.194,-0.296C0.187,-0.296 0.179,-0.295 0.171,-0.293C0.164,-0.293 0.159,-0.291 0.156,-0.288C0.153,-0.285 0.15,-0.28 0.147,-0.274C0.138,-0.249 0.133,-0.225 0.133,-0.2C0.132,-0.175 0.136,-0.15 0.143,-0.125C0.147,-0.114 0.153,-0.103 0.162,-0.092C0.167,-0.087 0.17,-0.085 0.173,-0.085C0.175,-0.084 0.178,-0.086 0.183,-0.091C0.189,-0.097 0.195,-0.103 0.201,-0.11C0.206,-0.116 0.211,-0.123 0.215,-0.13C0.218,-0.138 0.222,-0.146 0.226,-0.155C0.229,-0.164 0.232,-0.172 0.234,-0.181C0.237,-0.194 0.24,-0.207 0.242,-0.22C0.244,-0.233 0.243,-0.246 0.24,-0.259C0.237,-0.273 0.232,-0.283 0.225,-0.288C0.218,-0.293 0.208,-0.296 0.194,-0.296Z" style="fill-rule:nonzero;"/>
                </g>
            </g>
            <g transform="matrix(4.16667,0,0,4.16667,0,0)">
                <g transform="matrix(17.9619,0,0,18,377.625,1768.17)">
                    <path d="M0.108,-0.259C0.107,-0.231 0.107,-0.203 0.108,-0.176C0.109,-0.148 0.11,-0.12 0.11,-0.092C0.11,-0.081 0.11,-0.07 0.111,-0.06C0.111,-0.049 0.112,-0.037 0.114,-0.026C0.117,-0.016 0.114,-0.008 0.105,-0.002C0.097,0.001 0.089,-0.001 0.081,-0.01C0.078,-0.013 0.075,-0.017 0.074,-0.022C0.071,-0.029 0.069,-0.037 0.068,-0.045C0.066,-0.053 0.064,-0.061 0.063,-0.068C0.06,-0.093 0.058,-0.118 0.056,-0.142C0.053,-0.166 0.051,-0.19 0.05,-0.215C0.049,-0.237 0.048,-0.259 0.046,-0.281C0.044,-0.302 0.042,-0.324 0.041,-0.346C0.04,-0.371 0.039,-0.397 0.038,-0.423C0.037,-0.448 0.039,-0.474 0.044,-0.499C0.045,-0.504 0.046,-0.509 0.048,-0.514C0.05,-0.518 0.052,-0.522 0.054,-0.526C0.061,-0.537 0.07,-0.541 0.08,-0.539C0.091,-0.538 0.099,-0.532 0.102,-0.52C0.105,-0.511 0.108,-0.503 0.109,-0.494C0.11,-0.485 0.11,-0.475 0.11,-0.466C0.111,-0.441 0.111,-0.417 0.111,-0.393C0.11,-0.368 0.109,-0.344 0.108,-0.319L0.108,-0.259Z" style="fill-rule:nonzero;"/>
                </g>
            </g>
            <g transform="matrix(4.16667,0,0,4.16667,0,0)">
                <g transform="matrix(17.9619,0,0,18,377.625,1798.92)">
                    <path d="M0.108,-0.259C0.107,-0.231 0.107,-0.203 0.108,-0.176C0.109,-0.148 0.11,-0.12 0.11,-0.092C0.11,-0.081 0.11,-0.07 0.111,-0.06C0.111,-0.049 0.112,-0.037 0.114,-0.026C0.117,-0.016 0.114,-0.008 0.105,-0.002C0.097,0.001 0.089,-0.001 0.081,-0.01C0.078,-0.013 0.075,-0.017 0.074,-0.022C0.071,-0.029 0.069,-0.037 0.068,-0.045C0.066,-0.053 0.064,-0.061 0.063,-0.068C0.06,-0.093 0.058,-0.118 0.056,-0.142C0.053,-0.166 0.051,-0.19 0.05,-0.215C0.049,-0.237 0.048,-0.259 0.046,-0.281C0.044,-0.302 0.042,-0.324 0.041,-0.346C0.04,-0.371 0.039,-0.397 0.038,-0.423C0.037,-0.448 0.039,-0.474 0.044,-0.499C0.045,-0.504 0.046,-0.509 0.048,-0.514C0.05,-0.518 0.052,-0.522 0.054,-0.526C0.061,-0.537 0.07,-0.541 0.08,-0.539C0.091,-0.538 0.099,-0.532 0.102,-0.52C0.105,-0.511 0.108,-0.503 0.109,-0.494C0.11,-0.485 0.11,-0.475 0.11,-0.466C0.111,-0.441 0.111,-0.417 0.111,-0.393C0.11,-0.368 0.109,-0.344 0.108,-0.319L0.108,-0.259Z" style="fill-rule:nonzero;"/>
                </g>
            </g>
            <g transform="matrix(4.16667,0,0,4.16667,0,0)">
                <g transform="matrix(17.9619,0,0,18,391.125,1841.67)">
                    <path d="M0.108,-0.259C0.107,-0.231 0.107,-0.203 0.108,-0.176C0.109,-0.148 0.11,-0.12 0.11,-0.092C0.11,-0.081 0.11,-0.07 0.111,-0.06C0.111,-0.049 0.112,-0.037 0.114,-0.026C0.117,-0.016 0.114,-0.008 0.105,-0.002C0.097,0.001 0.089,-0.001 0.081,-0.01C0.078,-0.013 0.075,-0.017 0.074,-0.022C0.071,-0.029 0.069,-0.037 0.068,-0.045C0.066,-0.053 0.064,-0.061 0.063,-0.068C0.06,-0.093 0.058,-0.118 0.056,-0.142C0.053,-0.166 0.051,-0.19 0.05,-0.215C0.049,-0.237 0.048,-0.259 0.046,-0.281C0.044,-0.302 0.042,-0.324 0.041,-0.346C0.04,-0.371 0.039,-0.397 0.038,-0.423C0.037,-0.448 0.039,-0.474 0.044,-0.499C0.045,-0.504 0.046,-0.509 0.048,-0.514C0.05,-0.518 0.052,-0.522 0.054,-0.526C0.061,-0.537 0.07,-0.541 0.08,-0.539C0.091,-0.538 0.099,-0.532 0.102,-0.52C0.105,-0.511 0.108,-0.503 0.109,-0.494C0.11,-0.485 0.11,-0.475 0.11,-0.466C0.111,-0.441 0.111,-0.417 0.111,-0.393C0.11,-0.368 0.109,-0.344 0.108,-0.319L0.108,-0.259Z" style="fill-rule:nonzero;"/>
                </g>
            </g>
            <g transform="matrix(4.16667,0,0,4.16667,0,0)">
                <g transform="matrix(17.9619,0,0,18,403.875,1814.67)">
                    <path d="M0.108,-0.259C0.107,-0.231 0.107,-0.203 0.108,-0.176C0.109,-0.148 0.11,-0.12 0.11,-0.092C0.11,-0.081 0.11,-0.07 0.111,-0.06C0.111,-0.049 0.112,-0.037 0.114,-0.026C0.117,-0.016 0.114,-0.008 0.105,-0.002C0.097,0.001 0.089,-0.001 0.081,-0.01C0.078,-0.013 0.075,-0.017 0.074,-0.022C0.071,-0.029 0.069,-0.037 0.068,-0.045C0.066,-0.053 0.064,-0.061 0.063,-0.068C0.06,-0.093 0.058,-0.118 0.056,-0.142C0.053,-0.166 0.051,-0.19 0.05,-0.215C0.049,-0.237 0.048,-0.259 0.046,-0.281C0.044,-0.302 0.042,-0.324 0.041,-0.346C0.04,-0.371 0.039,-0.397 0.038,-0.423C0.037,-0.448 0.039,-0.474 0.044,-0.499C0.045,-0.504 0.046,-0.509 0.048,-0.514C0.05,-0.518 0.052,-0.522 0.054,-0.526C0.061,-0.537 0.07,-0.541 0.08,-0.539C0.091,-0.538 0.099,-0.532 0.102,-0.52C0.105,-0.511 0.108,-0.503 0.109,-0.494C0.11,-0.485 0.11,-0.475 0.11,-0.466C0.111,-0.441 0.111,-0.417 0.111,-0.393C0.11,-0.368 0.109,-0.344 0.108,-0.319L0.108,-0.259Z" style="fill-rule:nonzero;"/>
                </g>
            </g>
            <g transform="matrix(4.16667,0,0,4.16667,0,0)">
                <g transform="matrix(17.9619,0,0,18,403.875,1780.92)">
                    <path d="M0.108,-0.259C0.107,-0.231 0.107,-0.203 0.108,-0.176C0.109,-0.148 0.11,-0.12 0.11,-0.092C0.11,-0.081 0.11,-0.07 0.111,-0.06C0.111,-0.049 0.112,-0.037 0.114,-0.026C0.117,-0.016 0.114,-0.008 0.105,-0.002C0.097,0.001 0.089,-0.001 0.081,-0.01C0.078,-0.013 0.075,-0.017 0.074,-0.022C0.071,-0.029 0.069,-0.037 0.068,-0.045C0.066,-0.053 0.064,-0.061 0.063,-0.068C0.06,-0.093 0.058,-0.118 0.056,-0.142C0.053,-0.166 0.051,-0.19 0.05,-0.215C0.049,-0.237 0.048,-0.259 0.046,-0.281C0.044,-0.302 0.042,-0.324 0.041,-0.346C0.04,-0.371 0.039,-0.397 0.038,-0.423C0.037,-0.448 0.039,-0.474 0.044,-0.499C0.045,-0.504 0.046,-0.509 0.048,-0.514C0.05,-0.518 0.052,-0.522 0.054,-0.526C0.061,-0.537 0.07,-0.541 0.08,-0.539C0.091,-0.538 0.099,-0.532 0.102,-0.52C0.105,-0.511 0.108,-0.503 0.109,-0.494C0.11,-0.485 0.11,-0.475 0.11,-0.466C0.111,-0.441 0.111,-0.417 0.111,-0.393C0.11,-0.368 0.109,-0.344 0.108,-0.319L0.108,-0.259Z" style="fill-rule:nonzero;"/>
                </g>
                <g transform="matrix(17.9619,0,0,18,418.125,1780.92)">
                    <path d="M0.108,-0.259C0.107,-0.231 0.107,-0.203 0.108,-0.176C0.109,-0.148 0.11,-0.12 0.11,-0.092C0.11,-0.081 0.11,-0.07 0.111,-0.06C0.111,-0.049 0.112,-0.037 0.114,-0.026C0.117,-0.016 0.114,-0.008 0.105,-0.002C0.097,0.001 0.089,-0.001 0.081,-0.01C0.078,-0.013 0.075,-0.017 0.074,-0.022C0.071,-0.029 0.069,-0.037 0.068,-0.045C0.066,-0.053 0.064,-0.061 0.063,-0.068C0.06,-0.093 0.058,-0.118 0.056,-0.142C0.053,-0.166 0.051,-0.19 0.05,-0.215C0.049,-0.237 0.048,-0.259 0.046,-0.281C0.044,-0.302 0.042,-0.324 0.041,-0.346C0.04,-0.371 0.039,-0.397 0.038,-0.423C0.037,-0.448 0.039,-0.474 0.044,-0.499C0.045,-0.504 0.046,-0.509 0.048,-0.514C0.05,-0.518 0.052,-0.522 0.054,-0.526C0.061,-0.537 0.07,-0.541 0.08,-0.539C0.091,-0.538 0.099,-0.532 0.102,-0.52C0.105,-0.511 0.108,-0.503 0.109,-0.494C0.11,-0.485 0.11,-0.475 0.11,-0.466C0.111,-0.441 0.111,-0.417 0.111,-0.393C0.11,-0.368 0.109,-0.344 0.108,-0.319L0.108,-0.259Z" style="fill-rule:nonzero;"/>
                </g>
            </g>
            <g transform="matrix(4.16667,0,0,4.16667,0,0)">
                <g transform="matrix(17.9619,0,0,18,430.875,1795.92)">
                    <path d="M0.108,-0.259C0.107,-0.231 0.107,-0.203 0.108,-0.176C0.109,-0.148 0.11,-0.12 0.11,-0.092C0.11,-0.081 0.11,-0.07 0.111,-0.06C0.111,-0.049 0.112,-0.037 0.114,-0.026C0.117,-0.016 0.114,-0.008 0.105,-0.002C0.097,0.001 0.089,-0.001 0.081,-0.01C0.078,-0.013 0.075,-0.017 0.074,-0.022C0.071,-0.029 0.069,-0.037 0.068,-0.045C0.066,-0.053 0.064,-0.061 0.063,-0.068C0.06,-0.093 0.058,-0.118 0.056,-0.142C0.053,-0.166 0.051,-0.19 0.05,-0.215C0.049,-0.237 0.048,-0.259 0.046,-0.281C0.044,-0.302 0.042,-0.324 0.041,-0.346C0.04,-0.371 0.039,-0.397 0.038,-0.423C0.037,-0.448 0.039,-0.474 0.044,-0.499C0.045,-0.504 0.046,-0.509 0.048,-0.514C0.05,-0.518 0.052,-0.522 0.054,-0.526C0.061,-0.537 0.07,-0.541 0.08,-0.539C0.091,-0.538 0.099,-0.532 0.102,-0.52C0.105,-0.511 0.108,-0.503 0.109,-0.494C0.11,-0.485 0.11,-0.475 0.11,-0.466C0.111,-0.441 0.111,-0.417 0.111,-0.393C0.11,-0.368 0.109,-0.344 0.108,-0.319L0.108,-0.259Z" style="fill-rule:nonzero;"/>
                </g>
            </g>
            <g transform="matrix(4.16667,0,0,4.16667,0,0)">
                <g transform="matrix(17.9619,0,0,18,472.125,1795.92)">
                    <path d="M0.108,-0.259C0.107,-0.231 0.107,-0.203 0.108,-0.176C0.109,-0.148 0.11,-0.12 0.11,-0.092C0.11,-0.081 0.11,-0.07 0.111,-0.06C0.111,-0.049 0.112,-0.037 0.114,-0.026C0.117,-0.016 0.114,-0.008 0.105,-0.002C0.097,0.001 0.089,-0.001 0.081,-0.01C0.078,-0.013 0.075,-0.017 0.074,-0.022C0.071,-0.029 0.069,-0.037 0.068,-0.045C0.066,-0.053 0.064,-0.061 0.063,-0.068C0.06,-0.093 0.058,-0.118 0.056,-0.142C0.053,-0.166 0.051,-0.19 0.05,-0.215C0.049,-0.237 0.048,-0.259 0.046,-0.281C0.044,-0.302 0.042,-0.324 0.041,-0.346C0.04,-0.371 0.039,-0.397 0.038,-0.423C0.037,-0.448 0.039,-0.474 0.044,-0.499C0.045,-0.504 0.046,-0.509 0.048,-0.514C0.05,-0.518 0.052,-0.522 0.054,-0.526C0.061,-0.537 0.07,-0.541 0.08,-0.539C0.091,-0.538 0.099,-0.532 0.102,-0.52C0.105,-0.511 0.108,-0.503 0.109,-0.494C0.11,-0.485 0.11,-0.475 0.11,-0.466C0.111,-0.441 0.111,-0.417 0.111,-0.393C0.11,-0.368 0.109,-0.344 0.108,-0.319L0.108,-0.259Z" style="fill-rule:nonzero;"/>
                </g>
            </g>
            <g transform="matrix(4.16667,0,0,4.16667,0,0)">
                <g transform="matrix(17.9619,0,0,18,445.125,1783.92)">
                    <path d="M0.108,-0.259C0.107,-0.231 0.107,-0.203 0.108,-0.176C0.109,-0.148 0.11,-0.12 0.11,-0.092C0.11,-0.081 0.11,-0.07 0.111,-0.06C0.111,-0.049 0.112,-0.037 0.114,-0.026C0.117,-0.016 0.114,-0.008 0.105,-0.002C0.097,0.001 0.089,-0.001 0.081,-0.01C0.078,-0.013 0.075,-0.017 0.074,-0.022C0.071,-0.029 0.069,-0.037 0.068,-0.045C0.066,-0.053 0.064,-0.061 0.063,-0.068C0.06,-0.093 0.058,-0.118 0.056,-0.142C0.053,-0.166 0.051,-0.19 0.05,-0.215C0.049,-0.237 0.048,-0.259 0.046,-0.281C0.044,-0.302 0.042,-0.324 0.041,-0.346C0.04,-0.371 0.039,-0.397 0.038,-0.423C0.037,-0.448 0.039,-0.474 0.044,-0.499C0.045,-0.504 0.046,-0.509 0.048,-0.514C0.05,-0.518 0.052,-0.522 0.054,-0.526C0.061,-0.537 0.07,-0.541 0.08,-0.539C0.091,-0.538 0.099,-0.532 0.102,-0.52C0.105,-0.511 0.108,-0.503 0.109,-0.494C0.11,-0.485 0.11,-0.475 0.11,-0.466C0.111,-0.441 0.111,-0.417 0.111,-0.393C0.11,-0.368 0.109,-0.344 0.108,-0.319L0.108,-0.259Z" style="fill-rule:nonzero;"/>
                </g>
            </g>
            <g transform="matrix(4.16667,0,0,4.16667,0,0)">
                <g transform="matrix(17.9619,0,0,18,457.125,1795.17)">
                    <path d="M0.108,-0.259C0.107,-0.231 0.107,-0.203 0.108,-0.176C0.109,-0.148 0.11,-0.12 0.11,-0.092C0.11,-0.081 0.11,-0.07 0.111,-0.06C0.111,-0.049 0.112,-0.037 0.114,-0.026C0.117,-0.016 0.114,-0.008 0.105,-0.002C0.097,0.001 0.089,-0.001 0.081,-0.01C0.078,-0.013 0.075,-0.017 0.074,-0.022C0.071,-0.029 0.069,-0.037 0.068,-0.045C0.066,-0.053 0.064,-0.061 0.063,-0.068C0.06,-0.093 0.058,-0.118 0.056,-0.142C0.053,-0.166 0.051,-0.19 0.05,-0.215C0.049,-0.237 0.048,-0.259 0.046,-0.281C0.044,-0.302 0.042,-0.324 0.041,-0.346C0.04,-0.371 0.039,-0.397 0.038,-0.423C0.037,-0.448 0.039,-0.474 0.044,-0.499C0.045,-0.504 0.046,-0.509 0.048,-0.514C0.05,-0.518 0.052,-0.522 0.054,-0.526C0.061,-0.537 0.07,-0.541 0.08,-0.539C0.091,-0.538 0.099,-0.532 0.102,-0.52C0.105,-0.511 0.108,-0.503 0.109,-0.494C0.11,-0.485 0.11,-0.475 0.11,-0.466C0.111,-0.441 0.111,-0.417 0.111,-0.393C0.11,-0.368 0.109,-0.344 0.108,-0.319L0.108,-0.259Z" style="fill-rule:nonzero;"/>
                </g>
            </g>
            <g transform="matrix(4.16667,0,0,4.16667,0,0)">
                <g transform="matrix(17.9619,0,0,18,418.125,1763.67)">
                    <path d="M0.108,-0.259C0.107,-0.231 0.107,-0.203 0.108,-0.176C0.109,-0.148 0.11,-0.12 0.11,-0.092C0.11,-0.081 0.11,-0.07 0.111,-0.06C0.111,-0.049 0.112,-0.037 0.114,-0.026C0.117,-0.016 0.114,-0.008 0.105,-0.002C0.097,0.001 0.089,-0.001 0.081,-0.01C0.078,-0.013 0.075,-0.017 0.074,-0.022C0.071,-0.029 0.069,-0.037 0.068,-0.045C0.066,-0.053 0.064,-0.061 0.063,-0.068C0.06,-0.093 0.058,-0.118 0.056,-0.142C0.053,-0.166 0.051,-0.19 0.05,-0.215C0.049,-0.237 0.048,-0.259 0.046,-0.281C0.044,-0.302 0.042,-0.324 0.041,-0.346C0.04,-0.371 0.039,-0.397 0.038,-0.423C0.037,-0.448 0.039,-0.474 0.044,-0.499C0.045,-0.504 0.046,-0.509 0.048,-0.514C0.05,-0.518 0.052,-0.522 0.054,-0.526C0.061,-0.537 0.07,-0.541 0.08,-0.539C0.091,-0.538 0.099,-0.532 0.102,-0.52C0.105,-0.511 0.108,-0.503 0.109,-0.494C0.11,-0.485 0.11,-0.475 0.11,-0.466C0.111,-0.441 0.111,-0.417 0.111,-0.393C0.11,-0.368 0.109,-0.344 0.108,-0.319L0.108,-0.259Z" style="fill-rule:nonzero;"/>
                </g>
            </g>
            <g transform="matrix(4.16667,0,0,4.16667,0,0)">
                <g transform="matrix(17.9619,0,0,18,430.875,1778.67)">
                    <path d="M0.108,-0.259C0.107,-0.231 0.107,-0.203 0.108,-0.176C0.109,-0.148 0.11,-0.12 0.11,-0.092C0.11,-0.081 0.11,-0.07 0.111,-0.06C0.111,-0.049 0.112,-0.037 0.114,-0.026C0.117,-0.016 0.114,-0.008 0.105,-0.002C0.097,0.001 0.089,-0.001 0.081,-0.01C0.078,-0.013 0.075,-0.017 0.074,-0.022C0.071,-0.029 0.069,-0.037 0.068,-0.045C0.066,-0.053 0.064,-0.061 0.063,-0.068C0.06,-0.093 0.058,-0.118 0.056,-0.142C0.053,-0.166 0.051,-0.19 0.05,-0.215C0.049,-0.237 0.048,-0.259 0.046,-0.281C0.044,-0.302 0.042,-0.324 0.041,-0.346C0.04,-0.371 0.039,-0.397 0.038,-0.423C0.037,-0.448 0.039,-0.474 0.044,-0.499C0.045,-0.504 0.046,-0.509 0.048,-0.514C0.05,-0.518 0.052,-0.522 0.054,-0.526C0.061,-0.537 0.07,-0.541 0.08,-0.539C0.091,-0.538 0.099,-0.532 0.102,-0.52C0.105,-0.511 0.108,-0.503 0.109,-0.494C0.11,-0.485 0.11,-0.475 0.11,-0.466C0.111,-0.441 0.111,-0.417 0.111,-0.393C0.11,-0.368 0.109,-0.344 0.108,-0.319L0.108,-0.259Z" style="fill-rule:nonzero;"/>
                </g>
            </g>
            <g transform="matrix(4.16667,0,0,4.16667,0,0)">
                <g transform="matrix(17.9619,0,0,18,445.125,1766.67)">
                    <path d="M0.108,-0.259C0.107,-0.231 0.107,-0.203 0.108,-0.176C0.109,-0.148 0.11,-0.12 0.11,-0.092C0.11,-0.081 0.11,-0.07 0.111,-0.06C0.111,-0.049 0.112,-0.037 0.114,-0.026C0.117,-0.016 0.114,-0.008 0.105,-0.002C0.097,0.001 0.089,-0.001 0.081,-0.01C0.078,-0.013 0.075,-0.017 0.074,-0.022C0.071,-0.029 0.069,-0.037 0.068,-0.045C0.066,-0.053 0.064,-0.061 0.063,-0.068C0.06,-0.093 0.058,-0.118 0.056,-0.142C0.053,-0.166 0.051,-0.19 0.05,-0.215C0.049,-0.237 0.048,-0.259 0.046,-0.281C0.044,-0.302 0.042,-0.324 0.041,-0.346C0.04,-0.371 0.039,-0.397 0.038,-0.423C0.037,-0.448 0.039,-0.474 0.044,-0.499C0.045,-0.504 0.046,-0.509 0.048,-0.514C0.05,-0.518 0.052,-0.522 0.054,-0.526C0.061,-0.537 0.07,-0.541 0.08,-0.539C0.091,-0.538 0.099,-0.532 0.102,-0.52C0.105,-0.511 0.108,-0.503 0.109,-0.494C0.11,-0.485 0.11,-0.475 0.11,-0.466C0.111,-0.441 0.111,-0.417 0.111,-0.393C0.11,-0.368 0.109,-0.344 0.108,-0.319L0.108,-0.259Z" style="fill-rule:nonzero;"/>
                </g>
            </g>
            <g transform="matrix(4.16667,0,0,4.16667,0,0)">
                <g transform="matrix(17.9619,0,0,18,472.125,1778.67)">
                    <path d="M0.108,-0.259C0.107,-0.231 0.107,-0.203 0.108,-0.176C0.109,-0.148 0.11,-0.12 0.11,-0.092C0.11,-0.081 0.11,-0.07 0.111,-0.06C0.111,-0.049 0.112,-0.037 0.114,-0.026C0.117,-0.016 0.114,-0.008 0.105,-0.002C0.097,0.001 0.089,-0.001 0.081,-0.01C0.078,-0.013 0.075,-0.017 0.074,-0.022C0.071,-0.029 0.069,-0.037 0.068,-0.045C0.066,-0.053 0.064,-0.061 0.063,-0.068C0.06,-0.093 0.058,-0.118 0.056,-0.142C0.053,-0.166 0.051,-0.19 0.05,-0.215C0.049,-0.237 0.048,-0.259 0.046,-0.281C0.044,-0.302 0.042,-0.324 0.041,-0.346C0.04,-0.371 0.039,-0.397 0.038,-0.423C0.037,-0.448 0.039,-0.474 0.044,-0.499C0.045,-0.504 0.046,-0.509 0.048,-0.514C0.05,-0.518 0.052,-0.522 0.054,-0.526C0.061,-0.537 0.07,-0.541 0.08,-0.539C0.091,-0.538 0.099,-0.532 0.102,-0.52C0.105,-0.511 0.108,-0.503 0.109,-0.494C0.11,-0.485 0.11,-0.475 0.11,-0.466C0.111,-0.441 0.111,-0.417 0.111,-0.393C0.11,-0.368 0.109,-0.344 0.108,-0.319L0.108,-0.259Z" style="fill-rule:nonzero;"/>
                </g>
            </g>
            <g transform="matrix(4.16667,0,0,4.16667,0,0)">
                <g transform="matrix(17.9619,0,0,18,377.625,1813.92)">
                    <path d="M0.108,-0.259C0.107,-0.231 0.107,-0.203 0.108,-0.176C0.109,-0.148 0.11,-0.12 0.11,-0.092C0.11,-0.081 0.11,-0.07 0.111,-0.06C0.111,-0.049 0.112,-0.037 0.114,-0.026C0.117,-0.016 0.114,-0.008 0.105,-0.002C0.097,0.001 0.089,-0.001 0.081,-0.01C0.078,-0.013 0.075,-0.017 0.074,-0.022C0.071,-0.029 0.069,-0.037 0.068,-0.045C0.066,-0.053 0.064,-0.061 0.063,-0.068C0.06,-0.093 0.058,-0.118 0.056,-0.142C0.053,-0.166 0.051,-0.19 0.05,-0.215C0.049,-0.237 0.048,-0.259 0.046,-0.281C0.044,-0.302 0.042,-0.324 0.041,-0.346C0.04,-0.371 0.039,-0.397 0.038,-0.423C0.037,-0.448 0.039,-0.474 0.044,-0.499C0.045,-0.504 0.046,-0.509 0.048,-0.514C0.05,-0.518 0.052,-0.522 0.054,-0.526C0.061,-0.537 0.07,-0.541 0.08,-0.539C0.091,-0.538 0.099,-0.532 0.102,-0.52C0.105,-0.511 0.108,-0.503 0.109,-0.494C0.11,-0.485 0.11,-0.475 0.11,-0.466C0.111,-0.441 0.111,-0.417 0.111,-0.393C0.11,-0.368 0.109,-0.344 0.108,-0.319L0.108,-0.259Z" style="fill-rule:nonzero;"/>
                </g>
            </g>
            <g transform="matrix(4.16667,0,0,4.16667,0,0)">
                <g transform="matrix(17.9619,0,0,18,457.125,1777.92)">
                    <path d="M0.108,-0.259C0.107,-0.231 0.107,-0.203 0.108,-0.176C0.109,-0.148 0.11,-0.12 0.11,-0.092C0.11,-0.081 0.11,-0.07 0.111,-0.06C0.111,-0.049 0.112,-0.037 0.114,-0.026C0.117,-0.016 0.114,-0.008 0.105,-0.002C0.097,0.001 0.089,-0.001 0.081,-0.01C0.078,-0.013 0.075,-0.017 0.074,-0.022C0.071,-0.029 0.069,-0.037 0.068,-0.045C0.066,-0.053 0.064,-0.061 0.063,-0.068C0.06,-0.093 0.058,-0.118 0.056,-0.142C0.053,-0.166 0.051,-0.19 0.05,-0.215C0.049,-0.237 0.048,-0.259 0.046,-0.281C0.044,-0.302 0.042,-0.324 0.041,-0.346C0.04,-0.371 0.039,-0.397 0.038,-0.423C0.037,-0.448 0.039,-0.474 0.044,-0.499C0.045,-0.504 0.046,-0.509 0.048,-0.514C0.05,-0.518 0.052,-0.522 0.054,-0.526C0.061,-0.537 0.07,-0.541 0.08,-0.539C0.091,-0.538 0.099,-0.532 0.102,-0.52C0.105,-0.511 0.108,-0.503 0.109,-0.494C0.11,-0.485 0.11,-0.475 0.11,-0.466C0.111,-0.441 0.111,-0.417 0.111,-0.393C0.11,-0.368 0.109,-0.344 0.108,-0.319L0.108,-0.259Z" style="fill-rule:nonzero;"/>
                </g>
            </g>
            <g transform="matrix(4.16667,0,0,4.16667,0,0)">
                <g transform="matrix(17.9619,0,0,18,390.375,1809.42)">
                    <path d="M0.108,-0.259C0.107,-0.231 0.107,-0.203 0.108,-0.176C0.109,-0.148 0.11,-0.12 0.11,-0.092C0.11,-0.081 0.11,-0.07 0.111,-0.06C0.111,-0.049 0.112,-0.037 0.114,-0.026C0.117,-0.016 0.114,-0.008 0.105,-0.002C0.097,0.001 0.089,-0.001 0.081,-0.01C0.078,-0.013 0.075,-0.017 0.074,-0.022C0.071,-0.029 0.069,-0.037 0.068,-0.045C0.066,-0.053 0.064,-0.061 0.063,-0.068C0.06,-0.093 0.058,-0.118 0.056,-0.142C0.053,-0.166 0.051,-0.19 0.05,-0.215C0.049,-0.237 0.048,-0.259 0.046,-0.281C0.044,-0.302 0.042,-0.324 0.041,-0.346C0.04,-0.371 0.039,-0.397 0.038,-0.423C0.037,-0.448 0.039,-0.474 0.044,-0.499C0.045,-0.504 0.046,-0.509 0.048,-0.514C0.05,-0.518 0.052,-0.522 0.054,-0.526C0.061,-0.537 0.07,-0.541 0.08,-0.539C0.091,-0.538 0.099,-0.532 0.102,-0.52C0.105,-0.511 0.108,-0.503 0.109,-0.494C0.11,-0.485 0.11,-0.475 0.11,-0.466C0.111,-0.441 0.111,-0.417 0.111,-0.393C0.11,-0.368 0.109,-0.344 0.108,-0.319L0.108,-0.259Z" style="fill-rule:nonzero;"/>
                </g>
            </g>
            <g transform="matrix(4.16667,0,0,4.16667,0,0)">
                <g transform="matrix(17.9619,0,0,18,377.625,1827.42)">
                    <path d="M0.108,-0.259C0.107,-0.231 0.107,-0.203 0.108,-0.176C0.109,-0.148 0.11,-0.12 0.11,-0.092C0.11,-0.081 0.11,-0.07 0.111,-0.06C0.111,-0.049 0.112,-0.037 0.114,-0.026C0.117,-0.016 0.114,-0.008 0.105,-0.002C0.097,0.001 0.089,-0.001 0.081,-0.01C0.078,-0.013 0.075,-0.017 0.074,-0.022C0.071,-0.029 0.069,-0.037 0.068,-0.045C0.066,-0.053 0.064,-0.061 0.063,-0.068C0.06,-0.093 0.058,-0.118 0.056,-0.142C0.053,-0.166 0.051,-0.19 0.05,-0.215C0.049,-0.237 0.048,-0.259 0.046,-0.281C0.044,-0.302 0.042,-0.324 0.041,-0.346C0.04,-0.371 0.039,-0.397 0.038,-0.423C0.037,-0.448 0.039,-0.474 0.044,-0.499C0.045,-0.504 0.046,-0.509 0.048,-0.514C0.05,-0.518 0.052,-0.522 0.054,-0.526C0.061,-0.537 0.07,-0.541 0.08,-0.539C0.091,-0.538 0.099,-0.532 0.102,-0.52C0.105,-0.511 0.108,-0.503 0.109,-0.494C0.11,-0.485 0.11,-0.475 0.11,-0.466C0.111,-0.441 0.111,-0.417 0.111,-0.393C0.11,-0.368 0.109,-0.344 0.108,-0.319L0.108,-0.259Z" style="fill-rule:nonzero;"/>
                </g>
            </g>
            <g transform="matrix(4.16667,0,0,4.16667,0,0)">
                <g transform="matrix(17.9619,0,0,18,391.125,1856.67)">
                    <path d="M0.108,-0.259C0.107,-0.231 0.107,-0.203 0.108,-0.176C0.109,-0.148 0.11,-0.12 0.11,-0.092C0.11,-0.081 0.11,-0.07 0.111,-0.06C0.111,-0.049 0.112,-0.037 0.114,-0.026C0.117,-0.016 0.114,-0.008 0.105,-0.002C0.097,0.001 0.089,-0.001 0.081,-0.01C0.078,-0.013 0.075,-0.017 0.074,-0.022C0.071,-0.029 0.069,-0.037 0.068,-0.045C0.066,-0.053 0.064,-0.061 0.063,-0.068C0.06,-0.093 0.058,-0.118 0.056,-0.142C0.053,-0.166 0.051,-0.19 0.05,-0.215C0.049,-0.237 0.048,-0.259 0.046,-0.281C0.044,-0.302 0.042,-0.324 0.041,-0.346C0.04,-0.371 0.039,-0.397 0.038,-0.423C0.037,-0.448 0.039,-0.474 0.044,-0.499C0.045,-0.504 0.046,-0.509 0.048,-0.514C0.05,-0.518 0.052,-0.522 0.054,-0.526C0.061,-0.537 0.07,-0.541 0.08,-0.539C0.091,-0.538 0.099,-0.532 0.102,-0.52C0.105,-0.511 0.108,-0.503 0.109,-0.494C0.11,-0.485 0.11,-0.475 0.11,-0.466C0.111,-0.441 0.111,-0.417 0.111,-0.393C0.11,-0.368 0.109,-0.344 0.108,-0.319L0.108,-0.259Z" style="fill-rule:nonzero;"/>
                </g>
            </g>
            <g transform="matrix(4.16667,0,0,4.16667,0,0)">
                <g transform="matrix(17.9619,0,0,18,403.875,1829.67)">
                    <path d="M0.108,-0.259C0.107,-0.231 0.107,-0.203 0.108,-0.176C0.109,-0.148 0.11,-0.12 0.11,-0.092C0.11,-0.081 0.11,-0.07 0.111,-0.06C0.111,-0.049 0.112,-0.037 0.114,-0.026C0.117,-0.016 0.114,-0.008 0.105,-0.002C0.097,0.001 0.089,-0.001 0.081,-0.01C0.078,-0.013 0.075,-0.017 0.074,-0.022C0.071,-0.029 0.069,-0.037 0.068,-0.045C0.066,-0.053 0.064,-0.061 0.063,-0.068C0.06,-0.093 0.058,-0.118 0.056,-0.142C0.053,-0.166 0.051,-0.19 0.05,-0.215C0.049,-0.237 0.048,-0.259 0.046,-0.281C0.044,-0.302 0.042,-0.324 0.041,-0.346C0.04,-0.371 0.039,-0.397 0.038,-0.423C0.037,-0.448 0.039,-0.474 0.044,-0.499C0.045,-0.504 0.046,-0.509 0.048,-0.514C0.05,-0.518 0.052,-0.522 0.054,-0.526C0.061,-0.537 0.07,-0.541 0.08,-0.539C0.091,-0.538 0.099,-0.532 0.102,-0.52C0.105,-0.511 0.108,-0.503 0.109,-0.494C0.11,-0.485 0.11,-0.475 0.11,-0.466C0.111,-0.441 0.111,-0.417 0.111,-0.393C0.11,-0.368 0.109,-0.344 0.108,-0.319L0.108,-0.259Z" style="fill-rule:nonzero;"/>
                </g>
                <g transform="matrix(17.9619,0,0,18,418.125,1829.67)">
                    <path d="M0.108,-0.259C0.107,-0.231 0.107,-0.203 0.108,-0.176C0.109,-0.148 0.11,-0.12 0.11,-0.092C0.11,-0.081 0.11,-0.07 0.111,-0.06C0.111,-0.049 0.112,-0.037 0.114,-0.026C0.117,-0.016 0.114,-0.008 0.105,-0.002C0.097,0.001 0.089,-0.001 0.081,-0.01C0.078,-0.013 0.075,-0.017 0.074,-0.022C0.071,-0.029 0.069,-0.037 0.068,-0.045C0.066,-0.053 0.064,-0.061 0.063,-0.068C0.06,-0.093 0.058,-0.118 0.056,-0.142C0.053,-0.166 0.051,-0.19 0.05,-0.215C0.049,-0.237 0.048,-0.259 0.046,-0.281C0.044,-0.302 0.042,-0.324 0.041,-0.346C0.04,-0.371 0.039,-0.397 0.038,-0.423C0.037,-0.448 0.039,-0.474 0.044,-0.499C0.045,-0.504 0.046,-0.509 0.048,-0.514C0.05,-0.518 0.052,-0.522 0.054,-0.526C0.061,-0.537 0.07,-0.541 0.08,-0.539C0.091,-0.538 0.099,-0.532 0.102,-0.52C0.105,-0.511 0.108,-0.503 0.109,-0.494C0.11,-0.485 0.11,-0.475 0.11,-0.466C0.111,-0.441 0.111,-0.417 0.111,-0.393C0.11,-0.368 0.109,-0.344 0.108,-0.319L0.108,-0.259Z" style="fill-rule:nonzero;"/>
                </g>
            </g>
            <g transform="matrix(4.16667,0,0,4.16667,0,0)">
                <g transform="matrix(17.9619,0,0,18,391.5,1871.67)">
                    <path d="M0.108,-0.259C0.107,-0.231 0.107,-0.203 0.108,-0.176C0.109,-0.148 0.11,-0.12 0.11,-0.092C0.11,-0.081 0.11,-0.07 0.111,-0.06C0.111,-0.049 0.112,-0.037 0.114,-0.026C0.117,-0.016 0.114,-0.008 0.105,-0.002C0.097,0.001 0.089,-0.001 0.081,-0.01C0.078,-0.013 0.075,-0.017 0.074,-0.022C0.071,-0.029 0.069,-0.037 0.068,-0.045C0.066,-0.053 0.064,-0.061 0.063,-0.068C0.06,-0.093 0.058,-0.118 0.056,-0.142C0.053,-0.166 0.051,-0.19 0.05,-0.215C0.049,-0.237 0.048,-0.259 0.046,-0.281C0.044,-0.302 0.042,-0.324 0.041,-0.346C0.04,-0.371 0.039,-0.397 0.038,-0.423C0.037,-0.448 0.039,-0.474 0.044,-0.499C0.045,-0.504 0.046,-0.509 0.048,-0.514C0.05,-0.518 0.052,-0.522 0.054,-0.526C0.061,-0.537 0.07,-0.541 0.08,-0.539C0.091,-0.538 0.099,-0.532 0.102,-0.52C0.105,-0.511 0.108,-0.503 0.109,-0.494C0.11,-0.485 0.11,-0.475 0.11,-0.466C0.111,-0.441 0.111,-0.417 0.111,-0.393C0.11,-0.368 0.109,-0.344 0.108,-0.319L0.108,-0.259Z" style="fill-rule:nonzero;"/>
                </g>
            </g>
            <g transform="matrix(4.16667,0,0,4.16667,0,0)">
                <g transform="matrix(17.9619,0,0,18,485.25,1784.67)">
                    <path d="M0.108,-0.259C0.107,-0.231 0.107,-0.203 0.108,-0.176C0.109,-0.148 0.11,-0.12 0.11,-0.092C0.11,-0.081 0.11,-0.07 0.111,-0.06C0.111,-0.049 0.112,-0.037 0.114,-0.026C0.117,-0.016 0.114,-0.008 0.105,-0.002C0.097,0.001 0.089,-0.001 0.081,-0.01C0.078,-0.013 0.075,-0.017 0.074,-0.022C0.071,-0.029 0.069,-0.037 0.068,-0.045C0.066,-0.053 0.064,-0.061 0.063,-0.068C0.06,-0.093 0.058,-0.118 0.056,-0.142C0.053,-0.166 0.051,-0.19 0.05,-0.215C0.049,-0.237 0.048,-0.259 0.046,-0.281C0.044,-0.302 0.042,-0.324 0.041,-0.346C0.04,-0.371 0.039,-0.397 0.038,-0.423C0.037,-0.448 0.039,-0.474 0.044,-0.499C0.045,-0.504 0.046,-0.509 0.048,-0.514C0.05,-0.518 0.052,-0.522 0.054,-0.526C0.061,-0.537 0.07,-0.541 0.08,-0.539C0.091,-0.538 0.099,-0.532 0.102,-0.52C0.105,-0.511 0.108,-0.503 0.109,-0.494C0.11,-0.485 0.11,-0.475 0.11,-0.466C0.111,-0.441 0.111,-0.417 0.111,-0.393C0.11,-0.368 0.109,-0.344 0.108,-0.319L0.108,-0.259Z" style="fill-rule:nonzero;"/>
                </g>
            </g>
            <g transform="matrix(4.16667,0,0,4.16667,0,0)">
                <g transform="matrix(17.9619,0,0,18,403.875,1795.92)">
                    <path d="M0.108,-0.259C0.107,-0.231 0.107,-0.203 0.108,-0.176C0.109,-0.148 0.11,-0.12 0.11,-0.092C0.11,-0.081 0.11,-0.07 0.111,-0.06C0.111,-0.049 0.112,-0.037 0.114,-0.026C0.117,-0.016 0.114,-0.008 0.105,-0.002C0.097,0.001 0.089,-0.001 0.081,-0.01C0.078,-0.013 0.075,-0.017 0.074,-0.022C0.071,-0.029 0.069,-0.037 0.068,-0.045C0.066,-0.053 0.064,-0.061 0.063,-0.068C0.06,-0.093 0.058,-0.118 0.056,-0.142C0.053,-0.166 0.051,-0.19 0.05,-0.215C0.049,-0.237 0.048,-0.259 0.046,-0.281C0.044,-0.302 0.042,-0.324 0.041,-0.346C0.04,-0.371 0.039,-0.397 0.038,-0.423C0.037,-0.448 0.039,-0.474 0.044,-0.499C0.045,-0.504 0.046,-0.509 0.048,-0.514C0.05,-0.518 0.052,-0.522 0.054,-0.526C0.061,-0.537 0.07,-0.541 0.08,-0.539C0.091,-0.538 0.099,-0.532 0.102,-0.52C0.105,-0.511 0.108,-0.503 0.109,-0.494C0.11,-0.485 0.11,-0.475 0.11,-0.466C0.111,-0.441 0.111,-0.417 0.111,-0.393C0.11,-0.368 0.109,-0.344 0.108,-0.319L0.108,-0.259Z" style="fill-rule:nonzero;"/>
                </g>
                <g transform="matrix(17.9619,0,0,18,418.125,1795.92)">
                    <path d="M0.108,-0.259C0.107,-0.231 0.107,-0.203 0.108,-0.176C0.109,-0.148 0.11,-0.12 0.11,-0.092C0.11,-0.081 0.11,-0.07 0.111,-0.06C0.111,-0.049 0.112,-0.037 0.114,-0.026C0.117,-0.016 0.114,-0.008 0.105,-0.002C0.097,0.001 0.089,-0.001 0.081,-0.01C0.078,-0.013 0.075,-0.017 0.074,-0.022C0.071,-0.029 0.069,-0.037 0.068,-0.045C0.066,-0.053 0.064,-0.061 0.063,-0.068C0.06,-0.093 0.058,-0.118 0.056,-0.142C0.053,-0.166 0.051,-0.19 0.05,-0.215C0.049,-0.237 0.048,-0.259 0.046,-0.281C0.044,-0.302 0.042,-0.324 0.041,-0.346C0.04,-0.371 0.039,-0.397 0.038,-0.423C0.037,-0.448 0.039,-0.474 0.044,-0.499C0.045,-0.504 0.046,-0.509 0.048,-0.514C0.05,-0.518 0.052,-0.522 0.054,-0.526C0.061,-0.537 0.07,-0.541 0.08,-0.539C0.091,-0.538 0.099,-0.532 0.102,-0.52C0.105,-0.511 0.108,-0.503 0.109,-0.494C0.11,-0.485 0.11,-0.475 0.11,-0.466C0.111,-0.441 0.111,-0.417 0.111,-0.393C0.11,-0.368 0.109,-0.344 0.108,-0.319L0.108,-0.259Z" style="fill-rule:nonzero;"/>
                </g>
            </g>
            <g transform="matrix(4.16667,0,0,4.16667,0,0)">
                <g transform="matrix(17.9619,0,0,18,377.625,1753.17)">
                    <path d="M0.108,-0.259C0.107,-0.231 0.107,-0.203 0.108,-0.176C0.109,-0.148 0.11,-0.12 0.11,-0.092C0.11,-0.081 0.11,-0.07 0.111,-0.06C0.111,-0.049 0.112,-0.037 0.114,-0.026C0.117,-0.016 0.114,-0.008 0.105,-0.002C0.097,0.001 0.089,-0.001 0.081,-0.01C0.078,-0.013 0.075,-0.017 0.074,-0.022C0.071,-0.029 0.069,-0.037 0.068,-0.045C0.066,-0.053 0.064,-0.061 0.063,-0.068C0.06,-0.093 0.058,-0.118 0.056,-0.142C0.053,-0.166 0.051,-0.19 0.05,-0.215C0.049,-0.237 0.048,-0.259 0.046,-0.281C0.044,-0.302 0.042,-0.324 0.041,-0.346C0.04,-0.371 0.039,-0.397 0.038,-0.423C0.037,-0.448 0.039,-0.474 0.044,-0.499C0.045,-0.504 0.046,-0.509 0.048,-0.514C0.05,-0.518 0.052,-0.522 0.054,-0.526C0.061,-0.537 0.07,-0.541 0.08,-0.539C0.091,-0.538 0.099,-0.532 0.102,-0.52C0.105,-0.511 0.108,-0.503 0.109,-0.494C0.11,-0.485 0.11,-0.475 0.11,-0.466C0.111,-0.441 0.111,-0.417 0.111,-0.393C0.11,-0.368 0.109,-0.344 0.108,-0.319L0.108,-0.259Z" style="fill-rule:nonzero;"/>
                </g>
            </g>
            <g transform="matrix(4.16667,0,0,4.16667,0,0)">
                <g transform="matrix(17.9619,0,0,18,430.875,1810.92)">
                    <path d="M0.108,-0.259C0.107,-0.231 0.107,-0.203 0.108,-0.176C0.109,-0.148 0.11,-0.12 0.11,-0.092C0.11,-0.081 0.11,-0.07 0.111,-0.06C0.111,-0.049 0.112,-0.037 0.114,-0.026C0.117,-0.016 0.114,-0.008 0.105,-0.002C0.097,0.001 0.089,-0.001 0.081,-0.01C0.078,-0.013 0.075,-0.017 0.074,-0.022C0.071,-0.029 0.069,-0.037 0.068,-0.045C0.066,-0.053 0.064,-0.061 0.063,-0.068C0.06,-0.093 0.058,-0.118 0.056,-0.142C0.053,-0.166 0.051,-0.19 0.05,-0.215C0.049,-0.237 0.048,-0.259 0.046,-0.281C0.044,-0.302 0.042,-0.324 0.041,-0.346C0.04,-0.371 0.039,-0.397 0.038,-0.423C0.037,-0.448 0.039,-0.474 0.044,-0.499C0.045,-0.504 0.046,-0.509 0.048,-0.514C0.05,-0.518 0.052,-0.522 0.054,-0.526C0.061,-0.537 0.07,-0.541 0.08,-0.539C0.091,-0.538 0.099,-0.532 0.102,-0.52C0.105,-0.511 0.108,-0.503 0.109,-0.494C0.11,-0.485 0.11,-0.475 0.11,-0.466C0.111,-0.441 0.111,-0.417 0.111,-0.393C0.11,-0.368 0.109,-0.344 0.108,-0.319L0.108,-0.259Z" style="fill-rule:nonzero;"/>
                </g>
            </g>
            <g transform="matrix(4.16667,0,0,4.16667,0,0)">
                <g transform="matrix(17.9619,0,0,18,472.125,1810.92)">
                    <path d="M0.108,-0.259C0.107,-0.231 0.107,-0.203 0.108,-0.176C0.109,-0.148 0.11,-0.12 0.11,-0.092C0.11,-0.081 0.11,-0.07 0.111,-0.06C0.111,-0.049 0.112,-0.037 0.114,-0.026C0.117,-0.016 0.114,-0.008 0.105,-0.002C0.097,0.001 0.089,-0.001 0.081,-0.01C0.078,-0.013 0.075,-0.017 0.074,-0.022C0.071,-0.029 0.069,-0.037 0.068,-0.045C0.066,-0.053 0.064,-0.061 0.063,-0.068C0.06,-0.093 0.058,-0.118 0.056,-0.142C0.053,-0.166 0.051,-0.19 0.05,-0.215C0.049,-0.237 0.048,-0.259 0.046,-0.281C0.044,-0.302 0.042,-0.324 0.041,-0.346C0.04,-0.371 0.039,-0.397 0.038,-0.423C0.037,-0.448 0.039,-0.474 0.044,-0.499C0.045,-0.504 0.046,-0.509 0.048,-0.514C0.05,-0.518 0.052,-0.522 0.054,-0.526C0.061,-0.537 0.07,-0.541 0.08,-0.539C0.091,-0.538 0.099,-0.532 0.102,-0.52C0.105,-0.511 0.108,-0.503 0.109,-0.494C0.11,-0.485 0.11,-0.475 0.11,-0.466C0.111,-0.441 0.111,-0.417 0.111,-0.393C0.11,-0.368 0.109,-0.344 0.108,-0.319L0.108,-0.259Z" style="fill-rule:nonzero;"/>
                </g>
            </g>
            <g transform="matrix(4.16667,0,0,4.16667,0,0)">
                <g transform="matrix(17.9619,0,0,18,456,1761.42)">
                    <path d="M0.108,-0.259C0.107,-0.231 0.107,-0.203 0.108,-0.176C0.109,-0.148 0.11,-0.12 0.11,-0.092C0.11,-0.081 0.11,-0.07 0.111,-0.06C0.111,-0.049 0.112,-0.037 0.114,-0.026C0.117,-0.016 0.114,-0.008 0.105,-0.002C0.097,0.001 0.089,-0.001 0.081,-0.01C0.078,-0.013 0.075,-0.017 0.074,-0.022C0.071,-0.029 0.069,-0.037 0.068,-0.045C0.066,-0.053 0.064,-0.061 0.063,-0.068C0.06,-0.093 0.058,-0.118 0.056,-0.142C0.053,-0.166 0.051,-0.19 0.05,-0.215C0.049,-0.237 0.048,-0.259 0.046,-0.281C0.044,-0.302 0.042,-0.324 0.041,-0.346C0.04,-0.371 0.039,-0.397 0.038,-0.423C0.037,-0.448 0.039,-0.474 0.044,-0.499C0.045,-0.504 0.046,-0.509 0.048,-0.514C0.05,-0.518 0.052,-0.522 0.054,-0.526C0.061,-0.537 0.07,-0.541 0.08,-0.539C0.091,-0.538 0.099,-0.532 0.102,-0.52C0.105,-0.511 0.108,-0.503 0.109,-0.494C0.11,-0.485 0.11,-0.475 0.11,-0.466C0.111,-0.441 0.111,-0.417 0.111,-0.393C0.11,-0.368 0.109,-0.344 0.108,-0.319L0.108,-0.259Z" style="fill-rule:nonzero;"/>
                </g>
            </g>
            <g transform="matrix(4.16667,0,0,4.16667,0,0)">
                <g transform="matrix(17.9619,0,0,18,391.125,1793.67)">
                    <path d="M0.108,-0.259C0.107,-0.231 0.107,-0.203 0.108,-0.176C0.109,-0.148 0.11,-0.12 0.11,-0.092C0.11,-0.081 0.11,-0.07 0.111,-0.06C0.111,-0.049 0.112,-0.037 0.114,-0.026C0.117,-0.016 0.114,-0.008 0.105,-0.002C0.097,0.001 0.089,-0.001 0.081,-0.01C0.078,-0.013 0.075,-0.017 0.074,-0.022C0.071,-0.029 0.069,-0.037 0.068,-0.045C0.066,-0.053 0.064,-0.061 0.063,-0.068C0.06,-0.093 0.058,-0.118 0.056,-0.142C0.053,-0.166 0.051,-0.19 0.05,-0.215C0.049,-0.237 0.048,-0.259 0.046,-0.281C0.044,-0.302 0.042,-0.324 0.041,-0.346C0.04,-0.371 0.039,-0.397 0.038,-0.423C0.037,-0.448 0.039,-0.474 0.044,-0.499C0.045,-0.504 0.046,-0.509 0.048,-0.514C0.05,-0.518 0.052,-0.522 0.054,-0.526C0.061,-0.537 0.07,-0.541 0.08,-0.539C0.091,-0.538 0.099,-0.532 0.102,-0.52C0.105,-0.511 0.108,-0.503 0.109,-0.494C0.11,-0.485 0.11,-0.475 0.11,-0.466C0.111,-0.441 0.111,-0.417 0.111,-0.393C0.11,-0.368 0.109,-0.344 0.108,-0.319L0.108,-0.259Z" style="fill-rule:nonzero;"/>
                </g>
            </g>
            <g transform="matrix(4.16667,0,0,4.16667,0,0)">
                <g transform="matrix(17.9619,0,0,18,403.875,1848.42)">
                    <path d="M0.108,-0.259C0.107,-0.231 0.107,-0.203 0.108,-0.176C0.109,-0.148 0.11,-0.12 0.11,-0.092C0.11,-0.081 0.11,-0.07 0.111,-0.06C0.111,-0.049 0.112,-0.037 0.114,-0.026C0.117,-0.016 0.114,-0.008 0.105,-0.002C0.097,0.001 0.089,-0.001 0.081,-0.01C0.078,-0.013 0.075,-0.017 0.074,-0.022C0.071,-0.029 0.069,-0.037 0.068,-0.045C0.066,-0.053 0.064,-0.061 0.063,-0.068C0.06,-0.093 0.058,-0.118 0.056,-0.142C0.053,-0.166 0.051,-0.19 0.05,-0.215C0.049,-0.237 0.048,-0.259 0.046,-0.281C0.044,-0.302 0.042,-0.324 0.041,-0.346C0.04,-0.371 0.039,-0.397 0.038,-0.423C0.037,-0.448 0.039,-0.474 0.044,-0.499C0.045,-0.504 0.046,-0.509 0.048,-0.514C0.05,-0.518 0.052,-0.522 0.054,-0.526C0.061,-0.537 0.07,-0.541 0.08,-0.539C0.091,-0.538 0.099,-0.532 0.102,-0.52C0.105,-0.511 0.108,-0.503 0.109,-0.494C0.11,-0.485 0.11,-0.475 0.11,-0.466C0.111,-0.441 0.111,-0.417 0.111,-0.393C0.11,-0.368 0.109,-0.344 0.108,-0.319L0.108,-0.259Z" style="fill-rule:nonzero;"/>
                </g>
            </g>
            <g transform="matrix(4.16667,0,0,4.16667,0,0)">
                <g transform="matrix(17.9619,0,0,18,377.625,1854.42)">
                    <path d="M0.108,-0.259C0.107,-0.231 0.107,-0.203 0.108,-0.176C0.109,-0.148 0.11,-0.12 0.11,-0.092C0.11,-0.081 0.11,-0.07 0.111,-0.06C0.111,-0.049 0.112,-0.037 0.114,-0.026C0.117,-0.016 0.114,-0.008 0.105,-0.002C0.097,0.001 0.089,-0.001 0.081,-0.01C0.078,-0.013 0.075,-0.017 0.074,-0.022C0.071,-0.029 0.069,-0.037 0.068,-0.045C0.066,-0.053 0.064,-0.061 0.063,-0.068C0.06,-0.093 0.058,-0.118 0.056,-0.142C0.053,-0.166 0.051,-0.19 0.05,-0.215C0.049,-0.237 0.048,-0.259 0.046,-0.281C0.044,-0.302 0.042,-0.324 0.041,-0.346C0.04,-0.371 0.039,-0.397 0.038,-0.423C0.037,-0.448 0.039,-0.474 0.044,-0.499C0.045,-0.504 0.046,-0.509 0.048,-0.514C0.05,-0.518 0.052,-0.522 0.054,-0.526C0.061,-0.537 0.07,-0.541 0.08,-0.539C0.091,-0.538 0.099,-0.532 0.102,-0.52C0.105,-0.511 0.108,-0.503 0.109,-0.494C0.11,-0.485 0.11,-0.475 0.11,-0.466C0.111,-0.441 0.111,-0.417 0.111,-0.393C0.11,-0.368 0.109,-0.344 0.108,-0.319L0.108,-0.259Z" style="fill-rule:nonzero;"/>
                </g>
            </g>
        </g>
    </g>
</svg>
