<?xml version="1.0" encoding="UTF-8" standalone="no"?>
<!DOCTYPE svg PUBLIC "-//W3C//DTD SVG 1.1//EN" "http://www.w3.org/Graphics/SVG/1.1/DTD/svg11.dtd">
<svg width="100%" height="100%" viewBox="0 0 957 594" version="1.1" xmlns="http://www.w3.org/2000/svg" xmlns:xlink="http://www.w3.org/1999/xlink" xml:space="preserve" xmlns:serif="http://www.serif.com/" style="fill-rule:evenodd;clip-rule:evenodd;">
    <g transform="matrix(1,0,0,1,-1641.69,-5177.36)">
        <g transform="matrix(3.125,0,0,-3.125,0,10718.7)">
            <path d="M728.687,1712.5C726.416,1712.5 724.509,1713.3 722.973,1714.89C721.437,1716.49 720.673,1718.36 720.673,1720.52C720.673,1722.33 721.111,1723.68 721.993,1724.56C722.876,1725.45 723.396,1726.66 723.552,1728.18C723.492,1729.01 723.329,1729.78 723.077,1730.51C722.825,1731.24 722.698,1731.99 722.698,1732.78C722.698,1734.44 723.158,1735.97 724.086,1737.37C725.006,1738.77 726.535,1739.91 728.665,1740.8C729.763,1741.89 730.928,1742.86 732.16,1743.72C733.384,1744.57 734.987,1745 736.968,1745C739.053,1745 740.663,1744.55 741.806,1743.63C742.942,1742.73 744.062,1741.78 745.153,1740.8C747.29,1739.91 748.819,1738.77 749.739,1737.37C750.659,1735.97 751.126,1734.44 751.126,1732.78C751.126,1731.99 751,1731.24 750.748,1730.51C750.496,1729.78 750.332,1729.02 750.266,1728.22C750.429,1726.74 750.948,1725.57 751.831,1724.69C752.714,1723.82 753.152,1722.43 753.152,1720.54C753.152,1718.37 752.38,1716.48 750.837,1714.89C749.286,1713.3 747.379,1712.5 745.109,1712.5L728.687,1712.5ZM728.687,1715.92L745.138,1715.92C746.444,1715.92 747.535,1716.37 748.411,1717.26C749.294,1718.15 749.731,1719.25 749.731,1720.55C749.731,1721.12 749.628,1721.65 749.412,1722.14C749.197,1722.63 748.915,1723.08 748.559,1723.51C747.988,1724.22 747.542,1724.99 747.223,1725.81C746.904,1726.63 746.741,1727.5 746.741,1728.43C746.741,1729.21 746.882,1729.98 747.171,1730.73C747.453,1731.48 747.594,1732.24 747.594,1733.03C747.594,1733.95 747.349,1734.77 746.852,1735.49C746.348,1736.2 745.672,1736.73 744.819,1737.09C744.24,1737.35 743.713,1737.64 743.231,1737.96C742.749,1738.29 742.318,1738.71 741.932,1739.23C741.361,1740.01 740.634,1740.6 739.743,1740.99C738.853,1741.38 737.91,1741.58 736.909,1741.58C735.914,1741.58 734.972,1741.38 734.082,1740.99C733.191,1740.6 732.456,1740.01 731.892,1739.23C731.507,1738.73 731.069,1738.3 730.586,1737.94C730.104,1737.59 729.577,1737.3 729.006,1737.09C728.153,1736.73 727.47,1736.2 726.973,1735.49C726.476,1734.77 726.223,1733.95 726.223,1733.03C726.223,1732.24 726.372,1731.48 726.654,1730.73C726.936,1729.98 727.084,1729.21 727.084,1728.43C727.084,1727.5 726.921,1726.63 726.602,1725.81C726.282,1724.99 725.837,1724.22 725.266,1723.51C724.91,1723.08 724.62,1722.63 724.413,1722.14C724.198,1721.65 724.086,1721.12 724.086,1720.55C724.086,1719.25 724.531,1718.15 725.407,1717.26C726.29,1716.37 727.381,1715.92 728.687,1715.92ZM710.41,1685L710.41,1690.33C710.41,1691.31 710.744,1692.3 711.419,1693.31C712.087,1694.31 713.044,1695.16 714.284,1695.87C717.964,1697.88 721.704,1699.42 725.503,1700.49C729.31,1701.57 733.109,1702.11 736.909,1702.11C740.523,1702.11 744.129,1701.64 747.75,1700.71C751.364,1699.78 754.903,1698.41 758.369,1696.62C759.957,1695.84 761.196,1694.9 762.087,1693.79C762.97,1692.68 763.415,1691.52 763.415,1690.33L763.415,1685L710.41,1685ZM713.831,1688.42L759.994,1688.42L759.994,1690.33C759.994,1690.85 759.779,1691.34 759.341,1691.82C758.911,1692.3 758.295,1692.76 757.501,1693.19C754.243,1694.97 750.881,1696.33 747.416,1697.27C743.943,1698.21 740.448,1698.68 736.909,1698.68C733.25,1698.68 729.674,1698.21 726.186,1697.27C722.698,1696.33 719.411,1694.97 716.324,1693.19C715.53,1692.76 714.914,1692.3 714.484,1691.82C714.046,1691.34 713.831,1690.85 713.831,1690.33L713.831,1688.42ZM736.909,1715.92L736.91,1715.92L736.91,1715.92L736.909,1715.92L736.909,1715.92Z" style="fill-rule:nonzero;"/>
        </g>
        <g transform="matrix(3.125,0,0,-3.125,0,10640)">
            <path d="M553.955,1702.25L620.049,1702.68L628.146,1702.11" style="fill:none;fill-rule:nonzero;stroke:black;stroke-width:3px;"/>
        </g>
        <g transform="matrix(3.12493,-0.0205511,0.0205511,3.12493,-34.9426,13.7315)">
            <path d="M628.145,1702.45L696.983,1702.45" style="fill:none;fill-rule:nonzero;stroke:black;stroke-width:3px;"/>
        </g>
        <g transform="matrix(3.125,0,0,-3.125,0,10728.8)">
            <path d="M553.588,1716.32L569.767,1716.32L574.888,1716.84L608.654,1716.84L622.314,1717.51L630.638,1716.72L640.638,1715.72" style="fill:none;fill-rule:nonzero;stroke:black;stroke-width:3px;"/>
        </g>
        <g transform="matrix(3.125,0,0,-3.125,0,10730.9)">
            <path d="M639.338,1716.7L684.271,1717.29L696.24,1716.6" style="fill:none;fill-rule:nonzero;stroke:black;stroke-width:3px;"/>
        </g>
        <g transform="matrix(3.125,0,0,-3.125,0,10816.9)">
            <path d="M626.158,1730.31L657.638,1730.89L670.349,1731.1L680.119,1731.1L687.576,1730.86L695.638,1730.89" style="fill:none;fill-rule:nonzero;stroke:black;stroke-width:3px;"/>
        </g>
        <g transform="matrix(4.16667,0,0,4.16667,0,0)">
            <g transform="matrix(17.9843,0,0,18,549.305,1367.67)">
                <path d="M0.336,-0.221C0.333,-0.156 0.309,-0.095 0.264,-0.038C0.256,-0.027 0.247,-0.018 0.236,-0.011C0.225,-0.003 0.213,0.003 0.2,0.007C0.174,0.013 0.149,0.01 0.125,-0.002C0.116,-0.007 0.108,-0.014 0.1,-0.022C0.092,-0.029 0.085,-0.037 0.08,-0.046C0.063,-0.073 0.051,-0.101 0.045,-0.131C0.039,-0.16 0.037,-0.189 0.039,-0.22C0.042,-0.247 0.048,-0.274 0.057,-0.299C0.066,-0.324 0.08,-0.346 0.098,-0.367C0.113,-0.384 0.132,-0.394 0.153,-0.398C0.163,-0.401 0.172,-0.401 0.18,-0.399C0.188,-0.396 0.196,-0.392 0.203,-0.386C0.205,-0.384 0.207,-0.383 0.21,-0.383C0.213,-0.382 0.216,-0.382 0.219,-0.382C0.237,-0.384 0.253,-0.381 0.268,-0.374C0.282,-0.367 0.294,-0.356 0.305,-0.341C0.317,-0.324 0.325,-0.307 0.33,-0.288C0.334,-0.269 0.336,-0.246 0.336,-0.221ZM0.194,-0.296C0.187,-0.296 0.179,-0.295 0.171,-0.293C0.164,-0.293 0.159,-0.291 0.156,-0.288C0.153,-0.285 0.15,-0.28 0.147,-0.274C0.138,-0.249 0.133,-0.225 0.133,-0.2C0.132,-0.175 0.136,-0.15 0.143,-0.125C0.147,-0.114 0.153,-0.103 0.162,-0.092C0.167,-0.087 0.17,-0.085 0.173,-0.085C0.175,-0.084 0.178,-0.086 0.183,-0.091C0.189,-0.097 0.195,-0.103 0.201,-0.11C0.206,-0.116 0.211,-0.123 0.215,-0.13C0.218,-0.138 0.222,-0.146 0.226,-0.155C0.229,-0.164 0.232,-0.172 0.234,-0.181C0.237,-0.194 0.24,-0.207 0.242,-0.22C0.244,-0.233 0.243,-0.246 0.24,-0.259C0.237,-0.273 0.232,-0.283 0.225,-0.288C0.218,-0.293 0.208,-0.296 0.194,-0.296Z" style="fill-rule:nonzero;"/>
            </g>
        </g>
        <g transform="matrix(4.16667,0,0,4.16667,0,0)">
            <g transform="matrix(17.9843,0,0,18,562.805,1351.92)">
                <path d="M0.336,-0.221C0.333,-0.156 0.309,-0.095 0.264,-0.038C0.256,-0.027 0.247,-0.018 0.236,-0.011C0.225,-0.003 0.213,0.003 0.2,0.007C0.174,0.013 0.149,0.01 0.125,-0.002C0.116,-0.007 0.108,-0.014 0.1,-0.022C0.092,-0.029 0.085,-0.037 0.08,-0.046C0.063,-0.073 0.051,-0.101 0.045,-0.131C0.039,-0.16 0.037,-0.189 0.039,-0.22C0.042,-0.247 0.048,-0.274 0.057,-0.299C0.066,-0.324 0.08,-0.346 0.098,-0.367C0.113,-0.384 0.132,-0.394 0.153,-0.398C0.163,-0.401 0.172,-0.401 0.18,-0.399C0.188,-0.396 0.196,-0.392 0.203,-0.386C0.205,-0.384 0.207,-0.383 0.21,-0.383C0.213,-0.382 0.216,-0.382 0.219,-0.382C0.237,-0.384 0.253,-0.381 0.268,-0.374C0.282,-0.367 0.294,-0.356 0.305,-0.341C0.317,-0.324 0.325,-0.307 0.33,-0.288C0.334,-0.269 0.336,-0.246 0.336,-0.221ZM0.194,-0.296C0.187,-0.296 0.179,-0.295 0.171,-0.293C0.164,-0.293 0.159,-0.291 0.156,-0.288C0.153,-0.285 0.15,-0.28 0.147,-0.274C0.138,-0.249 0.133,-0.225 0.133,-0.2C0.132,-0.175 0.136,-0.15 0.143,-0.125C0.147,-0.114 0.153,-0.103 0.162,-0.092C0.167,-0.087 0.17,-0.085 0.173,-0.085C0.175,-0.084 0.178,-0.086 0.183,-0.091C0.189,-0.097 0.195,-0.103 0.201,-0.11C0.206,-0.116 0.211,-0.123 0.215,-0.13C0.218,-0.138 0.222,-0.146 0.226,-0.155C0.229,-0.164 0.232,-0.172 0.234,-0.181C0.237,-0.194 0.24,-0.207 0.242,-0.22C0.244,-0.233 0.243,-0.246 0.24,-0.259C0.237,-0.273 0.232,-0.283 0.225,-0.288C0.218,-0.293 0.208,-0.296 0.194,-0.296Z" style="fill-rule:nonzero;"/>
            </g>
        </g>
        <g transform="matrix(4.16667,0,0,4.16667,0,0)">
            <g transform="matrix(17.9843,0,0,18,602.555,1354.92)">
                <path d="M0.336,-0.221C0.333,-0.156 0.309,-0.095 0.264,-0.038C0.256,-0.027 0.247,-0.018 0.236,-0.011C0.225,-0.003 0.213,0.003 0.2,0.007C0.174,0.013 0.149,0.01 0.125,-0.002C0.116,-0.007 0.108,-0.014 0.1,-0.022C0.092,-0.029 0.085,-0.037 0.08,-0.046C0.063,-0.073 0.051,-0.101 0.045,-0.131C0.039,-0.16 0.037,-0.189 0.039,-0.22C0.042,-0.247 0.048,-0.274 0.057,-0.299C0.066,-0.324 0.08,-0.346 0.098,-0.367C0.113,-0.384 0.132,-0.394 0.153,-0.398C0.163,-0.401 0.172,-0.401 0.18,-0.399C0.188,-0.396 0.196,-0.392 0.203,-0.386C0.205,-0.384 0.207,-0.383 0.21,-0.383C0.213,-0.382 0.216,-0.382 0.219,-0.382C0.237,-0.384 0.253,-0.381 0.268,-0.374C0.282,-0.367 0.294,-0.356 0.305,-0.341C0.317,-0.324 0.325,-0.307 0.33,-0.288C0.334,-0.269 0.336,-0.246 0.336,-0.221ZM0.194,-0.296C0.187,-0.296 0.179,-0.295 0.171,-0.293C0.164,-0.293 0.159,-0.291 0.156,-0.288C0.153,-0.285 0.15,-0.28 0.147,-0.274C0.138,-0.249 0.133,-0.225 0.133,-0.2C0.132,-0.175 0.136,-0.15 0.143,-0.125C0.147,-0.114 0.153,-0.103 0.162,-0.092C0.167,-0.087 0.17,-0.085 0.173,-0.085C0.175,-0.084 0.178,-0.086 0.183,-0.091C0.189,-0.097 0.195,-0.103 0.201,-0.11C0.206,-0.116 0.211,-0.123 0.215,-0.13C0.218,-0.138 0.222,-0.146 0.226,-0.155C0.229,-0.164 0.232,-0.172 0.234,-0.181C0.237,-0.194 0.24,-0.207 0.242,-0.22C0.244,-0.233 0.243,-0.246 0.24,-0.259C0.237,-0.273 0.232,-0.283 0.225,-0.288C0.218,-0.293 0.208,-0.296 0.194,-0.296Z" style="fill-rule:nonzero;"/>
            </g>
        </g>
        <g transform="matrix(4.16667,0,0,4.16667,0,0)">
            <g transform="matrix(17.9843,0,0,18,590.555,1338.42)">
                <path d="M0.336,-0.221C0.333,-0.156 0.309,-0.095 0.264,-0.038C0.256,-0.027 0.247,-0.018 0.236,-0.011C0.225,-0.003 0.213,0.003 0.2,0.007C0.174,0.013 0.149,0.01 0.125,-0.002C0.116,-0.007 0.108,-0.014 0.1,-0.022C0.092,-0.029 0.085,-0.037 0.08,-0.046C0.063,-0.073 0.051,-0.101 0.045,-0.131C0.039,-0.16 0.037,-0.189 0.039,-0.22C0.042,-0.247 0.048,-0.274 0.057,-0.299C0.066,-0.324 0.08,-0.346 0.098,-0.367C0.113,-0.384 0.132,-0.394 0.153,-0.398C0.163,-0.401 0.172,-0.401 0.18,-0.399C0.188,-0.396 0.196,-0.392 0.203,-0.386C0.205,-0.384 0.207,-0.383 0.21,-0.383C0.213,-0.382 0.216,-0.382 0.219,-0.382C0.237,-0.384 0.253,-0.381 0.268,-0.374C0.282,-0.367 0.294,-0.356 0.305,-0.341C0.317,-0.324 0.325,-0.307 0.33,-0.288C0.334,-0.269 0.336,-0.246 0.336,-0.221ZM0.194,-0.296C0.187,-0.296 0.179,-0.295 0.171,-0.293C0.164,-0.293 0.159,-0.291 0.156,-0.288C0.153,-0.285 0.15,-0.28 0.147,-0.274C0.138,-0.249 0.133,-0.225 0.133,-0.2C0.132,-0.175 0.136,-0.15 0.143,-0.125C0.147,-0.114 0.153,-0.103 0.162,-0.092C0.167,-0.087 0.17,-0.085 0.173,-0.085C0.175,-0.084 0.178,-0.086 0.183,-0.091C0.189,-0.097 0.195,-0.103 0.201,-0.11C0.206,-0.116 0.211,-0.123 0.215,-0.13C0.218,-0.138 0.222,-0.146 0.226,-0.155C0.229,-0.164 0.232,-0.172 0.234,-0.181C0.237,-0.194 0.24,-0.207 0.242,-0.22C0.244,-0.233 0.243,-0.246 0.24,-0.259C0.237,-0.273 0.232,-0.283 0.225,-0.288C0.218,-0.293 0.208,-0.296 0.194,-0.296Z" style="fill-rule:nonzero;"/>
            </g>
        </g>
        <g transform="matrix(4.16667,0,0,4.16667,0,0)">
            <g transform="matrix(17.9843,0,0,18,617.555,1324.92)">
                <path d="M0.336,-0.221C0.333,-0.156 0.309,-0.095 0.264,-0.038C0.256,-0.027 0.247,-0.018 0.236,-0.011C0.225,-0.003 0.213,0.003 0.2,0.007C0.174,0.013 0.149,0.01 0.125,-0.002C0.116,-0.007 0.108,-0.014 0.1,-0.022C0.092,-0.029 0.085,-0.037 0.08,-0.046C0.063,-0.073 0.051,-0.101 0.045,-0.131C0.039,-0.16 0.037,-0.189 0.039,-0.22C0.042,-0.247 0.048,-0.274 0.057,-0.299C0.066,-0.324 0.08,-0.346 0.098,-0.367C0.113,-0.384 0.132,-0.394 0.153,-0.398C0.163,-0.401 0.172,-0.401 0.18,-0.399C0.188,-0.396 0.196,-0.392 0.203,-0.386C0.205,-0.384 0.207,-0.383 0.21,-0.383C0.213,-0.382 0.216,-0.382 0.219,-0.382C0.237,-0.384 0.253,-0.381 0.268,-0.374C0.282,-0.367 0.294,-0.356 0.305,-0.341C0.317,-0.324 0.325,-0.307 0.33,-0.288C0.334,-0.269 0.336,-0.246 0.336,-0.221ZM0.194,-0.296C0.187,-0.296 0.179,-0.295 0.171,-0.293C0.164,-0.293 0.159,-0.291 0.156,-0.288C0.153,-0.285 0.15,-0.28 0.147,-0.274C0.138,-0.249 0.133,-0.225 0.133,-0.2C0.132,-0.175 0.136,-0.15 0.143,-0.125C0.147,-0.114 0.153,-0.103 0.162,-0.092C0.167,-0.087 0.17,-0.085 0.173,-0.085C0.175,-0.084 0.178,-0.086 0.183,-0.091C0.189,-0.097 0.195,-0.103 0.201,-0.11C0.206,-0.116 0.211,-0.123 0.215,-0.13C0.218,-0.138 0.222,-0.146 0.226,-0.155C0.229,-0.164 0.232,-0.172 0.234,-0.181C0.237,-0.194 0.24,-0.207 0.242,-0.22C0.244,-0.233 0.243,-0.246 0.24,-0.259C0.237,-0.273 0.232,-0.283 0.225,-0.288C0.218,-0.293 0.208,-0.296 0.194,-0.296Z" style="fill-rule:nonzero;"/>
            </g>
        </g>
        <g transform="matrix(4.16667,0,0,4.16667,0,0)">
            <g transform="matrix(17.9843,0,0,18,617.555,1340.67)">
                <path d="M0.336,-0.221C0.333,-0.156 0.309,-0.095 0.264,-0.038C0.256,-0.027 0.247,-0.018 0.236,-0.011C0.225,-0.003 0.213,0.003 0.2,0.007C0.174,0.013 0.149,0.01 0.125,-0.002C0.116,-0.007 0.108,-0.014 0.1,-0.022C0.092,-0.029 0.085,-0.037 0.08,-0.046C0.063,-0.073 0.051,-0.101 0.045,-0.131C0.039,-0.16 0.037,-0.189 0.039,-0.22C0.042,-0.247 0.048,-0.274 0.057,-0.299C0.066,-0.324 0.08,-0.346 0.098,-0.367C0.113,-0.384 0.132,-0.394 0.153,-0.398C0.163,-0.401 0.172,-0.401 0.18,-0.399C0.188,-0.396 0.196,-0.392 0.203,-0.386C0.205,-0.384 0.207,-0.383 0.21,-0.383C0.213,-0.382 0.216,-0.382 0.219,-0.382C0.237,-0.384 0.253,-0.381 0.268,-0.374C0.282,-0.367 0.294,-0.356 0.305,-0.341C0.317,-0.324 0.325,-0.307 0.33,-0.288C0.334,-0.269 0.336,-0.246 0.336,-0.221ZM0.194,-0.296C0.187,-0.296 0.179,-0.295 0.171,-0.293C0.164,-0.293 0.159,-0.291 0.156,-0.288C0.153,-0.285 0.15,-0.28 0.147,-0.274C0.138,-0.249 0.133,-0.225 0.133,-0.2C0.132,-0.175 0.136,-0.15 0.143,-0.125C0.147,-0.114 0.153,-0.103 0.162,-0.092C0.167,-0.087 0.17,-0.085 0.173,-0.085C0.175,-0.084 0.178,-0.086 0.183,-0.091C0.189,-0.097 0.195,-0.103 0.201,-0.11C0.206,-0.116 0.211,-0.123 0.215,-0.13C0.218,-0.138 0.222,-0.146 0.226,-0.155C0.229,-0.164 0.232,-0.172 0.234,-0.181C0.237,-0.194 0.24,-0.207 0.242,-0.22C0.244,-0.233 0.243,-0.246 0.24,-0.259C0.237,-0.273 0.232,-0.283 0.225,-0.288C0.218,-0.293 0.208,-0.296 0.194,-0.296Z" style="fill-rule:nonzero;"/>
            </g>
        </g>
        <g transform="matrix(4.16667,0,0,4.16667,0,0)">
            <g transform="matrix(17.9619,0,0,18,565.055,1369.92)">
                <path d="M0.108,-0.259C0.107,-0.231 0.107,-0.203 0.108,-0.176C0.109,-0.148 0.11,-0.12 0.11,-0.092C0.11,-0.081 0.11,-0.07 0.111,-0.06C0.111,-0.049 0.112,-0.037 0.114,-0.026C0.117,-0.016 0.114,-0.008 0.105,-0.002C0.097,0.001 0.089,-0.001 0.081,-0.01C0.078,-0.013 0.075,-0.017 0.074,-0.022C0.071,-0.029 0.069,-0.037 0.068,-0.045C0.066,-0.053 0.064,-0.061 0.063,-0.068C0.06,-0.093 0.058,-0.118 0.056,-0.142C0.053,-0.166 0.051,-0.19 0.05,-0.215C0.049,-0.237 0.048,-0.259 0.046,-0.281C0.044,-0.302 0.042,-0.324 0.041,-0.346C0.04,-0.371 0.039,-0.397 0.038,-0.423C0.037,-0.448 0.039,-0.474 0.044,-0.499C0.045,-0.504 0.046,-0.509 0.048,-0.514C0.05,-0.518 0.052,-0.522 0.054,-0.526C0.061,-0.537 0.07,-0.541 0.08,-0.539C0.091,-0.538 0.099,-0.532 0.102,-0.52C0.105,-0.511 0.108,-0.503 0.109,-0.494C0.11,-0.485 0.11,-0.475 0.11,-0.466C0.111,-0.441 0.111,-0.417 0.111,-0.393C0.11,-0.368 0.109,-0.344 0.108,-0.319L0.108,-0.259Z" style="fill-rule:nonzero;"/>
            </g>
        </g>
        <g transform="matrix(4.16667,0,0,4.16667,0,0)">
            <g transform="matrix(17.9619,0,0,18,577.805,1342.92)">
                <path d="M0.108,-0.259C0.107,-0.231 0.107,-0.203 0.108,-0.176C0.109,-0.148 0.11,-0.12 0.11,-0.092C0.11,-0.081 0.11,-0.07 0.111,-0.06C0.111,-0.049 0.112,-0.037 0.114,-0.026C0.117,-0.016 0.114,-0.008 0.105,-0.002C0.097,0.001 0.089,-0.001 0.081,-0.01C0.078,-0.013 0.075,-0.017 0.074,-0.022C0.071,-0.029 0.069,-0.037 0.068,-0.045C0.066,-0.053 0.064,-0.061 0.063,-0.068C0.06,-0.093 0.058,-0.118 0.056,-0.142C0.053,-0.166 0.051,-0.19 0.05,-0.215C0.049,-0.237 0.048,-0.259 0.046,-0.281C0.044,-0.302 0.042,-0.324 0.041,-0.346C0.04,-0.371 0.039,-0.397 0.038,-0.423C0.037,-0.448 0.039,-0.474 0.044,-0.499C0.045,-0.504 0.046,-0.509 0.048,-0.514C0.05,-0.518 0.052,-0.522 0.054,-0.526C0.061,-0.537 0.07,-0.541 0.08,-0.539C0.091,-0.538 0.099,-0.532 0.102,-0.52C0.105,-0.511 0.108,-0.503 0.109,-0.494C0.11,-0.485 0.11,-0.475 0.11,-0.466C0.111,-0.441 0.111,-0.417 0.111,-0.393C0.11,-0.368 0.109,-0.344 0.108,-0.319L0.108,-0.259Z" style="fill-rule:nonzero;"/>
            </g>
        </g>
        <g transform="matrix(4.16667,0,0,4.16667,0,0)">
            <g transform="matrix(17.9619,0,0,18,592.055,1309.17)">
                <path d="M0.108,-0.259C0.107,-0.231 0.107,-0.203 0.108,-0.176C0.109,-0.148 0.11,-0.12 0.11,-0.092C0.11,-0.081 0.11,-0.07 0.111,-0.06C0.111,-0.049 0.112,-0.037 0.114,-0.026C0.117,-0.016 0.114,-0.008 0.105,-0.002C0.097,0.001 0.089,-0.001 0.081,-0.01C0.078,-0.013 0.075,-0.017 0.074,-0.022C0.071,-0.029 0.069,-0.037 0.068,-0.045C0.066,-0.053 0.064,-0.061 0.063,-0.068C0.06,-0.093 0.058,-0.118 0.056,-0.142C0.053,-0.166 0.051,-0.19 0.05,-0.215C0.049,-0.237 0.048,-0.259 0.046,-0.281C0.044,-0.302 0.042,-0.324 0.041,-0.346C0.04,-0.371 0.039,-0.397 0.038,-0.423C0.037,-0.448 0.039,-0.474 0.044,-0.499C0.045,-0.504 0.046,-0.509 0.048,-0.514C0.05,-0.518 0.052,-0.522 0.054,-0.526C0.061,-0.537 0.07,-0.541 0.08,-0.539C0.091,-0.538 0.099,-0.532 0.102,-0.52C0.105,-0.511 0.108,-0.503 0.109,-0.494C0.11,-0.485 0.11,-0.475 0.11,-0.466C0.111,-0.441 0.111,-0.417 0.111,-0.393C0.11,-0.368 0.109,-0.344 0.108,-0.319L0.108,-0.259Z" style="fill-rule:nonzero;"/>
            </g>
        </g>
        <g transform="matrix(4.16667,0,0,4.16667,0,0)">
            <g transform="matrix(17.9619,0,0,18,604.805,1324.17)">
                <path d="M0.108,-0.259C0.107,-0.231 0.107,-0.203 0.108,-0.176C0.109,-0.148 0.11,-0.12 0.11,-0.092C0.11,-0.081 0.11,-0.07 0.111,-0.06C0.111,-0.049 0.112,-0.037 0.114,-0.026C0.117,-0.016 0.114,-0.008 0.105,-0.002C0.097,0.001 0.089,-0.001 0.081,-0.01C0.078,-0.013 0.075,-0.017 0.074,-0.022C0.071,-0.029 0.069,-0.037 0.068,-0.045C0.066,-0.053 0.064,-0.061 0.063,-0.068C0.06,-0.093 0.058,-0.118 0.056,-0.142C0.053,-0.166 0.051,-0.19 0.05,-0.215C0.049,-0.237 0.048,-0.259 0.046,-0.281C0.044,-0.302 0.042,-0.324 0.041,-0.346C0.04,-0.371 0.039,-0.397 0.038,-0.423C0.037,-0.448 0.039,-0.474 0.044,-0.499C0.045,-0.504 0.046,-0.509 0.048,-0.514C0.05,-0.518 0.052,-0.522 0.054,-0.526C0.061,-0.537 0.07,-0.541 0.08,-0.539C0.091,-0.538 0.099,-0.532 0.102,-0.52C0.105,-0.511 0.108,-0.503 0.109,-0.494C0.11,-0.485 0.11,-0.475 0.11,-0.466C0.111,-0.441 0.111,-0.417 0.111,-0.393C0.11,-0.368 0.109,-0.344 0.108,-0.319L0.108,-0.259Z" style="fill-rule:nonzero;"/>
            </g>
        </g>
        <g transform="matrix(4.16667,0,0,4.16667,0,0)">
            <g transform="matrix(17.9619,0,0,18,619.055,1312.17)">
                <path d="M0.108,-0.259C0.107,-0.231 0.107,-0.203 0.108,-0.176C0.109,-0.148 0.11,-0.12 0.11,-0.092C0.11,-0.081 0.11,-0.07 0.111,-0.06C0.111,-0.049 0.112,-0.037 0.114,-0.026C0.117,-0.016 0.114,-0.008 0.105,-0.002C0.097,0.001 0.089,-0.001 0.081,-0.01C0.078,-0.013 0.075,-0.017 0.074,-0.022C0.071,-0.029 0.069,-0.037 0.068,-0.045C0.066,-0.053 0.064,-0.061 0.063,-0.068C0.06,-0.093 0.058,-0.118 0.056,-0.142C0.053,-0.166 0.051,-0.19 0.05,-0.215C0.049,-0.237 0.048,-0.259 0.046,-0.281C0.044,-0.302 0.042,-0.324 0.041,-0.346C0.04,-0.371 0.039,-0.397 0.038,-0.423C0.037,-0.448 0.039,-0.474 0.044,-0.499C0.045,-0.504 0.046,-0.509 0.048,-0.514C0.05,-0.518 0.052,-0.522 0.054,-0.526C0.061,-0.537 0.07,-0.541 0.08,-0.539C0.091,-0.538 0.099,-0.532 0.102,-0.52C0.105,-0.511 0.108,-0.503 0.109,-0.494C0.11,-0.485 0.11,-0.475 0.11,-0.466C0.111,-0.441 0.111,-0.417 0.111,-0.393C0.11,-0.368 0.109,-0.344 0.108,-0.319L0.108,-0.259Z" style="fill-rule:nonzero;"/>
            </g>
        </g>
        <g transform="matrix(4.16667,0,0,4.16667,0,0)">
            <g transform="matrix(17.9619,0,0,18,604.805,1306.92)">
                <path d="M0.108,-0.259C0.107,-0.231 0.107,-0.203 0.108,-0.176C0.109,-0.148 0.11,-0.12 0.11,-0.092C0.11,-0.081 0.11,-0.07 0.111,-0.06C0.111,-0.049 0.112,-0.037 0.114,-0.026C0.117,-0.016 0.114,-0.008 0.105,-0.002C0.097,0.001 0.089,-0.001 0.081,-0.01C0.078,-0.013 0.075,-0.017 0.074,-0.022C0.071,-0.029 0.069,-0.037 0.068,-0.045C0.066,-0.053 0.064,-0.061 0.063,-0.068C0.06,-0.093 0.058,-0.118 0.056,-0.142C0.053,-0.166 0.051,-0.19 0.05,-0.215C0.049,-0.237 0.048,-0.259 0.046,-0.281C0.044,-0.302 0.042,-0.324 0.041,-0.346C0.04,-0.371 0.039,-0.397 0.038,-0.423C0.037,-0.448 0.039,-0.474 0.044,-0.499C0.045,-0.504 0.046,-0.509 0.048,-0.514C0.05,-0.518 0.052,-0.522 0.054,-0.526C0.061,-0.537 0.07,-0.541 0.08,-0.539C0.091,-0.538 0.099,-0.532 0.102,-0.52C0.105,-0.511 0.108,-0.503 0.109,-0.494C0.11,-0.485 0.11,-0.475 0.11,-0.466C0.111,-0.441 0.111,-0.417 0.111,-0.393C0.11,-0.368 0.109,-0.344 0.108,-0.319L0.108,-0.259Z" style="fill-rule:nonzero;"/>
            </g>
        </g>
        <g transform="matrix(4.16667,0,0,4.16667,0,0)">
            <g transform="matrix(17.9619,0,0,18,551.555,1342.17)">
                <path d="M0.108,-0.259C0.107,-0.231 0.107,-0.203 0.108,-0.176C0.109,-0.148 0.11,-0.12 0.11,-0.092C0.11,-0.081 0.11,-0.07 0.111,-0.06C0.111,-0.049 0.112,-0.037 0.114,-0.026C0.117,-0.016 0.114,-0.008 0.105,-0.002C0.097,0.001 0.089,-0.001 0.081,-0.01C0.078,-0.013 0.075,-0.017 0.074,-0.022C0.071,-0.029 0.069,-0.037 0.068,-0.045C0.066,-0.053 0.064,-0.061 0.063,-0.068C0.06,-0.093 0.058,-0.118 0.056,-0.142C0.053,-0.166 0.051,-0.19 0.05,-0.215C0.049,-0.237 0.048,-0.259 0.046,-0.281C0.044,-0.302 0.042,-0.324 0.041,-0.346C0.04,-0.371 0.039,-0.397 0.038,-0.423C0.037,-0.448 0.039,-0.474 0.044,-0.499C0.045,-0.504 0.046,-0.509 0.048,-0.514C0.05,-0.518 0.052,-0.522 0.054,-0.526C0.061,-0.537 0.07,-0.541 0.08,-0.539C0.091,-0.538 0.099,-0.532 0.102,-0.52C0.105,-0.511 0.108,-0.503 0.109,-0.494C0.11,-0.485 0.11,-0.475 0.11,-0.466C0.111,-0.441 0.111,-0.417 0.111,-0.393C0.11,-0.368 0.109,-0.344 0.108,-0.319L0.108,-0.259Z" style="fill-rule:nonzero;"/>
            </g>
        </g>
        <g transform="matrix(4.16667,0,0,4.16667,0,0)">
            <g transform="matrix(17.9619,0,0,18,564.305,1337.67)">
                <path d="M0.108,-0.259C0.107,-0.231 0.107,-0.203 0.108,-0.176C0.109,-0.148 0.11,-0.12 0.11,-0.092C0.11,-0.081 0.11,-0.07 0.111,-0.06C0.111,-0.049 0.112,-0.037 0.114,-0.026C0.117,-0.016 0.114,-0.008 0.105,-0.002C0.097,0.001 0.089,-0.001 0.081,-0.01C0.078,-0.013 0.075,-0.017 0.074,-0.022C0.071,-0.029 0.069,-0.037 0.068,-0.045C0.066,-0.053 0.064,-0.061 0.063,-0.068C0.06,-0.093 0.058,-0.118 0.056,-0.142C0.053,-0.166 0.051,-0.19 0.05,-0.215C0.049,-0.237 0.048,-0.259 0.046,-0.281C0.044,-0.302 0.042,-0.324 0.041,-0.346C0.04,-0.371 0.039,-0.397 0.038,-0.423C0.037,-0.448 0.039,-0.474 0.044,-0.499C0.045,-0.504 0.046,-0.509 0.048,-0.514C0.05,-0.518 0.052,-0.522 0.054,-0.526C0.061,-0.537 0.07,-0.541 0.08,-0.539C0.091,-0.538 0.099,-0.532 0.102,-0.52C0.105,-0.511 0.108,-0.503 0.109,-0.494C0.11,-0.485 0.11,-0.475 0.11,-0.466C0.111,-0.441 0.111,-0.417 0.111,-0.393C0.11,-0.368 0.109,-0.344 0.108,-0.319L0.108,-0.259Z" style="fill-rule:nonzero;"/>
            </g>
        </g>
        <g transform="matrix(4.16667,0,0,4.16667,0,0)">
            <g transform="matrix(17.9619,0,0,18,551.555,1355.67)">
                <path d="M0.108,-0.259C0.107,-0.231 0.107,-0.203 0.108,-0.176C0.109,-0.148 0.11,-0.12 0.11,-0.092C0.11,-0.081 0.11,-0.07 0.111,-0.06C0.111,-0.049 0.112,-0.037 0.114,-0.026C0.117,-0.016 0.114,-0.008 0.105,-0.002C0.097,0.001 0.089,-0.001 0.081,-0.01C0.078,-0.013 0.075,-0.017 0.074,-0.022C0.071,-0.029 0.069,-0.037 0.068,-0.045C0.066,-0.053 0.064,-0.061 0.063,-0.068C0.06,-0.093 0.058,-0.118 0.056,-0.142C0.053,-0.166 0.051,-0.19 0.05,-0.215C0.049,-0.237 0.048,-0.259 0.046,-0.281C0.044,-0.302 0.042,-0.324 0.041,-0.346C0.04,-0.371 0.039,-0.397 0.038,-0.423C0.037,-0.448 0.039,-0.474 0.044,-0.499C0.045,-0.504 0.046,-0.509 0.048,-0.514C0.05,-0.518 0.052,-0.522 0.054,-0.526C0.061,-0.537 0.07,-0.541 0.08,-0.539C0.091,-0.538 0.099,-0.532 0.102,-0.52C0.105,-0.511 0.108,-0.503 0.109,-0.494C0.11,-0.485 0.11,-0.475 0.11,-0.466C0.111,-0.441 0.111,-0.417 0.111,-0.393C0.11,-0.368 0.109,-0.344 0.108,-0.319L0.108,-0.259Z" style="fill-rule:nonzero;"/>
            </g>
        </g>
        <g transform="matrix(4.16667,0,0,4.16667,0,0)">
            <g transform="matrix(17.9619,0,0,18,565.055,1384.92)">
                <path d="M0.108,-0.259C0.107,-0.231 0.107,-0.203 0.108,-0.176C0.109,-0.148 0.11,-0.12 0.11,-0.092C0.11,-0.081 0.11,-0.07 0.111,-0.06C0.111,-0.049 0.112,-0.037 0.114,-0.026C0.117,-0.016 0.114,-0.008 0.105,-0.002C0.097,0.001 0.089,-0.001 0.081,-0.01C0.078,-0.013 0.075,-0.017 0.074,-0.022C0.071,-0.029 0.069,-0.037 0.068,-0.045C0.066,-0.053 0.064,-0.061 0.063,-0.068C0.06,-0.093 0.058,-0.118 0.056,-0.142C0.053,-0.166 0.051,-0.19 0.05,-0.215C0.049,-0.237 0.048,-0.259 0.046,-0.281C0.044,-0.302 0.042,-0.324 0.041,-0.346C0.04,-0.371 0.039,-0.397 0.038,-0.423C0.037,-0.448 0.039,-0.474 0.044,-0.499C0.045,-0.504 0.046,-0.509 0.048,-0.514C0.05,-0.518 0.052,-0.522 0.054,-0.526C0.061,-0.537 0.07,-0.541 0.08,-0.539C0.091,-0.538 0.099,-0.532 0.102,-0.52C0.105,-0.511 0.108,-0.503 0.109,-0.494C0.11,-0.485 0.11,-0.475 0.11,-0.466C0.111,-0.441 0.111,-0.417 0.111,-0.393C0.11,-0.368 0.109,-0.344 0.108,-0.319L0.108,-0.259Z" style="fill-rule:nonzero;"/>
            </g>
        </g>
        <g transform="matrix(4.16667,0,0,4.16667,0,0)">
            <g transform="matrix(17.9619,0,0,18,577.805,1357.92)">
                <path d="M0.108,-0.259C0.107,-0.231 0.107,-0.203 0.108,-0.176C0.109,-0.148 0.11,-0.12 0.11,-0.092C0.11,-0.081 0.11,-0.07 0.111,-0.06C0.111,-0.049 0.112,-0.037 0.114,-0.026C0.117,-0.016 0.114,-0.008 0.105,-0.002C0.097,0.001 0.089,-0.001 0.081,-0.01C0.078,-0.013 0.075,-0.017 0.074,-0.022C0.071,-0.029 0.069,-0.037 0.068,-0.045C0.066,-0.053 0.064,-0.061 0.063,-0.068C0.06,-0.093 0.058,-0.118 0.056,-0.142C0.053,-0.166 0.051,-0.19 0.05,-0.215C0.049,-0.237 0.048,-0.259 0.046,-0.281C0.044,-0.302 0.042,-0.324 0.041,-0.346C0.04,-0.371 0.039,-0.397 0.038,-0.423C0.037,-0.448 0.039,-0.474 0.044,-0.499C0.045,-0.504 0.046,-0.509 0.048,-0.514C0.05,-0.518 0.052,-0.522 0.054,-0.526C0.061,-0.537 0.07,-0.541 0.08,-0.539C0.091,-0.538 0.099,-0.532 0.102,-0.52C0.105,-0.511 0.108,-0.503 0.109,-0.494C0.11,-0.485 0.11,-0.475 0.11,-0.466C0.111,-0.441 0.111,-0.417 0.111,-0.393C0.11,-0.368 0.109,-0.344 0.108,-0.319L0.108,-0.259Z" style="fill-rule:nonzero;"/>
            </g>
            <g transform="matrix(17.9619,0,0,18,592.055,1357.92)">
                <path d="M0.108,-0.259C0.107,-0.231 0.107,-0.203 0.108,-0.176C0.109,-0.148 0.11,-0.12 0.11,-0.092C0.11,-0.081 0.11,-0.07 0.111,-0.06C0.111,-0.049 0.112,-0.037 0.114,-0.026C0.117,-0.016 0.114,-0.008 0.105,-0.002C0.097,0.001 0.089,-0.001 0.081,-0.01C0.078,-0.013 0.075,-0.017 0.074,-0.022C0.071,-0.029 0.069,-0.037 0.068,-0.045C0.066,-0.053 0.064,-0.061 0.063,-0.068C0.06,-0.093 0.058,-0.118 0.056,-0.142C0.053,-0.166 0.051,-0.19 0.05,-0.215C0.049,-0.237 0.048,-0.259 0.046,-0.281C0.044,-0.302 0.042,-0.324 0.041,-0.346C0.04,-0.371 0.039,-0.397 0.038,-0.423C0.037,-0.448 0.039,-0.474 0.044,-0.499C0.045,-0.504 0.046,-0.509 0.048,-0.514C0.05,-0.518 0.052,-0.522 0.054,-0.526C0.061,-0.537 0.07,-0.541 0.08,-0.539C0.091,-0.538 0.099,-0.532 0.102,-0.52C0.105,-0.511 0.108,-0.503 0.109,-0.494C0.11,-0.485 0.11,-0.475 0.11,-0.466C0.111,-0.441 0.111,-0.417 0.111,-0.393C0.11,-0.368 0.109,-0.344 0.108,-0.319L0.108,-0.259Z" style="fill-rule:nonzero;"/>
            </g>
            <g transform="matrix(17.9619,0,0,18,619.055,1357.92)">
                <path d="M0.108,-0.259C0.107,-0.231 0.107,-0.203 0.108,-0.176C0.109,-0.148 0.11,-0.12 0.11,-0.092C0.11,-0.081 0.11,-0.07 0.111,-0.06C0.111,-0.049 0.112,-0.037 0.114,-0.026C0.117,-0.016 0.114,-0.008 0.105,-0.002C0.097,0.001 0.089,-0.001 0.081,-0.01C0.078,-0.013 0.075,-0.017 0.074,-0.022C0.071,-0.029 0.069,-0.037 0.068,-0.045C0.066,-0.053 0.064,-0.061 0.063,-0.068C0.06,-0.093 0.058,-0.118 0.056,-0.142C0.053,-0.166 0.051,-0.19 0.05,-0.215C0.049,-0.237 0.048,-0.259 0.046,-0.281C0.044,-0.302 0.042,-0.324 0.041,-0.346C0.04,-0.371 0.039,-0.397 0.038,-0.423C0.037,-0.448 0.039,-0.474 0.044,-0.499C0.045,-0.504 0.046,-0.509 0.048,-0.514C0.05,-0.518 0.052,-0.522 0.054,-0.526C0.061,-0.537 0.07,-0.541 0.08,-0.539C0.091,-0.538 0.099,-0.532 0.102,-0.52C0.105,-0.511 0.108,-0.503 0.109,-0.494C0.11,-0.485 0.11,-0.475 0.11,-0.466C0.111,-0.441 0.111,-0.417 0.111,-0.393C0.11,-0.368 0.109,-0.344 0.108,-0.319L0.108,-0.259Z" style="fill-rule:nonzero;"/>
            </g>
        </g>
        <g transform="matrix(4.16667,0,0,4.16667,0,0)">
            <g transform="matrix(17.9619,0,0,18,592.055,1324.17)">
                <path d="M0.108,-0.259C0.107,-0.231 0.107,-0.203 0.108,-0.176C0.109,-0.148 0.11,-0.12 0.11,-0.092C0.11,-0.081 0.11,-0.07 0.111,-0.06C0.111,-0.049 0.112,-0.037 0.114,-0.026C0.117,-0.016 0.114,-0.008 0.105,-0.002C0.097,0.001 0.089,-0.001 0.081,-0.01C0.078,-0.013 0.075,-0.017 0.074,-0.022C0.071,-0.029 0.069,-0.037 0.068,-0.045C0.066,-0.053 0.064,-0.061 0.063,-0.068C0.06,-0.093 0.058,-0.118 0.056,-0.142C0.053,-0.166 0.051,-0.19 0.05,-0.215C0.049,-0.237 0.048,-0.259 0.046,-0.281C0.044,-0.302 0.042,-0.324 0.041,-0.346C0.04,-0.371 0.039,-0.397 0.038,-0.423C0.037,-0.448 0.039,-0.474 0.044,-0.499C0.045,-0.504 0.046,-0.509 0.048,-0.514C0.05,-0.518 0.052,-0.522 0.054,-0.526C0.061,-0.537 0.07,-0.541 0.08,-0.539C0.091,-0.538 0.099,-0.532 0.102,-0.52C0.105,-0.511 0.108,-0.503 0.109,-0.494C0.11,-0.485 0.11,-0.475 0.11,-0.466C0.111,-0.441 0.111,-0.417 0.111,-0.393C0.11,-0.368 0.109,-0.344 0.108,-0.319L0.108,-0.259Z" style="fill-rule:nonzero;"/>
            </g>
        </g>
        <g transform="matrix(4.16667,0,0,4.16667,0,0)">
            <g transform="matrix(17.9619,0,0,18,604.805,1339.17)">
                <path d="M0.108,-0.259C0.107,-0.231 0.107,-0.203 0.108,-0.176C0.109,-0.148 0.11,-0.12 0.11,-0.092C0.11,-0.081 0.11,-0.07 0.111,-0.06C0.111,-0.049 0.112,-0.037 0.114,-0.026C0.117,-0.016 0.114,-0.008 0.105,-0.002C0.097,0.001 0.089,-0.001 0.081,-0.01C0.078,-0.013 0.075,-0.017 0.074,-0.022C0.071,-0.029 0.069,-0.037 0.068,-0.045C0.066,-0.053 0.064,-0.061 0.063,-0.068C0.06,-0.093 0.058,-0.118 0.056,-0.142C0.053,-0.166 0.051,-0.19 0.05,-0.215C0.049,-0.237 0.048,-0.259 0.046,-0.281C0.044,-0.302 0.042,-0.324 0.041,-0.346C0.04,-0.371 0.039,-0.397 0.038,-0.423C0.037,-0.448 0.039,-0.474 0.044,-0.499C0.045,-0.504 0.046,-0.509 0.048,-0.514C0.05,-0.518 0.052,-0.522 0.054,-0.526C0.061,-0.537 0.07,-0.541 0.08,-0.539C0.091,-0.538 0.099,-0.532 0.102,-0.52C0.105,-0.511 0.108,-0.503 0.109,-0.494C0.11,-0.485 0.11,-0.475 0.11,-0.466C0.111,-0.441 0.111,-0.417 0.111,-0.393C0.11,-0.368 0.109,-0.344 0.108,-0.319L0.108,-0.259Z" style="fill-rule:nonzero;"/>
            </g>
        </g>
        <g transform="matrix(4.16667,0,0,4.16667,0,0)">
            <g transform="matrix(17.9619,0,0,18,577.805,1376.67)">
                <path d="M0.108,-0.259C0.107,-0.231 0.107,-0.203 0.108,-0.176C0.109,-0.148 0.11,-0.12 0.11,-0.092C0.11,-0.081 0.11,-0.07 0.111,-0.06C0.111,-0.049 0.112,-0.037 0.114,-0.026C0.117,-0.016 0.114,-0.008 0.105,-0.002C0.097,0.001 0.089,-0.001 0.081,-0.01C0.078,-0.013 0.075,-0.017 0.074,-0.022C0.071,-0.029 0.069,-0.037 0.068,-0.045C0.066,-0.053 0.064,-0.061 0.063,-0.068C0.06,-0.093 0.058,-0.118 0.056,-0.142C0.053,-0.166 0.051,-0.19 0.05,-0.215C0.049,-0.237 0.048,-0.259 0.046,-0.281C0.044,-0.302 0.042,-0.324 0.041,-0.346C0.04,-0.371 0.039,-0.397 0.038,-0.423C0.037,-0.448 0.039,-0.474 0.044,-0.499C0.045,-0.504 0.046,-0.509 0.048,-0.514C0.05,-0.518 0.052,-0.522 0.054,-0.526C0.061,-0.537 0.07,-0.541 0.08,-0.539C0.091,-0.538 0.099,-0.532 0.102,-0.52C0.105,-0.511 0.108,-0.503 0.109,-0.494C0.11,-0.485 0.11,-0.475 0.11,-0.466C0.111,-0.441 0.111,-0.417 0.111,-0.393C0.11,-0.368 0.109,-0.344 0.108,-0.319L0.108,-0.259Z" style="fill-rule:nonzero;"/>
            </g>
        </g>
        <g transform="matrix(4.16667,0,0,4.16667,0,0)">
            <g transform="matrix(17.9619,0,0,18,551.555,1382.67)">
                <path d="M0.108,-0.259C0.107,-0.231 0.107,-0.203 0.108,-0.176C0.109,-0.148 0.11,-0.12 0.11,-0.092C0.11,-0.081 0.11,-0.07 0.111,-0.06C0.111,-0.049 0.112,-0.037 0.114,-0.026C0.117,-0.016 0.114,-0.008 0.105,-0.002C0.097,0.001 0.089,-0.001 0.081,-0.01C0.078,-0.013 0.075,-0.017 0.074,-0.022C0.071,-0.029 0.069,-0.037 0.068,-0.045C0.066,-0.053 0.064,-0.061 0.063,-0.068C0.06,-0.093 0.058,-0.118 0.056,-0.142C0.053,-0.166 0.051,-0.19 0.05,-0.215C0.049,-0.237 0.048,-0.259 0.046,-0.281C0.044,-0.302 0.042,-0.324 0.041,-0.346C0.04,-0.371 0.039,-0.397 0.038,-0.423C0.037,-0.448 0.039,-0.474 0.044,-0.499C0.045,-0.504 0.046,-0.509 0.048,-0.514C0.05,-0.518 0.052,-0.522 0.054,-0.526C0.061,-0.537 0.07,-0.541 0.08,-0.539C0.091,-0.538 0.099,-0.532 0.102,-0.52C0.105,-0.511 0.108,-0.503 0.109,-0.494C0.11,-0.485 0.11,-0.475 0.11,-0.466C0.111,-0.441 0.111,-0.417 0.111,-0.393C0.11,-0.368 0.109,-0.344 0.108,-0.319L0.108,-0.259Z" style="fill-rule:nonzero;"/>
            </g>
        </g>
        <g transform="matrix(4.16667,0,0,4.16667,0,0)">
            <g transform="matrix(17.9843,0,0,18,601.805,1291.17)">
                <path d="M0.336,-0.221C0.333,-0.156 0.309,-0.095 0.264,-0.038C0.256,-0.027 0.247,-0.018 0.236,-0.011C0.225,-0.003 0.213,0.003 0.2,0.007C0.174,0.013 0.149,0.01 0.125,-0.002C0.116,-0.007 0.108,-0.014 0.1,-0.022C0.092,-0.029 0.085,-0.037 0.08,-0.046C0.063,-0.073 0.051,-0.101 0.045,-0.131C0.039,-0.16 0.037,-0.189 0.039,-0.22C0.042,-0.247 0.048,-0.274 0.057,-0.299C0.066,-0.324 0.08,-0.346 0.098,-0.367C0.113,-0.384 0.132,-0.394 0.153,-0.398C0.163,-0.401 0.172,-0.401 0.18,-0.399C0.188,-0.396 0.196,-0.392 0.203,-0.386C0.205,-0.384 0.207,-0.383 0.21,-0.383C0.213,-0.382 0.216,-0.382 0.219,-0.382C0.237,-0.384 0.253,-0.381 0.268,-0.374C0.282,-0.367 0.294,-0.356 0.305,-0.341C0.317,-0.324 0.325,-0.307 0.33,-0.288C0.334,-0.269 0.336,-0.246 0.336,-0.221ZM0.194,-0.296C0.187,-0.296 0.179,-0.295 0.171,-0.293C0.164,-0.293 0.159,-0.291 0.156,-0.288C0.153,-0.285 0.15,-0.28 0.147,-0.274C0.138,-0.249 0.133,-0.225 0.133,-0.2C0.132,-0.175 0.136,-0.15 0.143,-0.125C0.147,-0.114 0.153,-0.103 0.162,-0.092C0.167,-0.087 0.17,-0.085 0.173,-0.085C0.175,-0.084 0.178,-0.086 0.183,-0.091C0.189,-0.097 0.195,-0.103 0.201,-0.11C0.206,-0.116 0.211,-0.123 0.215,-0.13C0.218,-0.138 0.222,-0.146 0.226,-0.155C0.229,-0.164 0.232,-0.172 0.234,-0.181C0.237,-0.194 0.24,-0.207 0.242,-0.22C0.244,-0.233 0.243,-0.246 0.24,-0.259C0.237,-0.273 0.232,-0.283 0.225,-0.288C0.218,-0.293 0.208,-0.296 0.194,-0.296Z" style="fill-rule:nonzero;"/>
            </g>
        </g>
        <g transform="matrix(3.125,0,0,-3.125,0,10718.7)">
            <clipPath id="_clip1">
                <path d="M533.588,1685L533.588,1745C533.588,1747.65 534.095,1750.2 535.11,1752.65C536.125,1755.1 537.57,1757.27 539.446,1759.14C541.321,1761.02 543.484,1762.46 545.934,1763.48C548.384,1764.49 550.936,1765 553.588,1765L763.412,1765C766.064,1765 768.616,1764.49 771.066,1763.48C773.516,1762.46 775.679,1761.02 777.554,1759.14C779.43,1757.27 780.875,1755.1 781.89,1752.65C782.905,1750.2 783.412,1747.65 783.412,1745L783.412,1685C783.412,1682.35 782.905,1679.8 781.89,1677.35C780.875,1674.9 779.43,1672.73 777.554,1670.86C775.679,1668.98 773.516,1667.54 771.066,1666.52C768.616,1665.51 766.064,1665 763.412,1665L553.588,1665C550.936,1665 548.384,1665.51 545.934,1666.52C543.484,1667.54 541.321,1668.98 539.446,1670.86C537.57,1672.73 536.125,1674.9 535.11,1677.35C534.095,1679.8 533.588,1682.35 533.588,1685Z" clip-rule="nonzero"/>
            </clipPath>
            <g clip-path="url(#_clip1)">
                <path d="M553.588,1765L763.412,1765C764.725,1765 766.026,1764.87 767.314,1764.62C768.602,1764.36 769.852,1763.98 771.066,1763.48C772.279,1762.98 773.432,1762.36 774.524,1761.63C775.615,1760.9 776.626,1760.07 777.554,1759.14C778.483,1758.21 779.312,1757.2 780.042,1756.11C780.771,1755.02 781.387,1753.87 781.89,1752.65C782.392,1751.44 782.772,1750.19 783.028,1748.9C783.284,1747.61 783.412,1746.31 783.412,1745L783.412,1685C783.412,1683.69 783.284,1682.39 783.028,1681.1C782.772,1679.81 782.392,1678.56 781.89,1677.35C781.387,1676.13 780.771,1674.98 780.042,1673.89C779.312,1672.8 778.483,1671.79 777.554,1670.86C776.626,1669.93 775.615,1669.1 774.524,1668.37C773.432,1667.64 772.279,1667.03 771.066,1666.52C769.853,1666.02 768.602,1665.64 767.314,1665.38C766.026,1665.13 764.725,1665 763.412,1665L553.588,1665C552.275,1665 550.974,1665.13 549.686,1665.38C548.398,1665.64 547.147,1666.02 545.934,1666.52C544.721,1667.03 543.568,1667.64 542.476,1668.37C541.384,1669.1 540.374,1669.93 539.446,1670.86C538.517,1671.79 537.688,1672.8 536.958,1673.89C536.229,1674.98 535.613,1676.13 535.11,1677.35C534.608,1678.56 534.228,1679.81 533.972,1681.1C533.716,1682.39 533.588,1683.69 533.588,1685L533.588,1745C533.588,1746.31 533.716,1747.61 533.972,1748.9C534.228,1750.19 534.608,1751.44 535.11,1752.65C535.613,1753.87 536.229,1755.02 536.958,1756.11C537.688,1757.2 538.517,1758.21 539.446,1759.14C540.374,1760.07 541.384,1760.9 542.476,1761.63C543.568,1762.36 544.721,1762.98 545.934,1763.48C547.147,1763.98 548.398,1764.36 549.686,1764.62C550.974,1764.87 552.275,1765 553.588,1765Z" style="fill:none;fill-rule:nonzero;stroke:black;stroke-width:4px;"/>
            </g>
        </g>
        <g transform="matrix(3.125,0,0,-3.125,0,11087.5)">
            <path d="M618.333,1774C618.333,1773.04 618.286,1772.08 618.192,1771.12C618.098,1770.17 617.957,1769.22 617.77,1768.28C617.582,1767.34 617.349,1766.4 617.07,1765.49C616.791,1764.57 616.468,1763.66 616.1,1762.78C615.733,1761.89 615.323,1761.02 614.87,1760.17C614.417,1759.33 613.923,1758.5 613.39,1757.7C612.856,1756.9 612.284,1756.13 611.675,1755.39C611.066,1754.65 610.421,1753.94 609.742,1753.26C609.063,1752.58 608.352,1751.93 607.609,1751.33C606.866,1750.72 606.096,1750.14 605.297,1749.61C604.498,1749.08 603.675,1748.58 602.828,1748.13C601.98,1747.68 601.113,1747.27 600.225,1746.9C599.338,1746.53 598.434,1746.21 597.515,1745.93C596.596,1745.65 595.665,1745.42 594.723,1745.23C593.78,1745.04 592.831,1744.9 591.875,1744.81C590.919,1744.71 589.961,1744.67 589,1744.67C588.039,1744.67 587.081,1744.71 586.125,1744.81C585.169,1744.9 584.22,1745.04 583.277,1745.23C582.335,1745.42 581.404,1745.65 580.485,1745.93C579.566,1746.21 578.662,1746.53 577.775,1746.9C576.887,1747.27 576.02,1747.68 575.172,1748.13C574.325,1748.58 573.502,1749.08 572.703,1749.61C571.905,1750.14 571.134,1750.72 570.391,1751.33C569.649,1751.93 568.938,1752.58 568.258,1753.26C567.579,1753.94 566.935,1754.65 566.325,1755.39C565.716,1756.13 565.144,1756.9 564.61,1757.7C564.076,1758.5 563.583,1759.33 563.13,1760.17C562.677,1761.02 562.267,1761.89 561.9,1762.78C561.532,1763.66 561.209,1764.57 560.93,1765.49C560.651,1766.4 560.418,1767.34 560.23,1768.28C560.043,1769.22 559.902,1770.17 559.808,1771.12C559.714,1772.08 559.667,1773.04 559.667,1774C559.667,1774.96 559.714,1775.92 559.808,1776.88C559.902,1777.83 560.043,1778.78 560.23,1779.72C560.418,1780.66 560.651,1781.6 560.93,1782.52C561.209,1783.43 561.532,1784.34 561.9,1785.23C562.267,1786.11 562.677,1786.98 563.13,1787.83C563.583,1788.67 564.076,1789.5 564.61,1790.3C565.144,1791.1 565.716,1791.87 566.325,1792.61C566.934,1793.35 567.579,1794.06 568.258,1794.74C568.938,1795.42 569.649,1796.07 570.391,1796.67C571.134,1797.29 571.904,1797.86 572.703,1798.39C573.502,1798.92 574.325,1799.42 575.172,1799.87C576.02,1800.32 576.887,1800.73 577.775,1801.1C578.662,1801.47 579.566,1801.79 580.485,1802.07C581.404,1802.35 582.335,1802.58 583.277,1802.77C584.22,1802.96 585.169,1803.1 586.125,1803.19C587.081,1803.29 588.039,1803.33 589,1803.33C589.961,1803.33 590.919,1803.29 591.875,1803.19C592.831,1803.1 593.78,1802.96 594.723,1802.77C595.665,1802.58 596.596,1802.35 597.515,1802.07C598.434,1801.79 599.338,1801.47 600.225,1801.1C601.113,1800.73 601.98,1800.32 602.828,1799.87C603.675,1799.42 604.498,1798.92 605.297,1798.39C606.096,1797.86 606.866,1797.29 607.609,1796.67C608.352,1796.07 609.063,1795.42 609.742,1794.74C610.421,1794.06 611.066,1793.35 611.675,1792.61C612.284,1791.87 612.856,1791.1 613.39,1790.3C613.923,1789.5 614.417,1788.67 614.87,1787.83C615.323,1786.98 615.733,1786.11 616.1,1785.23C616.468,1784.34 616.791,1783.43 617.07,1782.52C617.349,1781.6 617.582,1780.66 617.77,1779.72C617.957,1778.78 618.098,1777.83 618.192,1776.88C618.286,1775.92 618.333,1774.96 618.333,1774Z" style="fill:white;fill-rule:nonzero;"/>
        </g>
        <g transform="matrix(3.125,0,0,-3.125,0,11087.5)">
            <path d="M584.182,1763.34L603.604,1782.67L601.469,1784.8L584.182,1767.61L576.39,1775.31L574.255,1773.17L584.182,1763.34ZM589.01,1742.47C584.693,1742.47 580.615,1743.29 576.781,1744.93C572.948,1746.57 569.594,1748.83 566.713,1751.7C563.833,1754.58 561.573,1757.93 559.927,1761.77C558.286,1765.6 557.469,1769.67 557.469,1773.99C557.469,1778.37 558.286,1782.46 559.927,1786.26C561.568,1790.07 563.828,1793.41 566.703,1796.29C569.578,1799.17 572.932,1801.43 576.765,1803.07C580.594,1804.71 584.666,1805.53 588.99,1805.53C593.37,1805.53 597.458,1804.71 601.265,1803.07C605.068,1801.43 608.406,1799.17 611.286,1796.3C614.166,1793.42 616.427,1790.08 618.068,1786.28C619.713,1782.48 620.531,1778.39 620.531,1774.01C620.531,1769.69 619.713,1765.62 618.073,1761.78C616.432,1757.95 614.172,1754.59 611.297,1751.71C608.422,1748.83 605.083,1746.57 601.281,1744.93C597.484,1743.29 593.39,1742.47 589.01,1742.47ZM589,1745.4C596.943,1745.4 603.698,1748.18 609.26,1753.74C614.818,1759.3 617.599,1766.06 617.599,1774C617.599,1781.94 614.818,1788.7 609.26,1794.26C603.698,1799.82 596.943,1802.6 589,1802.6C581.057,1802.6 574.302,1799.82 568.74,1794.26C563.182,1788.7 560.401,1781.94 560.401,1774C560.401,1766.06 563.182,1759.3 568.74,1753.74C574.302,1748.18 581.057,1745.4 589,1745.4ZM589,1774L589.001,1774L589.001,1774L589,1774L589,1774Z" style="fill-rule:nonzero;"/>
        </g>
    </g>
</svg>
